<?xml version="1.0" standalone="no"?>
<!DOCTYPE svg PUBLIC "-//W3C//DTD SVG 1.1//EN" "http://www.w3.org/Graphics/SVG/1.1/DTD/svg11.dtd" >
<svg>
<metadata>
Created by FontForge 20090914 at Tue Dec 26 02:28:59 2017
 By www-data
Copyright (c) 2010, Kimberly Geswein (kimberlygeswein.com)
</metadata>
<defs>
<font id="Zeyada" horiz-adv-x="514" >
  <font-face 
    font-family="Zeyada"
    font-weight="400"
    font-stretch="normal"
    units-per-em="1024"
    panose-1="2 0 0 0 0 0 0 0 0 0"
    ascent="819"
    descent="-205"
    x-height="366.999"
    cap-height="611.999"
    bbox="-281 -679.999 1242 934"
    underline-thickness="51"
    underline-position="-52"
    unicode-range="U+0020-U+FB02"
  />
<missing-glyph horiz-adv-x="384" 
 />
    <glyph glyph-name=".notdef" horiz-adv-x="384" 
 />
    <glyph glyph-name="space" unicode=" " horiz-adv-x="384" 
 />
    <glyph glyph-name="exclam" unicode="!" horiz-adv-x="190" 
d="M84 574l0.00195312 30.001c0 14 0.166992 28.833 0.5 44.5s0.5 30.5 0.5 44.5v29c2 5.33301 4.5 8.33301 7.5 9s6.16699 1 9.5 1s6.66602 -0.333008 9.99902 -1s5.66602 -3.66699 6.99902 -9c0 -6 -0.166992 -15.333 -0.5 -28s-0.5 -27.334 -0.5 -44.001v-101
c0 -16 0.166992 -30.333 0.5 -43s0.5 -22 0.5 -28c0.666992 -26 3 -53 7 -81l12 -82c4 -27.333 7.66699 -54.5 11 -81.5s5 -53.5 5 -79.5c0 -3.33301 -0.166992 -6.5 -0.5 -9.5s-2.83301 -5.5 -7.5 -7.5c-4.66699 2.66699 -8.5 6.66699 -11.5 12s-5.16699 10 -6.5 14
c-18.667 69.333 -30.667 137.5 -36 204.5s-8 135.833 -8 206.5zM119.002 26.001c0 9.33301 3.16797 16.334 9.50098 21.001s13.833 7 22.5 7c14 0 21 -7.66699 21 -23c0 -2.66699 -0.5 -5.83398 -1.5 -9.50098s-2.5 -7 -4.5 -10s-4.33301 -5.66699 -7 -8
s-5.33398 -3.5 -8.00098 -3.5c-8 0 -15.333 2.5 -22 7.5s-10 11.167 -10 18.5z" />
    <glyph glyph-name="quotedbl" unicode="&#x22;" horiz-adv-x="270" 
d="M25 720v45.998c0 10 0.166992 20.167 0.5 30.5s0.5 20.166 0.5 29.499v20c0.666992 14 4.5 27 11.5 39s18.167 18 33.5 18c0 -31.333 -1.66699 -62 -5 -92s-5 -60 -5 -90v-45.5c0 -14.333 1.16699 -28.166 3.5 -41.499s5.83301 -26.333 10.5 -39s11.667 -25 21 -37
c0.666992 -1.33301 2.16699 -4.16602 4.5 -8.49902s3.5 -7.16602 3.5 -8.49902c-0.666992 -0.666992 -3 -3.33398 -7 -8.00098s-7 -8 -9 -10h-5c-12.667 0 -22.5 5.16699 -29.5 15.5s-12.5 22.333 -16.5 36s-6.83301 27.167 -8.5 40.5s-2.5 23.666 -2.5 30.999v13
c0 8.66699 -0.166992 18.334 -0.5 29.001s-0.5 21.334 -0.5 32.001zM173 831.998l0.00488281 13c0 5.33301 0.833008 10 2.5 14s4 7.5 7 10.5s7.5 4.5 13.5 4.5c3.33301 0 6.66602 -6.33301 9.99902 -19s6.83301 -28.834 10.5 -48.501s7.16699 -41.667 10.5 -66
s6.33301 -48.666 9 -72.999s4.66699 -47 6 -68s2 -37.833 2 -50.5c0 -3.33301 -0.166992 -6.5 -0.5 -9.5s-3.16602 -5.5 -8.49902 -7.5c-8.66699 4.66699 -16.334 14 -23.001 28s-12.334 30.667 -17.001 50s-8.33398 40 -11.001 62s-4.83398 43.333 -6.50098 64
s-2.83398 39.667 -3.50098 57s-1 30.333 -1 39z" />
    <glyph glyph-name="numbersign" unicode="#" horiz-adv-x="742" 
d="M228 490c-10 0 -19.4951 -1.83496 -28.4951 -5.50195s-19.167 -5.5 -30.5 -5.5c-8 0 -15 0.666992 -21 2s-9 7 -9 17v4v4c17.333 7.33301 31.833 12.5 43.5 15.5s21.334 6.16699 29.001 9.5s13 8.66602 16 15.999s4.5 19.333 4.5 36c-16 0 -32.167 -1.5 -48.5 -4.5
s-32.833 -6.5 -49.5 -10.5s-33.167 -7.66699 -49.5 -11s-32.833 -5.66602 -49.5 -6.99902c-2 0.666992 -5.16699 3.33398 -9.5 8.00098s-6.83301 8 -7.5 10c-0.666992 0 -1 0.333008 -1 1v2c0 5.33301 5.5 9.83301 16.5 13.5s24.667 7.33398 41 11.001s34.166 7 53.499 10
s37.5 6.5 54.5 10.5s31.167 8.33301 42.5 13s17.666 10.334 18.999 17.001c0.666992 4 1.16699 10.833 1.5 20.5s0.666016 20.167 0.999023 31.5s1 23.333 2 36s2.83301 24.167 5.5 34.5s6 18.666 10 24.999s9.33301 9.5 16 9.5c0.666992 0 2.16699 -1.16699 4.5 -3.5
s3.5 -4.16602 3.5 -5.49902v-137c6.66699 0 14.5 0.166992 23.5 0.5s17.5 1.5 25.5 3.5s14.833 5.16699 20.5 9.5s8.83398 10.833 9.50098 19.5c0 8 0.666992 19 2 33l3 42c0.666992 14 1.5 26.333 2.5 37s1.5 16.667 1.5 18v18c0 8 0.5 16 1.5 24s3.33301 14.833 7 20.5
s9.5 8.5 17.5 8.5c6.66699 0 11.834 -2.33301 15.501 -7s6.16699 -10.5 7.5 -17.5s2 -14 2 -21v-16.5v-87c0 -3.33301 0.5 -7.5 1.5 -12.5l3 -14.5c1 -4.66699 2 -8.66699 3 -12l1.5 -5h9l262 62h8c1.33301 -0.666992 3.16602 -2.16699 5.49902 -4.5
s3.5 -4.16602 3.5 -5.49902l-9 -8l-235 -70c-14.667 -4 -25 -8 -31 -12s-9.66699 -9 -11 -15s-1.33301 -13.333 0 -22s2 -20 2 -34h179c2 0 6.33301 -1.5 13 -4.5s11.334 -5.83301 14.001 -8.5v-2v-1v-2v-1.5v-1.5c-14.667 -6.66699 -32.334 -9.83398 -53.001 -9.50098
s-41.5 0.833008 -62.5 1.5s-40.833 0.166992 -59.5 -1.5s-33.334 -7.5 -44.001 -17.5c0 -2.66699 0.5 -7.83398 1.5 -15.501l3 -24l3 -24c1 -7.66699 1.5 -12.834 1.5 -15.501c1.33301 -7.33301 4.33301 -16.166 9 -26.499s9.66699 -20.5 15 -30.5
s10.166 -18.667 14.499 -26s6.5 -11.333 6.5 -12c0 -8 -2 -13 -6 -15s-10 -3 -18 -3c-10 0 -18.333 3.5 -25 10.5s-12.334 16 -17.001 27s-8.33398 23.167 -11.001 36.5s-5 26.5 -7 39.5s-4 24.833 -6 35.5s-4.33301 19 -7 25c-1.33301 -8 -2.83301 -18.5 -4.5 -31.5
s-3.83398 -26.5 -6.50098 -40.5s-6.16699 -28.167 -10.5 -42.5s-9.5 -27.333 -15.5 -39s-13.167 -21 -21.5 -28s-17.833 -10.5 -28.5 -10.5c-9.33301 0 -16.666 3.83301 -21.999 11.5s-9.5 17.5 -12.5 29.5s-5.16699 24.667 -6.5 38s-3 26 -5 38s-4.66699 22 -8 30
s-8.33301 12 -15 12zM287.005 457.998c0 -1.33301 -0.170898 -6.16699 -0.503906 -14.5s-0.166016 -17 0.500977 -26s2.33398 -17.167 5.00098 -24.5s7.33398 -11 14.001 -11c7.33301 0 13.833 6.16699 19.5 18.5s10.5 26.5 14.5 42.5s7.16699 31.833 9.5 47.5
s3.5 27.5 3.5 35.5h-17c-6 0 -12 -0.666992 -18 -2s-11.667 -3.33301 -17 -6s-9.66602 -6.66699 -12.999 -12v-9c0 -4.66699 -0.166992 -9.5 -0.5 -14.5s-0.5 -9.83301 -0.5 -14.5v-10zM358.001 627.997c-10 -1.33301 -19.666 -3.16699 -28.999 -5.5
s-17.833 -5.66602 -25.5 -9.99902s-13.834 -10.333 -18.501 -18s-7 -17.167 -7 -28.5c2.66699 0 8.16699 0.333008 16.5 1s17.333 1.66699 27 3s18.167 3.16602 25.5 5.49902s11 5.5 11 9.5v43z" />
    <glyph glyph-name="dollar" unicode="$" horiz-adv-x="410" 
d="M248 175c-2.66699 0 -6.49707 -0.162109 -11.4971 -0.495117s-8.16699 -0.5 -9.5 -0.5c-2.66699 0 -8.66699 -0.5 -18 -1.5s-19.333 -2 -30 -3s-20.834 -1.83301 -30.501 -2.5s-15.5 -1 -17.5 -1c-39.333 0 -68.166 11.333 -86.499 34s-27.5 52 -27.5 88
c0 21.333 1.5 40.833 4.5 58.5s10.167 36.167 21.5 55.5v-14c0 -16.667 -1.5 -33.167 -4.5 -49.5s-4.5 -32.833 -4.5 -49.5c0 -32 9.16699 -55 27.5 -69s42.166 -21 71.499 -21c9.33301 0 21.333 0.5 36 1.5s28.834 3.5 42.501 7.5s25.5 10.333 35.5 19s15 20.334 15 35.001
c0 2 -0.5 5.5 -1.5 10.5s-1.83301 10.167 -2.5 15.5s-1.5 10.5 -2.5 15.5s-1.83301 8.5 -2.5 10.5c-23.333 11.333 -48.666 24.666 -75.999 39.999s-53 33.166 -77 53.499s-44 43.166 -60 68.499s-24 53.666 -24 84.999c0 19.333 4 38.5 12 57.5s18.5 36.5 31.5 52.5
s28 30.333 45 43s34.5 22 52.5 28c2 0 6.66699 0.833008 14 2.5s15.666 3.66699 24.999 6s18.5 5 27.5 8s15.833 6.16699 20.5 9.5c0.666992 3.33301 1.33398 9.66602 2.00098 18.999s1.5 19.166 2.5 29.499s2 20 3 29s1.5 15.167 1.5 18.5
c0.666992 4.66699 2.16699 11 4.5 19s5.16602 15.833 8.49902 23.5s7.66602 14.167 12.999 19.5s11.333 8 18 8c4 0 7.5 -0.333008 10.5 -1s5.16699 -3.33398 6.5 -8.00098c-4.66699 -11.333 -8.66699 -21.666 -12 -30.999s-6.16602 -18.333 -8.49902 -27s-4 -17.667 -5 -27
s-1.5 -20.333 -1.5 -33v-9c0 -4.66699 0.166992 -9.66699 0.5 -15s0.5 -10 0.5 -14v-9c30 -26 52.167 -56.833 66.5 -92.5s21.5 -73.5 21.5 -113.5c0 -4.66699 -0.5 -9.5 -1.5 -14.5s-5.16699 -7.5 -12.5 -7.5c-12 0 -21.667 5 -29 15s-13.333 21.5 -18 34.5
s-8.33398 25.667 -11.001 38s-5 21.166 -7 26.499l-9 -18c0 -1.33301 -0.166992 -5.33301 -0.5 -12s-0.5 -14.5 -0.5 -23.5s-0.166992 -18 -0.5 -27s-0.5 -16.167 -0.5 -21.5v-45c0 -16.667 0.333008 -33.667 1 -51s1.66699 -34.5 3 -51.5s3.66602 -32.833 6.99902 -47.5
c4.66699 -9.33301 12.167 -15.666 22.5 -18.999s21.166 -6 32.499 -8s21.166 -5.16699 29.499 -9.5s12.5 -12.5 12.5 -24.5v-8.5c0 -4.33301 -0.333008 -7.5 -1 -9.5l-16 -15.5l-24 -23c-8.66699 -8.33301 -16.5 -16.333 -23.5 -24s-12.167 -12.834 -15.5 -15.501
c-0.666992 -1.33301 -2.16699 -4.16602 -4.5 -8.49902s-3.5 -7.5 -3.5 -9.5v-174c-4 2.66699 -7.83301 6.66699 -11.5 12s-5.83398 10 -6.50098 14l-26 148h-6c-1.33301 0 -2.66602 0.166992 -3.99902 0.5s-2.66602 0.5 -3.99902 0.5zM52.0029 558.005
c0 -21.333 6.50293 -43.501 19.5029 -66.501s29.5 -43.833 49.5 -62.5s42 -34.167 66 -46.5s46.667 -18.5 68 -18.5v30c0 14.667 -0.166992 30 -0.5 46s-0.666016 31 -0.999023 45s-0.5 23.667 -0.5 29c0 9.33301 -0.166992 20.333 -0.5 33s-0.833008 25.834 -1.5 39.501
l-2 40c-0.666992 13 -1.33398 24.833 -2.00098 35.5s-1.33398 19.334 -2.00098 26.001l-1 10l-9 8c-0.666992 1.33301 -4.33398 2.16602 -11.001 2.49902s-11.334 0.5 -14.001 0.5c-19.333 0 -38.5 -4.33301 -57.5 -13s-36 -19.834 -51 -33.501s-27 -29.667 -36 -48
s-13.5 -37.166 -13.5 -56.499zM314.006 306.004c-0.666992 0 -1.99902 -1.33203 -3.99902 -3.99902s-3.33301 -4.66699 -4 -6c0 -0.666992 -0.333008 -3 -1 -7s-1.16699 -8 -1.5 -12s-0.833008 -8 -1.5 -12s-1 -6.66699 -1 -8c4 0 8.33301 0.5 13 1.5s9.16699 2.5 13.5 4.5
s7.83301 4.83301 10.5 8.5s4 7.5 4 11.5l-1 1v2c-0.666992 0 -1 0.666992 -1 2c-0.666992 0.666992 -2.16699 2 -4.5 4s-4.83301 3.83301 -7.5 5.5s-5.33398 3.16699 -8.00098 4.5s-4.66699 2.66602 -6 3.99902z" />
    <glyph glyph-name="percent" unicode="%" horiz-adv-x="472" 
d="M61 34c0 18 0.996094 34.002 2.99609 48.002s7 30 15 48l174 438l35 122l7.5 7.5c4.33301 4.33301 7.83301 7.16602 10.5 8.49902c0.666992 0 1.33398 0.333008 2.00098 1l2 1c4 0 7 -1.33301 9 -4s3.33301 -5.5 4 -8.5s1 -6.5 1 -10.5v-9
c0 -11.333 -1.5 -22.666 -4.5 -33.999s-6.83301 -22.833 -11.5 -34.5s-9.5 -23.167 -14.5 -34.5s-9.5 -22 -13.5 -32c-6 -12.667 -13.5 -30.334 -22.5 -53.001l-30 -73.5l-33 -81l-31.5 -78l-26 -63l-15 -35.5c-0.666992 -2.66699 -2.66699 -8.83398 -6 -18.501l-10.5 -31
l-10.5 -32.5c-3.33301 -10.667 -5.66602 -18.334 -6.99902 -23.001c0 -1.33301 -0.5 -4.16602 -1.5 -8.49902s-2 -9 -3 -14s-2 -9.5 -3 -13.5s-1.5 -6.66699 -1.5 -8l-5 -4l-4 -4c-4 0.666992 -6.66699 2.5 -8 5.5s-2.16602 6.66699 -2.49902 11
s-0.166016 8.33301 0.500977 12zM330.996 130.002v7.50195c0 3 -0.166992 6.5 -0.5 10.5s-0.5 7.33301 -0.5 10v8c0 12 1.66699 27.833 5 47.5s8.5 38.667 15.5 57s16.333 34 28 47s26.167 19.5 43.5 19.5c0 -10.667 1.66699 -20.5 5 -29.5s7.16602 -17.833 11.499 -26.5
s8 -17.334 11 -26.001s4.5 -18.334 4.5 -29.001c0 -12 -1.83301 -24.5 -5.5 -37.5s-9.16699 -25 -16.5 -36s-16.5 -20.167 -27.5 -27.5s-23.5 -11 -37.5 -11c-7.33301 0 -14.166 1.33301 -20.499 4s-11.5 6.66699 -15.5 12zM17.9961 511.004
c0 7.33301 1.16797 16.832 3.50098 28.499s5.66602 24.334 9.99902 38.001s9.5 27 15.5 40s12.833 25 20.5 36s16 20 25 27s18.5 10.5 28.5 10.5c14 0 23.667 -4.16699 29 -12.5s8 -19.5 8 -33.5c0 -16 -2.33301 -33.5 -7 -52.5s-11.834 -36.833 -21.501 -53.5
s-21.667 -30.667 -36 -42s-31.166 -17 -50.499 -17c-6.66699 0 -12.5 3.5 -17.5 10.5s-7.5 13.833 -7.5 20.5zM405.997 262.003c-6.66699 0 -12.832 -4.33203 -18.499 -12.999s-10.334 -18.834 -14.001 -30.501s-6.5 -23.5 -8.5 -35.5s-3 -21.333 -3 -28
c9.33301 0 17.5 2.16699 24.5 6.5s13 9.83301 18 16.5s8.83301 14.167 11.5 22.5s4 16.833 4 25.5v9c0 4 -0.333008 8 -1 12s-2 7.5 -4 10.5s-5 4.5 -9 4.5zM104.999 619.004c-7.33301 -4 -13.667 -9.66602 -19 -16.999s-9.83301 -15.333 -13.5 -24s-6.5 -17.5 -8.5 -26.5
s-3 -17.5 -3 -25.5c8 0 15 2.66699 21 8s10.667 12 14 20s5.83301 16.333 7.5 25s2.5 16.334 2.5 23.001c0 1.33301 -0.166992 4.16602 -0.5 8.49902s-0.5 7.16602 -0.5 8.49902z" />
    <glyph glyph-name="ampersand" unicode="&#x26;" horiz-adv-x="392" 
d="M253 157c-0.666992 0 -2.00098 0.170898 -4.00098 0.503906s-3.66699 0.5 -5 0.5c-14 0 -27.5 -2 -40.5 -6l-39 -12.5c-13 -4.33301 -26.333 -8.5 -40 -12.5s-27.5 -6 -41.5 -6h-8h-12h-12c-4 0.666992 -6.66699 1 -8 1c-10.667 5.33301 -17.834 10.666 -21.501 15.999
s-5.5 12.666 -5.5 21.999c0 12.667 4.5 25 13.5 37s19.5 23.333 31.5 34s24.5 20 37.5 28s23.5 15 31.5 21c-4 -0.666992 -12.667 -1.83398 -26 -3.50098s-27.166 -2 -41.499 -1s-27.166 4 -38.499 9s-17 13.833 -17 26.5c0 13.333 6.16699 27.666 18.5 42.999
s26.833 30 43.5 44s33.167 26.833 49.5 38.5s29.166 20.167 38.499 25.5c3.33301 2.66699 9.5 7 18.5 13l29 18.5l29 18c9 5.66699 15.5 9.5 19.5 11.5c0 2.66699 0.333008 7.33398 1 14.001s1.5 13.834 2.5 21.501s2 14.667 3 21s1.83301 11.166 2.5 14.499
c0 2.66699 1 7.83398 3 15.501s3.83301 15.667 5.5 24s3.33398 16 5.00098 23s2.83398 12.167 3.50098 15.5c0.666992 2 2 5.16699 4 9.5s3.66699 7.16602 5 8.49902h1l3 1c3.33301 0 6.33301 -1.5 9 -4.5s5 -6.33301 7 -10s3.5 -7.66699 4.5 -12s1.5 -7.83301 1.5 -10.5
c0 -9.33301 -1 -18.166 -3 -26.499s-4.16699 -16.833 -6.5 -25.5s-4.5 -17.5 -6.5 -26.5s-3 -17.833 -3 -26.5v-14c0 -4.66699 3.33301 -8.66699 10 -12c1.33301 0 4 0.333008 8 1l5 2v39c0.666992 -10 3 -18 7 -24c4.66699 -6.66699 9.33398 -12.834 14.001 -18.501
s9 -11.334 13 -17.001s6 -12.5 6 -20.5c0 -4.66699 -0.5 -8.33398 -1.5 -11.001s-2.16699 -5.16699 -3.5 -7.5s-2.5 -5 -3.5 -8s-1.5 -7.16699 -1.5 -12.5c0 -12.667 1 -25.167 3 -37.5s4.16699 -24.833 6.5 -37.5s4.5 -25.167 6.5 -37.5s3 -24.833 3 -37.5
s-3.33301 -23.667 -10 -33s-13.667 -18.166 -21 -26.499l-21 -25c-6.66699 -8.33301 -10 -17.5 -10 -27.5v-184h-9c-1.33301 -0 -3.33301 2.83301 -6 8.5l-8.5 19c-3 7 -5.5 13.833 -7.5 20.5s-3.33301 11 -4 13c-1.33301 4 -2.83301 10.5 -4.5 19.5
s-3.33398 18.5 -5.00098 28.5s-3.33398 19.5 -5.00098 28.5s-2.5 15.5 -2.5 19.5zM60.999 322.004c0 -0.666992 0.995117 -2.16797 2.99512 -4.50098s4 -3.5 6 -3.5c4.66699 0.666992 13.334 1.66699 26.001 3s25.834 3 39.501 5l39 5.5l25.5 3.5
c2.66699 0.666992 6.33398 1.33398 11.001 2.00098s9.33398 1.5 14.001 2.5s8.83398 2 12.501 3s5.83398 1.5 6.50098 1.5c1.33301 0.666992 3.16602 2.16699 5.49902 4.5s3.5 3.83301 3.5 4.5v131c-6 -2.66699 -14.833 -7.66699 -26.5 -15s-24.667 -16 -39 -26l-44 -32
c-15 -11.333 -28.5 -22.5 -40.5 -33.5s-22 -21 -30 -30s-12 -16.167 -12 -21.5zM234.994 280.003c-0.666992 0 -5.33496 -2.50098 -14.002 -7.50098s-19 -10.667 -31 -17l-37 -20l-31 -17.5l-19 -11c-6.66699 -4 -12.834 -8.66699 -18.501 -14s-10.5 -11.166 -14.5 -17.499
s-6 -13.166 -6 -20.499c4 0 11.333 0.666992 22 2s22.834 3.16602 36.501 5.49902s28.334 5 44.001 8s29.834 6.66699 42.501 11s23.167 8.83301 31.5 13.5s12.5 9.66699 12.5 15v70h-18zM314.993 328.002c0 -14 -2.50098 -28.167 -7.50098 -42.5
s-8.83301 -28.166 -11.5 -41.499h4.5h4.5c4.66699 0 8.66699 1.16699 12 3.5s6.5 5.33301 9.5 9s5.5 7.66699 7.5 12s4 8.16602 6 11.499v10c0 5.33301 0.166992 11 0.5 17s0.5 11.667 0.5 17v29c0 9.33301 -0.166992 19.333 -0.5 30s-1 21.834 -2 33.501
s-2.5 22.334 -4.5 32.001s-4.66699 17.5 -8 23.5s-7.33301 9 -12 9c-5.33301 0 -9.66602 -1.16699 -12.999 -3.5s-5 -7.5 -5 -15.5v-96c0 -4.66699 1 -8.33398 3 -11.001s4.16699 -5.33398 6.5 -8.00098s4.5 -5.5 6.5 -8.5s3 -6.5 3 -10.5z" />
    <glyph glyph-name="quotesingle" unicode="'" horiz-adv-x="104" 
d="M7 576l-0.00195312 53c0 13.333 1.16699 26.5 3.5 39.5s6.33301 24.167 12 33.5s13.834 14 24.501 14c9.33301 0 15.5 -1.66699 18.5 -5s4.5 -9 4.5 -17c0 -12.667 -1.5 -23.5 -4.5 -32.5s-7.5 -20.167 -13.5 -33.5v-198c-7.33301 0 -13.666 3.5 -18.999 10.5
s-9.5 16 -12.5 27s-5.5 23 -7.5 36s-3.5 25.833 -4.5 38.5s-1.5 24 -1.5 34z" />
    <glyph glyph-name="parenleft" unicode="(" horiz-adv-x="418" 
d="M18 248c0 17.333 2.83105 43 8.49805 77s13.834 71.167 24.501 111.5s23.5 81.666 38.5 123.999s31.5 80.833 49.5 115.5s37.333 63 58 85s42.334 33 65.001 33c0.666992 0 2 -1.16699 4 -3.5s3.66699 -3.83301 5 -4.5v-10c-1.33301 -1.33301 -3 -4.16602 -5 -8.49902
s-3.33301 -6.83301 -4 -7.5c-2 -3.33301 -7.33301 -10.166 -16 -20.499l-28 -33l-27.5 -33c-8.33301 -10.333 -13.5 -16.833 -15.5 -19.5c-19.333 -27.333 -36.5 -57.833 -51.5 -91.5s-27.667 -68.5 -38 -104.5s-18.5 -72.333 -24.5 -109s-9 -71.667 -9 -105
c0 -30.667 5 -57.667 15 -81s23.667 -43.166 41 -59.499s37.333 -29.833 60 -40.5s46.667 -19 72 -25s51 -9.83301 77 -11.5s51.333 -1.83398 76 -0.500977l9 -8c-3.33301 -6 -9 -10.333 -17 -13s-14 -4.33398 -18 -5.00098h-14c-6 -0 -12.5 -0.166992 -19.5 -0.5
s-13.833 -0.5 -20.5 -0.5h-12c-36 0 -71 5.5 -105 16.5s-64.167 27 -90.5 48s-47.5 47 -63.5 78s-24 66.5 -24 106.5z" />
    <glyph glyph-name="parenright" unicode=")" horiz-adv-x="314" 
d="M246 388c0 18 -0.832031 37.166 -2.49902 57.499s-4.5 40.666 -8.5 60.999s-9.5 40.166 -16.5 59.499s-15.833 37 -26.5 53c-5.33301 8 -11.5 16.5 -18.5 25.5s-14.5 17.833 -22.5 26.5s-16 16.834 -24 24.501s-15.333 14.167 -22 19.5
c-3.33301 2.66699 -9.83301 5.66699 -19.5 9s-19.667 7.16602 -30 11.499s-19.333 9.16602 -27 14.499s-11.5 11.666 -11.5 18.999c0 4.66699 1.5 8.33398 4.5 11.001s6.5 4.5 10.5 5.5s8.33301 1.5 13 1.5h13c12.667 0 26 -4.16699 40 -12.5s27.667 -18.333 41 -30
s25.333 -23.5 36 -35.5l26 -29c15.333 -18 29 -38.667 41 -62s22 -47.833 30 -73.5s14.167 -51.5 18.5 -77.5s6.5 -51 6.5 -75c0 -36 -4.83301 -70.5 -14.5 -103.5s-23 -64.167 -40 -93.5s-37.167 -56.666 -60.5 -81.999s-49 -48.666 -77 -69.999l-13.5 -10
c-6.33301 -4.66699 -13.333 -9.5 -21 -14.5s-15.5 -9.5 -23.5 -13.5s-15 -6 -21 -6c-0.666992 0 -2 0.166992 -4 0.5s-3.33301 0.5 -4 0.5c5.33301 6.66699 9.66602 11.334 12.999 14.001s6.5 4.83398 9.5 6.50098s6.66699 4 11 7s10.5 8.16699 18.5 15.5
c27.333 25.333 51.833 50.5 73.5 75.5s40.167 51.167 55.5 78.5s27 56.5 35 87.5s12 65.5 12 103.5z" />
    <glyph glyph-name="asterisk" unicode="*" horiz-adv-x="488" 
d="M174 174c-0.666992 1.33301 -1.99805 3.00195 -3.99805 5.00195l-4 5h-9c-2.66699 -0.666992 -8.66699 -1.5 -18 -2.5s-19.333 -2 -30 -3s-20.834 -2 -30.501 -3s-15.5 -1.5 -17.5 -1.5h-30c-4 0 -7.83301 0.666992 -11.5 2s-6.66699 3.16602 -9 5.49902
s-3.5 5.83301 -3.5 10.5s1.83301 8.5 5.5 11.5s7.83398 5.5 12.501 7.5s9.66699 3.5 15 4.5s9.33301 1.83301 12 2.5l29 7l44.5 10.5l45 10.5c14.333 3.33301 24.166 5.66602 29.499 6.99902c11.333 8 19.666 17.833 24.999 29.5s10.333 23.667 15 36s9.66699 24.333 15 36
s13.333 21.5 24 29.5c10.667 -4 17 -10.833 19 -20.5s3.33301 -19.5 4 -29.5s2.5 -19 5.5 -27s10.5 -12 22.5 -12c10.667 0 20.667 1.5 30 4.5s18.666 6.33301 27.999 10s18.666 7 27.999 10s19 4.5 29 4.5c6.66699 0 12.667 -0.666992 18 -2s8 -6.66602 8 -15.999
c0 -6 -5.5 -15.167 -16.5 -27.5s-25.5 -26.333 -43.5 -42s-38.667 -32.5 -62 -50.5l-71.5 -53.5l-72 -51.5l-64 -44l-47 -30.5c-12.333 -7.66699 -19.166 -11.5 -20.499 -11.5c0 1.33301 0.5 3.66602 1.5 6.99902s1.83301 5.33301 2.5 6c0.666992 1.33301 2.66699 3.5 6 6.5
l11.5 10.5c4.33301 4 8.16602 7.83301 11.499 11.5s5.33301 5.83398 6 6.50098s1.33398 3.33398 2.00098 8.00098s1.5 9.5 2.5 14.5s1.83301 9.66699 2.5 14s1.33398 7.16602 2.00098 8.49902c2 5.33301 5.33301 12 10 20l14.5 24.5c5 8.33301 10.167 16.166 15.5 23.499z
M262.002 188.002c-20.667 0 -37.501 -6.16699 -50.501 -18.5s-19.5 -29.5 -19.5 -51.5v-4c0.666992 0.666992 3.33398 2 8.00098 4s7.66699 3.33301 9 4c4 3.33301 9 7.83301 15 13.5l17.5 17l14.5 14.5c4 4 6 6.33301 6 7v14zM340.001 254.002
c-12.667 0 -19 -7.33301 -19 -22c6 0 11.167 2.33301 15.5 7l12.5 14c-0.666992 0 -2 0.166992 -4 0.5s-3.66699 0.5 -5 0.5z" />
    <glyph glyph-name="plus" unicode="+" horiz-adv-x="331" 
d="M148 297c-19.333 0 -38.167 -1.66406 -56.5 -4.99707s-37.166 -7.33301 -56.499 -12c-3.33301 2 -7 5.83301 -11 11.5s-6 10.5 -6 14.5c0 0.666992 1.16699 2.16699 3.5 4.5s3.83301 3.5 4.5 3.5c4.66699 1.33301 12.667 3 24 5s23.666 4.5 36.999 7.5
s25.833 5.66699 37.5 8s19.5 4.16602 23.5 5.49902c2 0.666992 5.16699 2 9.5 4s7.16602 3.66699 8.49902 5c-0.666992 6.66699 -0.833984 14.334 -0.500977 23.001s1.66602 17.167 3.99902 25.5s6 16 11 23s11.833 12.167 20.5 15.5l13 -9v-78h104
c0 -5.33301 -2.5 -9.33301 -7.5 -12s-9.5 -4.66699 -13.5 -6c-3.33301 -0.666992 -8.5 -1.83398 -15.5 -3.50098l-23.5 -5.5c-8.66699 -2 -16.667 -3.66699 -24 -5s-12.666 -2.33301 -15.999 -3c-1.33301 -8 -2.66602 -14.833 -3.99902 -20.5
s-2.16602 -11.167 -2.49902 -16.5l-1 -15.5c-0.333008 -5 -0.5 -10.833 -0.5 -17.5c0 -20.667 1.66699 -41.334 5 -62.001s5 -41.334 5 -62.001c-8.66699 0 -16.667 2.16699 -24 6.5s-11.333 11.5 -12 21.5l-18 148h-7c-2 0 -4 0.166992 -6 0.5s-3.66699 0.5 -5 0.5z" />
    <glyph glyph-name="comma" unicode="," horiz-adv-x="151" 
d="M117 -78c0 9.33301 -2.49902 19.833 -7.49902 31.5s-10.833 23.167 -17.5 34.5s-13.5 21.833 -20.5 31.5s-12.5 17.5 -16.5 23.5v7v7c0 6.66699 1.5 13.5 4.5 20.5s8.5 10.5 16.5 10.5c5.33301 0 11 -3 17 -9s12.167 -14 18.5 -24s12.5 -21.167 18.5 -33.5
s11.167 -24.333 15.5 -36s7.83301 -22.5 10.5 -32.5s4 -17.667 4 -23c0 -13.333 -2 -26.5 -6 -39.5s-10 -24.833 -18 -35.5s-17.833 -19 -29.5 -25s-24.834 -9 -39.501 -9c0 10 2.66699 18.833 8 26.5s11 15 17 22s11.667 14.5 17 22.5s8 18 8 30z" />
    <glyph glyph-name="hyphen" unicode="-" horiz-adv-x="352" 
d="M40 330c0 6.66699 1.00195 11.832 3.00195 15.499s7 7.16699 15 10.5c21.333 -1.33301 41.5 -2.33301 60.5 -3s38.167 -0.5 57.5 0.5s39 2.5 59 4.5s42 4.66699 66 8h4c5.33301 0 11.666 -2 18.999 -6s11 -9 11 -15c0 -7.33301 -0.666992 -14.5 -2 -21.5
s-6 -10.5 -14 -10.5c-6 0 -11.5 1.66699 -16.5 5s-10.167 5 -15.5 5h-4c-20 -4.66699 -35.667 -8 -47 -10s-21 -3.5 -29 -4.5s-14.833 -1.33301 -20.5 -1s-12.667 0.833008 -21 1.5s-18.833 1.33398 -31.5 2.00098s-29 1 -49 1h-8c-2.66699 0 -6 0.166992 -10 0.5
s-7.66699 0.5 -11 0.5h-7c-4.66699 2 -7.33398 4.5 -8.00098 7.5s-1 6.16699 -1 9.5z" />
    <glyph glyph-name="period" unicode="." horiz-adv-x="143" 
d="M64 23c0 6.66699 1.66602 13.332 4.99902 19.999s9.33301 10 18 10c7.33301 0 14.333 -2.66699 21 -8s10 -11.666 10 -18.999c0 -9.33301 -3 -16.166 -9 -20.499s-13 -6.5 -21 -6.5c-9.33301 0 -15.666 1.66699 -18.999 5s-5 9.66602 -5 18.999z" />
    <glyph glyph-name="slash" unicode="/" horiz-adv-x="392" 
d="M8 26c7.33301 36 15.6689 71.334 25.002 106.001s21.666 69 36.999 103l226 525l62 60h20c0 -10.667 -2.33301 -22.834 -7 -36.501s-11 -28.167 -19 -43.5s-16.667 -31 -26 -47l-28 -47l-26.5 -43c-8.33301 -13.333 -14.5 -25 -18.5 -35l-110 -252
c-35.333 -84 -68.666 -169 -99.999 -255v-11c0 -5.33301 -0.5 -11.333 -1.5 -18s-2.66699 -13.167 -5 -19.5s-5.83301 -10.5 -10.5 -12.5c-0.666992 -0.666992 -1.33398 -1 -2.00098 -1h-5c-0.666992 0 -1.33398 0.333008 -2.00098 1s-2 3.16699 -4 7.5l-5 10.5v8z" />
    <glyph glyph-name="zero" unicode="0" horiz-adv-x="384" 
d="M18 204c0 10.667 0.666992 28.002 2 52.002s4 50.5 8 79.5s9.5 58.667 16.5 89s15.667 58.166 26 83.499s22.833 46.166 37.5 62.499s32 24.5 52 24.5c21.333 0 41 -7.5 59 -22.5s34.167 -34.5 48.5 -58.5s27.333 -50.667 39 -80s21.167 -58.833 28.5 -88.5
s13 -57.5 17 -83.5s6 -47.333 6 -64c0 -27.333 -5 -53 -15 -77s-23.833 -45 -41.5 -63s-38.5 -32.167 -62.5 -42.5s-50 -15.5 -78 -15.5c-26.667 0 -49 6.5 -67 19.5s-32.667 29.5 -44 49.5s-19.5 42 -24.5 66s-7.5 47 -7.5 69zM52 225.002
c0 -21.333 1.50195 -42.8359 4.50195 -64.5029s8.83301 -41.167 17.5 -58.5s20.667 -31.666 36 -42.999s35.666 -17 60.999 -17c24.667 0 46.5 4.16699 65.5 12.5s35 20 48 35s22.833 32.333 29.5 52s10 40.834 10 63.501c0 16 -0.5 33 -1.5 51s-3.5 35.167 -7.5 51.5
s-10.167 31.333 -18.5 45s-19.833 24.167 -34.5 31.5c-4 1.33301 -7.5 5.83301 -10.5 13.5s-6.33301 16.667 -10 27s-7.33398 21.333 -11.001 33s-7.66699 22.334 -12 32.001s-9 17.667 -14 24s-10.5 9.5 -16.5 9.5c-14.667 0 -27.334 -4.5 -38.001 -13.5
s-20 -18.833 -28 -29.5l-8 8c-9.33301 -4.66699 -17.166 -13.167 -23.499 -25.5s-11.833 -26.833 -16.5 -43.5s-8.5 -34.667 -11.5 -54s-5.33301 -38 -7 -56s-2.66699 -34.5 -3 -49.5s-0.5 -26.5 -0.5 -34.5z" />
    <glyph glyph-name="one" unicode="1" horiz-adv-x="96" 
d="M52 542c1.33301 0 3.00195 -0.166016 5.00195 -0.499023s3.33301 -0.5 4 -0.5c4 -14 6.5 -25.667 7.5 -35s1.5 -20.666 1.5 -33.999v-21c0 -6 -0.333008 -12 -1 -18s-1.66699 -12.167 -3 -18.5s-3 -13.833 -5 -22.5v-314c0.666992 -2.66699 2 -7.16699 4 -13.5l6.5 -21
c2.33301 -7.66699 4.16602 -15.334 5.49902 -23.001s2 -14.5 2 -20.5h-18c-0.666992 0 -2.16699 2 -4.5 6s-4.83301 8.66699 -7.5 14s-5.33398 11 -8.00098 17s-5 11 -7 15c0 2 -0.5 4.66699 -1.5 8l-3 10.5c-1 3.66699 -1.83301 7.16699 -2.5 10.5s-1 5.66602 -1 6.99902
v426c0 6.66699 2.83301 13 8.5 19s11.5 9 17.5 9z" />
    <glyph glyph-name="two" unicode="2" horiz-adv-x="410" 
d="M69 34c0 8 0.164062 14.168 0.49707 18.501s3.5 10.166 9.5 17.499l58 78.5c20.667 27 39.667 55 57 84s31.666 59.167 42.999 90.5s17 63.666 17 96.999c0 32 -8.66699 54.5 -26 67.5s-40.333 19.5 -69 19.5c-19.333 0 -34.166 -3.83301 -44.499 -11.5
s-19.166 -15.834 -26.499 -24.501s-14.666 -16.667 -21.999 -24s-17.666 -11 -30.999 -11c-8 0 -13 2 -15 6s-3 9.66699 -3 17c0 16.667 5.66699 30.834 17 42.501s24.833 21.167 40.5 28.5s32.167 12.5 49.5 15.5s32.333 4.5 45 4.5c17.333 0 33.666 -3 48.999 -9
s29 -14.5 41 -25.5s21.333 -24.167 28 -39.5s10 -32.666 10 -51.999c0 -35.333 -5.83301 -68.833 -17.5 -100.5s-26 -62.334 -43 -92.001s-35.833 -58.667 -56.5 -87s-40 -56.166 -58 -83.499c-0.666992 -1.33301 -2 -4.33301 -4 -9s-3.33301 -7.66699 -4 -9
c5.33301 -4 9.5 -6.5 12.5 -7.5s7.16699 -1.5 12.5 -1.5h5.5h3.5l201 44h40c0 -7.33301 -6 -14.166 -18 -20.499s-27 -12.333 -45 -18s-37.833 -11 -59.5 -16s-42.167 -9.33301 -61.5 -13s-36.166 -6.5 -50.499 -8.5s-23.5 -3 -27.5 -3h-9c-3.33301 0 -7 0.166992 -11 0.5
s-8 0.5 -12 0.5h-7c-10 2.66699 -15.667 7.16699 -17 13.5s-2 13.166 -2 20.499z" />
    <glyph glyph-name="three" unicode="3" horiz-adv-x="480" 
d="M17 78c0 1.33301 0.166016 3.00293 0.499023 5.00293s0.5 3.66699 0.5 5c16 -6.66699 30.333 -13.334 43 -20.001s25.334 -12.5 38.001 -17.5s26 -9 40 -12s30.333 -4.5 49 -4.5c22.667 0 47 3 73 9s50 15.5 72 28.5s40.333 29.333 55 49s22 43.5 22 71.5
c0 14.667 -2.33301 28.334 -7 41.001s-11.334 23.667 -20.001 33s-19 16.833 -31 22.5s-25 8.5 -39 8.5c-13.333 0 -25.5 -2.83301 -36.5 -8.5s-21.667 -11.834 -32 -18.501s-20.833 -12.667 -31.5 -18s-22 -8 -34 -8c-4.66699 0 -9.5 0.5 -14.5 1.5s-7.5 4.83301 -7.5 11.5
c0 7.33301 4.5 15.333 13.5 24s20 18.5 33 29.5l42 35c15 12.333 29 26 42 41s23.833 31 32.5 48s13 34.833 13 53.5c0 12.667 -2.16699 22.667 -6.5 30s-10 12.833 -17 16.5s-15.333 5.83398 -25 6.50098s-19.834 1 -30.501 1c-27.333 0 -50.666 -5.33301 -69.999 -16
s-34.333 -28.667 -45 -54c-10 1.33301 -16.833 6 -20.5 14s-5.5 16.333 -5.5 25c0 16 7 28.667 21 38s30.333 16.666 49 21.999s37.334 8.83301 56.001 10.5s32.334 2.5 41.001 2.5c30 0 53.5 -8.83301 70.5 -26.5s25.5 -40.834 25.5 -69.501c0 -12.667 -1.5 -25 -4.5 -37
s-7 -23.5 -12 -34.5s-10.667 -22 -17 -33l-19.5 -34.5c18 -6 35 -14.5 51 -25.5s29.833 -24 41.5 -39s21 -31.5 28 -49.5s10.5 -36.667 10.5 -56c0 -30 -8.5 -56.167 -25.5 -78.5s-38 -41 -63 -56s-52 -26.333 -81 -34s-55.5 -11.5 -79.5 -11.5
c-10.667 0 -26.334 1.66699 -47.001 5s-41.5 8.16602 -62.5 14.499s-39.333 14.5 -55 24.5s-23.5 21.667 -23.5 35z" />
    <glyph glyph-name="four" unicode="4" horiz-adv-x="402" 
d="M296 322c1.33301 2.66699 0.837891 6.33105 -1.49512 10.998s-4.5 7 -6.5 7c-4 1.33301 -12.333 -0.666992 -25 -6s-27.667 -12.166 -45 -20.499l-55.5 -27.5l-56.5 -28.5c-18 -9 -34.167 -16.5 -48.5 -22.5s-24.833 -9 -31.5 -9c-9.33301 0 -14.833 2.16699 -16.5 6.5
s-2.5 9.83301 -2.5 16.5s1.33301 12.834 4 18.501s5.66699 11.167 9 16.5s7.16602 10.333 11.499 15s8.16602 9.66699 11.499 15l14.5 25l19.5 32.5l18 30c5.33301 9 8.33301 14.5 9 16.5l11.5 23.5l19.5 42l24.5 52.5l26 55.5l23.5 51c7.33301 15.667 13 28.167 17 37.5
c3.33301 7.33301 6.16602 15.166 8.49902 23.499s5.16602 16 8.49902 23s7.83301 12.833 13.5 17.5s13.167 7 22.5 7c1.33301 0 4.33301 -0.166992 9 -0.5s7.33398 -0.5 8.00098 -0.5c10.667 -13.333 20.667 -27 30 -41s17.666 -28.667 24.999 -44
s13.166 -31.166 17.499 -47.499s6.5 -32.833 6.5 -49.5c0 -12 -1.16699 -23 -3.5 -33s-4.83301 -20 -7.5 -30l-9 -30c-3.33301 -9.33301 -5.33301 -19.333 -6 -30c-2 -18 -3.5 -35 -4.5 -51l-3 -47c-1 -15.333 -1.5 -30.833 -1.5 -46.5v-48.5v-40
c0 -10.667 0.333008 -21.167 1 -31.5s1.5 -21.333 2.5 -33s2.83301 -26.167 5.5 -43.5c1.33301 -9.33301 3.5 -18.333 6.5 -27l9.5 -26.5c3.33301 -9 6.33301 -17.833 9 -26.5s4 -17.334 4 -26.001c-14 0 -25.5 6 -34.5 18s-16.333 26 -22 42s-9.66699 32.5 -12 49.5
s-3.83301 30.5 -4.5 40.5c-0.666992 6.66699 -1.5 18.334 -2.5 35.001l-3 52.5c-1 18.333 -1.83301 35.833 -2.5 52.5s-1 28 -1 34zM87.0049 305.997l9.00293 0.00292969c0.666992 0 6.33398 2 17.001 6l38 14l45.5 17l38.5 15c6 2 12.167 4.83301 18.5 8.5
s12.166 7.83398 17.499 12.501s9.66602 10.167 12.999 16.5s5 13.166 5 20.499c0 2.66699 -0.166992 6.5 -0.5 11.5s-0.5 7.83301 -0.5 8.5c-0.666992 4 -1.33398 10.5 -2.00098 19.5l-2 27c-0.666992 9 -1.5 17.5 -2.5 25.5s-1.83301 13 -2.5 15
c-1.33301 6 -2.83301 14 -4.5 24s-3.33398 19.5 -5.00098 28.5s-3.33398 17 -5.00098 24l-2.5 10.5l-9 9c-1.33301 -0.666992 -3.16602 -2.66699 -5.49902 -6s-5 -6.83301 -8 -10.5s-5.66699 -7.33398 -8 -11.001s-4.16602 -6.16699 -5.49902 -7.5l-8 -16.5l-14 -29.5
l-17 -36c-6 -12.667 -11.5 -24.834 -16.5 -36.501l-13.5 -30.5c-4 -8.66699 -7 -14.334 -9 -17.001c-2 -4 -6 -11 -12 -21l-18.5 -31.5l-18 -31.5c-5.66699 -10 -9.83398 -16.667 -12.501 -20v-8zM313.008 600c0 -6 -0.330078 -14.334 -0.99707 -25.001
s-0.833984 -21.5 -0.500977 -32.5s1.83301 -20.833 4.5 -29.5s7.66699 -13.667 15 -15c5.33301 7.33301 9.66602 16.333 12.999 27s5 20.334 5 29.001v4c-0.666992 3.33301 -1.83398 8.5 -3.50098 15.5l-5.5 22c-2 7.66699 -4 14.5 -6 20.5s-3 10 -3 12
c-0.666992 2 -2 5 -4 9s-3.66699 7 -5 9c-6 -6 -9 -13.667 -9 -23v-23z" />
    <glyph glyph-name="five" unicode="5" horiz-adv-x="436" 
d="M77 96l0.00195312 5.99414c0 2.66699 0.333008 5.5 1 8.5s1.66699 5.5 3 7.5s3.66602 3.33301 6.99902 4c9.33301 -4.66699 15.666 -12 18.999 -22s7 -19.833 11 -29.5s10.667 -18.167 20 -25.5s24.666 -11 45.999 -11c26 0 50.5 7 73.5 21s43.333 31.833 61 53.5
s31.667 45.667 42 72s15.5 51.833 15.5 76.5c0 16 -4.33301 29.833 -13 41.5s-19.334 21.334 -32.001 29.001s-26.5 13.334 -41.5 17.001s-28.833 5.5 -41.5 5.5c-16 0 -31.667 -1.5 -47 -4.5s-30.666 -6.16699 -45.999 -9.5s-30.833 -6.5 -46.5 -9.5s-31.5 -4.5 -47.5 -4.5
c-12 0 -21 1.83301 -27 5.5s-10.333 8.83398 -13 15.501s-4 14.5 -4 23.5v29.5c0 18 0.833008 35.167 2.5 51.5s5.66699 30.833 12 43.5s15.333 23.334 27 32.001s27.167 14.667 46.5 18l21 11.5l32 17l38 20l38 20l32.5 17c9.66699 5 16.834 8.5 21.501 10.5c8 4 15 7 21 9
s11.667 3.66699 17 5s11 2.33301 17 3s12.667 1 20 1s14.833 -0.333008 22.5 -1s13.167 -6.33398 16.5 -17.001c0.666992 -2 -1.83301 -4.5 -7.5 -7.5s-13 -6 -22 -9s-19 -6 -30 -9s-21.667 -6.16699 -32 -9.5l-29 -9.5c-9 -3 -15.5 -5.83301 -19.5 -8.5
c-4.66699 -2.66699 -11.5 -7.33398 -20.5 -14.001l-29.5 -22.5l-34 -26.5l-33 -25c-10 -7.33301 -18.667 -13.333 -26 -18s-12 -6.66699 -14 -6c-1.33301 0 -2.83301 0.833008 -4.5 2.5l-5 5l-5 5c-1.66699 1.66699 -2.5 2.83398 -2.5 3.50098h-3h-1
c-0.666992 0 -1 0.333008 -1 1c-0.666992 0 -1.5 -0.166992 -2.5 -0.5l-1.5 -0.5c-4 -8 -7.33301 -15.167 -10 -21.5s-4.66699 -12.333 -6 -18s-2 -11.5 -2 -17.5v-20c0 -1.33301 -0.333008 -3.66602 -1 -6.99902s-0.833984 -7.16602 -0.500977 -11.499
s1.16602 -8.16602 2.49902 -11.499s4 -5 8 -5c2 0 7 -0.333008 15 -1s13 -1 15 -1c24 0 47.5 1.83301 70.5 5.5s46.5 5.5 70.5 5.5c22 0 43.167 -2.5 63.5 -7.5s38.5 -12.833 54.5 -23.5s28.833 -24.667 38.5 -42s14.5 -38 14.5 -62c0 -28.667 -5.5 -57.834 -16.5 -87.501
s-26 -56.667 -45 -81s-41.667 -44.166 -68 -59.499s-55.166 -23 -86.499 -23c-14 0 -28 2 -42 6s-26.667 10.167 -38 18.5s-20.666 18.5 -27.999 30.5s-11 26 -11 42z" />
    <glyph glyph-name="six" unicode="6" horiz-adv-x="402" 
d="M17 166c0 10.667 1.99805 28.335 5.99805 53.002s9.83301 52.5 17.5 83.5s17 62.833 28 95.5s23.667 62.5 38 89.5s30.166 49.167 47.499 66.5s36 26 56 26v-30l-5 -6.5l-12 -15l-14.5 -17c-5 -5.66699 -9.16699 -10.167 -12.5 -13.5c-18 -20 -34 -43.667 -48 -71
s-25.833 -56 -35.5 -86s-17.167 -60.167 -22.5 -90.5s-8 -58.5 -8 -84.5v-15c0 -6 0.5 -12 1.5 -18s2.66699 -11.5 5 -16.5s6.16602 -9.16699 11.499 -12.5c12.667 9.33301 25.334 21 38.001 35l37.5 43.5l38 45c13 15 26.833 28.5 41.5 40.5s30.5 21.5 47.5 28.5
s35.167 10.5 54.5 10.5h15.5c7.66699 0 12.834 -0.333008 15.501 -1c6.66699 -4.66699 11.834 -10 15.501 -16s6.33398 -12.333 8.00098 -19s2.66699 -13.667 3 -21s0.5 -14.333 0.5 -21c0 -18.667 -3.83301 -37.334 -11.5 -56.001s-18 -36.5 -31 -53.5
s-27.833 -32.833 -44.5 -47.5s-34.334 -27.334 -53.001 -38.001s-37.667 -19.167 -57 -25.5s-37.666 -9.5 -54.999 -9.5c-22 0 -40.5 5.16699 -55.5 15.5s-27 23.5 -36 39.5s-15.333 33.833 -19 53.5s-5.5 39.167 -5.5 58.5zM94.998 64.001
c0 -10.667 4.16699 -18.3359 12.5 -23.0029s17.5 -7 27.5 -7c22 0 45.667 6 71 18s48.5 27.5 69.5 46.5s38.667 40.167 53 63.5s21.5 46.333 21.5 69c0 2.66699 -0.166992 7.83398 -0.5 15.501s-0.5 12.834 -0.5 15.501c-1.33301 0.666992 -4.33301 2 -9 4
s-7.66699 3.33301 -9 4h-4c-9.33301 0 -19 -1.83301 -29 -5.5s-20 -8 -30 -13s-19.333 -10.5 -28 -16.5s-16 -11.667 -22 -17c-4.66699 -4 -12.5 -11.167 -23.5 -21.5l-34.5 -34l-33.5 -35c-10.333 -11 -17.5 -18.833 -21.5 -23.5c-4 -7.33301 -6.66699 -13.666 -8 -18.999
s-2 -12.333 -2 -21z" />
    <glyph glyph-name="seven" unicode="7" horiz-adv-x="384" 
d="M200 114c0 2 0.333008 6.17188 1 12.5049s1.5 13.166 2.5 20.499l3 21.5c1 7 1.83301 12.167 2.5 15.5l96 435v33c-17.333 0 -33.833 -0.666992 -49.5 -2s-31.167 -3.5 -46.5 -6.5s-30.833 -6.5 -46.5 -10.5s-32.167 -8.66699 -49.5 -14c-14 -4 -27.667 -9.33301 -41 -16
s-27.333 -10 -42 -10c-7.33301 0 -13 1.16699 -17 3.5s-6 6.83301 -6 13.5c0 8 7.66699 16 23 24s34.833 15.667 58.5 23s49.5 14.166 77.5 20.499s55 11.666 81 15.999s49.333 8 70 11s34.667 4.5 42 4.5c0 -24 -2.66699 -46.833 -8 -68.5s-12 -43.167 -20 -64.5l-96 -454
c0 -0.666992 0.166992 -4 0.5 -10s1 -13.333 2 -22s2.16699 -17.334 3.5 -26.001s2.33301 -15.667 3 -21c0 -0.666992 0.5 -2.83398 1.5 -6.50098l3 -11l3 -10.5c1 -3.33301 1.5 -5.66602 1.5 -6.99902c0 -4.66699 -2.5 -7.33398 -7.5 -8.00098s-8.83301 -1 -11.5 -1
c-4.66699 0 -8.5 2.33301 -11.5 7s-5.33301 10 -7 16s-3 12 -4 18s-1.83301 10 -2.5 12l-2.5 15.5l-3 19.5c-1 6.66699 -1.83301 12.5 -2.5 17.5s-1 8.16699 -1 9.5z" />
    <glyph glyph-name="eight" unicode="8" horiz-adv-x="392" 
d="M25 148c0 20 2.50684 40.001 7.50684 60.001s10.167 39.333 15.5 58l15 54c4.66699 17.333 7 34.333 7 51c0 9.33301 -1.5 17.5 -4.5 24.5l-9 22l-9 23.5c-3 8 -4.5 17.333 -4.5 28c0 9.33301 1.33301 21.5 4 36.5s6.66699 30.667 12 47s11.666 32.666 18.999 48.999
s15.833 31.166 25.5 44.499s20 24.166 31 32.499s22.5 12.5 34.5 12.5c9.33301 0 15.666 -1.83301 18.999 -5.5s5 -9.83398 5 -18.501c0 -0.666992 -0.166992 -2.66699 -0.5 -6s-0.5 -5.66602 -0.5 -6.99902l-42.5 -39.5c-13.667 -13 -25.834 -27 -36.501 -42
s-19.334 -31 -26.001 -48s-10 -36.167 -10 -57.5c0 -14.667 4.33301 -26.5 13 -35.5s20 -13.5 34 -13.5c17.333 0 33.666 4.16699 48.999 12.5s28.666 19.166 39.999 32.499s20.5 28.333 27.5 45s11.167 33.334 12.5 50.001v11c0 6.66699 -0.5 13.834 -1.5 21.501
s-2.66699 15.334 -5 23.001s-6.16602 12.5 -11.499 14.5h-4c-9.33301 0 -19.5 -2.83301 -30.5 -8.5s-19.833 -11.5 -26.5 -17.5c0 0.666992 -0.166992 2 -0.5 4s-0.5 3.33301 -0.5 4c0 6.66699 2.16699 13.167 6.5 19.5s9.66602 12.166 15.999 17.499
s13.166 9.5 20.499 12.5s14 4.5 20 4.5c10 0 18.333 -3.66699 25 -11s12 -16.166 16 -26.499s7 -21 9 -32s3 -19.833 3 -26.5c0 -32 -7.16699 -61.667 -21.5 -89s-30.833 -53 -49.5 -77c26 3.33301 49 0.333008 69 -9s36.5 -22.833 49.5 -40.5s22.833 -37.667 29.5 -60
s10 -44.5 10 -66.5c0 -33.333 -5.33301 -64 -16 -92s-26 -52 -46 -72s-44 -35.5 -72 -46.5s-59.333 -16.5 -94 -16.5c-24 0 -43.833 3.66699 -59.5 11s-28.167 17.5 -37.5 30.5s-16 28.667 -20 47s-6 38.5 -6 60.5zM70.0068 96.001
c6.66699 -19.333 15.499 -34.501 26.499 -45.501s26.167 -16.5 45.5 -16.5c32 0 60.167 5 84.5 15s45 24.333 62 43s30 40.334 39 65.001s13.5 51.667 13.5 81c0 18 -1.66699 34.833 -5 50.5s-9 29.5 -17 41.5s-18.333 21.5 -31 28.5s-28.334 10.5 -47.001 10.5
c-9.33301 0 -18 -0.166992 -26 -0.5s-15.667 -1.33301 -23 -3s-14.5 -4.5 -21.5 -8.5s-14.5 -9.66699 -22.5 -17c-5.33301 2 -8.66602 5.83301 -9.99902 11.5s-2 10.5 -2 14.5h-22c-1.33301 0 -3.33301 -4 -6 -12l-9.5 -28.5l-11 -34l-9.5 -29.5
c-5.33301 -20 -8.16602 -38.167 -8.49902 -54.5s-0.5 -34.5 -0.5 -54.5v-12c0 -5.33301 0.166992 -11 0.5 -17s0.5 -11.667 0.5 -17v-11z" />
    <glyph glyph-name="nine" unicode="9" horiz-adv-x="340" 
d="M113 19c0 2.66699 4.33105 9.83203 12.998 21.499l30 38.5l33 40.5c10.667 13 17.667 22.5 21 28.5c24 41.333 42 82.833 54 124.5s18 86.167 18 133.5c0 2.66699 -0.166992 7.83398 -0.5 15.501s-0.666016 16 -0.999023 25s-0.5 17.5 -0.5 25.5v16
c-4 14.667 -8.5 28.667 -13.5 42s-12.5 26 -22.5 38l-11 11.5l-14 14.5c-4.66699 4.66699 -8.66699 8.5 -12 11.5s-5.33301 4.5 -6 4.5h-7c0 -11.333 2.16699 -22.333 6.5 -33s9.16602 -21.334 14.499 -32.001s10.166 -21.834 14.499 -33.501s6.5 -23.834 6.5 -36.501
c0 -16 -2.66699 -31.667 -8 -47s-13.166 -28.833 -23.499 -40.5s-22.833 -21.167 -37.5 -28.5s-31 -11 -49 -11c-13.333 0 -26.166 1.66699 -38.499 5s-23 8.33301 -32 15s-16.167 15.167 -21.5 25.5s-8 22.833 -8 37.5v5c1.33301 8 3.33301 18.667 6 32s5.5 26.5 8.5 39.5
s5.5 24.333 7.5 34s3 15.167 3 16.5l5 10.5c2.66699 5.66699 6 12.334 10 20.001l11.5 22.5c3.66699 7.33301 6.83398 13 9.50098 17c2 4.66699 5.16699 10.5 9.5 17.5s9.33301 13.833 15 20.5s11.5 12.334 17.5 17.001s12 7 18 7c2 0 6.33301 -1.33301 13 -4
s11.334 -4.66699 14.001 -6c30 -16 55 -33.333 75 -52s36.167 -39.334 48.5 -62.001s21.166 -47.5 26.499 -74.5s8 -56.833 8 -89.5c0 -35.333 -3.83301 -69.333 -11.5 -102s-18 -64.167 -31 -94.5s-28.667 -59.666 -47 -87.999s-38.166 -56.166 -59.499 -83.499
c-2.66699 -2 -5.83398 -5 -9.50098 -9l-11.5 -12c-4 -4 -8.5 -7.16699 -13.5 -9.5s-9.5 -3.5 -13.5 -3.5c-6 -0 -9.83301 1.83301 -11.5 5.5s-2.5 8.16699 -2.5 13.5zM60.998 438.998c0 -17.333 5.66797 -29.667 17.001 -37s25 -11 41 -11c24 0 43.833 7.5 59.5 22.5
s23.5 35.167 23.5 60.5c0 8.66699 -1.5 20.5 -4.5 35.5s-7.5 29.333 -13.5 43s-13.833 25.5 -23.5 35.5s-20.834 15 -33.501 15c-0.666992 0 -1.5 -0.166992 -2.5 -0.5s-1.83301 -0.5 -2.5 -0.5c-19.333 -22.667 -34.333 -48 -45 -76s-16 -57 -16 -87z" />
    <glyph glyph-name="colon" unicode=":" horiz-adv-x="88" 
d="M16 130c0 8 3.5 14.499 10.5 19.499s13.833 7.5 20.5 7.5s12.167 -1.33301 16.5 -4s6.5 -7 6.5 -13c0 -8.66699 -2.33301 -17 -7 -25s-11.334 -12 -20.001 -12c-7.33301 0 -13.666 2.83301 -18.999 8.5s-8 11.834 -8 18.501zM7 365.999c0 8 2.33301 13.167 7 15.5
s10.334 3.5 17.001 3.5c2 0 4.5 -0.166992 7.5 -0.5s5.66699 -1 8 -2s4.16602 -2.83301 5.49902 -5.5s1.33301 -6.33398 0 -11.001c-2 -7.33301 -5.5 -12.166 -10.5 -14.499s-10.167 -3.5 -15.5 -3.5c-12.667 0 -19 6 -19 18z" />
    <glyph glyph-name="semicolon" unicode=";" horiz-adv-x="96" 
d="M52 -192c1.33301 12 -0.333984 21.3369 -5.00098 28.0039s-10 12.5 -16 17.5s-11.5 9.83301 -16.5 14.5s-7.5 11 -7.5 19c0 7.33301 2 12.166 6 14.499s9.66699 3.5 17 3.5c9.33301 0 18 -2.33301 26 -7s15 -10.834 21 -18.501s10.667 -16.334 14 -26.001
s5 -18.834 5 -27.501c0 -11.333 -1.83301 -24 -5.5 -38s-9 -27.5 -16 -40.5s-15.5 -23.833 -25.5 -32.5s-21.667 -13 -35 -13c0 9.33301 1.83301 18.333 5.5 27s7.83398 17.167 12.501 25.5s9 16.833 13 25.5s6.33301 18 7 28zM25 83.0039
c0 12.667 3.49902 19.999 10.499 21.999s16.5 3 28.5 3c0 -5.33301 0.333008 -11.166 1 -17.499s0.5 -12.333 -0.5 -18s-3.16699 -10.5 -6.5 -14.5s-8.66602 -6 -15.999 -6c-8 0 -12.833 3.5 -14.5 10.5s-2.5 13.833 -2.5 20.5z" />
    <glyph glyph-name="less" unicode="&#x3c;" horiz-adv-x="376" 
d="M17 69c0 8 5.83203 20.1709 17.499 36.5039s26.334 34.5 44.001 54.5s37.167 40.5 58.5 61.5s42 40 62 57s38 31 54 42s27.667 16.5 35 16.5v-31c-4.66699 -4 -11.167 -10.333 -19.5 -19l-29 -29.5l-34.5 -34.5l-34.5 -34.5l-29.5 -30l-19 -19.5
c-1.33301 -1.33301 -4.16602 -4.5 -8.49902 -9.5l-13.5 -15.5l-13 -15.5c-4 -5 -6.66699 -8.5 -8 -10.5c0 -1.33301 -0.333008 -2.33301 -1 -3s-1 -1.33398 -1 -2.00098s0.333008 -1.66699 1 -3c0 -0.666992 0.333008 -1.33398 1 -2.00098
c1.33301 -1.33301 4.16602 -3 8.49902 -5s7.16602 -3 8.49902 -3c40.667 -8.66699 82.5 -16.334 125.5 -23.001s85.5 -11 127.5 -13c1.33301 0 3 -1 5 -3s3.33301 -3.66699 4 -5v-1v-2v-1v-1.5v-1.5v-1c-0.666992 -1.33301 -2 -3.16602 -4 -5.49902
s-3.66699 -3.83301 -5 -4.5c-2 -0.666992 -6.5 -1.33398 -13.5 -2.00098s-14 -1.5 -21 -2.5s-14 -1.83301 -21 -2.5s-11.5 -1 -13.5 -1h-9c-7.33301 0 -18.666 0.5 -33.999 1.5s-32.5 2.66699 -51.5 5s-38.333 5.33301 -58 9s-37.667 8.16699 -54 13.5
s-29.833 11.166 -40.5 17.499s-16 13.833 -16 22.5z" />
    <glyph glyph-name="equal" unicode="=" horiz-adv-x="506" 
d="M61 166l12.4971 0.000976562h20.5h20h13c9.33301 0 23 -0.166992 41 -0.5s37.833 -1.16602 59.5 -2.49902s43.834 -2.83301 66.501 -4.5s43.334 -3.83398 62.001 -6.50098s34 -5.33398 46 -8.00098s18 -5.66699 18 -9c0 -0.666992 -0.166992 -1.16699 -0.5 -1.5
l-0.5 -0.5v-3c-0.666992 -0.666992 -2 -2.16699 -4 -4.5s-3.66699 -3.5 -5 -3.5h-399c0 8 1.33301 14.5 4 19.5s6.33398 9 11.001 12s10 5.33301 16 7zM33.9971 304.001c0 7.33301 2.50488 13 7.50488 17s11 7.16699 18 9.5s13.833 4.16602 20.5 5.49902
s12 2.66602 16 3.99902c5.33301 2 12.666 3.83301 21.999 5.5s18.666 3.5 27.999 5.5s17.5 3.66699 24.5 5s11.5 2 13.5 2h279c1.33301 0 4.16602 -1.16699 8.49902 -3.5s7.16602 -4.16602 8.49902 -5.49902v-2c0 -0.666992 0.166992 -1 0.5 -1s0.5 -0.333008 0.5 -1
s-0.166992 -1.16699 -0.5 -1.5l-0.5 -0.5v-3c-0.666992 -0.666992 -2 -2.16699 -4 -4.5s-3.33301 -3.83301 -4 -4.5c-50 -7.33301 -99.5 -11.333 -148.5 -12s-98.5 -2.33398 -148.5 -5.00098c-10 -4 -18.667 -8.16699 -26 -12.5s-14.833 -8.16602 -22.5 -11.499
s-15.667 -6.16602 -24 -8.49902s-18.166 -3.5 -29.499 -3.5c-4 0 -8.33301 0.5 -13 1.5s-8.83398 2.5 -12.501 4.5s-6.83398 4.66699 -9.50098 8s-4 7.33301 -4 12z" />
    <glyph glyph-name="greater" unicode="&#x3e;" horiz-adv-x="523" 
d="M113 13c0 2 2.50098 5.66797 7.50098 11.001l19 19.5c7.66699 7.66699 16.167 15.5 25.5 23.5l26.5 23.5l22 19.5c6.33301 5.33301 10.833 9.33301 13.5 12c2.66699 2 8.16699 6.66699 16.5 14l28.5 25l34 30.5l34 31l28 25c8 7 13.333 11.833 16 14.5
c4 3.33301 9 8 15 14l17 17l14 14.5l6 6.5v26c0 0.666992 -4 2.16699 -12 4.5s-19 5 -33 8l-46.5 10l-51.5 11l-50.5 10.5c-16.333 3.33301 -30.166 6 -41.499 8c-3.33301 0.666992 -12 2 -26 4s-28.833 4 -44.5 6s-30.167 3.66699 -43.5 5s-22 2.33301 -26 3
c-6.66699 1.33301 -12.834 2.5 -18.501 3.5s-10.334 2.66699 -14.001 5s-6.5 5.66602 -8.5 9.99902s-3 10.166 -3 17.499c0 8 3.66699 12.833 11 14.5s14.333 2.5 21 2.5c1.33301 0 3.66602 -0.166992 6.99902 -0.5l5 -0.5l402 -86
c2.66699 -1.33301 6.33398 -2.66602 11.001 -3.99902s9.5 -3 14.5 -5s9.33301 -4.33301 13 -7s5.5 -6 5.5 -10c0 -8.66699 -1.66699 -16.5 -5 -23.5s-7.66602 -13.833 -12.999 -20.5l-15 -15.5l-22.5 -24l-27 -28l-27.5 -27l-23.5 -23c-7 -7 -12.167 -11.833 -15.5 -14.5
l-19 -16.5l-30 -25.5l-35.5 -30.5l-36 -31l-32 -26.5l-21.5 -18c-1.33301 -0.666992 -4 -2.16699 -8 -4.5l-13 -7.5c-4.66699 -2.66699 -9.33398 -5.5 -14.001 -8.5s-8 -4.83301 -10 -5.5h-4h-4c-2 0.666992 -5.16699 2 -9.5 4s-6.83301 3.33301 -7.5 4l-1 2v3z" />
    <glyph glyph-name="question" unicode="?" horiz-adv-x="392" 
d="M182 23c0 4.66699 1.66504 9.66895 4.99805 15.002s7.5 10.5 12.5 15.5s10.333 9 16 12s10.834 4.5 15.501 4.5c6.66699 0 10.667 -3.33301 12 -10s2 -12.334 2 -17.001c0 -11.333 -4.5 -21.5 -13.5 -30.5s-19.5 -13.5 -31.5 -13.5
c-7.33301 0 -12.166 2.16699 -14.499 6.5s-3.5 10.166 -3.5 17.499zM146.998 319.002c0 20 4.66992 38.332 14.0029 54.999s20.666 32.667 33.999 48s28.166 30.166 44.499 44.499s31.166 29.333 44.499 45s24.666 32.167 33.999 49.5s14 36.333 14 57
c0 18.667 -3 34.167 -9 46.5s-14.167 22.333 -24.5 30s-22.833 13.167 -37.5 16.5s-30.334 5 -47.001 5c-20 0 -40.333 -0.666992 -61 -2s-39.667 -6.66602 -57 -15.999c-2 -0.666992 -6.33301 -3.33398 -13 -8.00098s-11 -8 -13 -10l-3.5 -3.5l-5.5 -5.5
c-2 -2 -3.83301 -3.66699 -5.5 -5s-2.83398 -2 -3.50098 -2c-4 -1.33301 -8.66699 -1.66602 -14 -0.999023s-10.333 2.16699 -15 4.5s-8.5 5.33301 -11.5 9s-4.5 8.5 -4.5 14.5c0 7.33301 4.83301 14.166 14.5 20.499s21.834 12 36.501 17s30.834 9.5 48.501 13.5
s34.667 7.33301 51 10s30.833 4.66699 43.5 6s21.334 2 26.001 2c23.333 0 44.166 -3.66699 62.499 -11s33.833 -17.833 46.5 -31.5s22.5 -29.667 29.5 -48s10.5 -38.833 10.5 -61.5c0 -18.667 -4.83301 -37.167 -14.5 -55.5s-21.667 -36.166 -36 -53.499
s-29.833 -34.166 -46.5 -50.499l-46.5 -47.5c-14.333 -15.333 -26.166 -30.333 -35.499 -45s-14 -28.667 -14 -42c0 -10.667 1.66699 -21 5 -31s5 -21 5 -33c-8.66699 0 -16 2.16699 -22 6.5s-10.833 9.83301 -14.5 16.5s-6.16699 14 -7.5 22s-2 16 -2 24z" />
    <glyph glyph-name="at" unicode="@" horiz-adv-x="690" 
d="M17 166c0 36 8.17188 73.002 24.5049 111.002s38.166 74.667 65.499 110s58.666 68.833 93.999 100.5s72.166 59.167 110.499 82.5s76.833 41.833 115.5 55.5s75 20.5 109 20.5c20 0 38.333 -3.66699 55 -11s31 -17.333 43 -30s21.5 -27.834 28.5 -45.501
s10.5 -36.167 10.5 -55.5c0 -38.667 -6 -74.834 -18 -108.501s-29 -63 -51 -88s-49 -44.833 -81 -59.5s-68 -22 -108 -22h-9.5h-14.5h-14.5h-9.5c-2 1.33301 -5.16699 3 -9.5 5s-7.16602 3.33301 -8.49902 4c-0.666992 0.666992 -2.33398 1.83398 -5.00098 3.50098
s-5.33398 3.66699 -8.00098 6s-5.33398 4.33301 -8.00098 6s-4.33398 2.5 -5.00098 2.5c-7.33301 0 -14.5 -1.5 -21.5 -4.5l-21.5 -9l-22 -9c-7.33301 -3 -15 -4.5 -23 -4.5c-6 0 -12 0.666992 -18 2s-11.5 3.66602 -16.5 6.99902s-9.16699 7.66602 -12.5 12.999
s-5 11.333 -5 18c0 12.667 5.5 27.834 16.5 45.501s25.167 36 42.5 55s37 37.833 59 56.5s44 35.5 66 50.5s43 27.167 63 36.5s36.667 14 50 14c4.66699 0 11.334 -0.333008 20.001 -1s17.334 -2.16699 26.001 -4.5s16.334 -5.66602 23.001 -9.99902s10 -9.5 10 -15.5
c0 -10.667 -4.33301 -22.834 -13 -36.501s-19.5 -27.667 -32.5 -42s-27.167 -28.833 -42.5 -43.5l-42.5 -40.5c-13 -12.333 -23.833 -23.166 -32.5 -32.499s-13 -16 -13 -20c0 -4.66699 1.33301 -8.16699 4 -10.5s6.16699 -4 10.5 -5s8.83301 -1.5 13.5 -1.5h11
c33.333 0 63.5 5.66699 90.5 17s49.833 27.166 68.5 47.499s32.834 44 42.501 71s14.5 56.167 14.5 87.5c0 12 -1 25.5 -3 40.5s-5.66699 28.833 -11 41.5s-13.333 23.167 -24 31.5s-24.334 12.5 -41.001 12.5c-33.333 0 -69 -6.16699 -107 -18.5
s-75.833 -29.333 -113.5 -51s-73.834 -47 -108.501 -76s-65.167 -59.667 -91.5 -92s-47.333 -65.833 -63 -100.5s-23.5 -68.667 -23.5 -102c0 -28 4.5 -49.5 13.5 -64.5s20.333 -27.5 34 -37.5s28.167 -19.667 43.5 -29s29 -22.333 41 -39
c-2 -0.666992 -5.83301 -1.16699 -11.5 -1.5s-9.5 -0.5 -11.5 -0.5c-18.667 0 -36.834 5.5 -54.501 16.5s-33.167 24.5 -46.5 40.5s-23.833 34 -31.5 54s-11.5 39 -11.5 57zM467.005 481.002c-7.33301 0 -16.333 -2.33008 -27 -6.99707s-21.667 -10.667 -33 -18
s-23 -15.5 -35 -24.5l-34.5 -27c-11 -9 -20.833 -17.667 -29.5 -26s-15.334 -15.166 -20.001 -20.499c-4 -4.66699 -8.83301 -10.834 -14.5 -18.501l-17.5 -23l-15 -19.5c-4 -5.33301 -6 -8.33301 -6 -9v-21c18.667 0 33.5 1.16699 44.5 3.5s19.667 5.66602 26 9.99902
s11 9.83301 14 16.5s6 14 9 22s6.5 16.667 10.5 26s10.333 19.666 19 30.999s18 21.166 28 29.499l29.5 23.5l29 23c9.66699 8 18.834 17.333 27.501 28c-0.666992 0 -1.5 0.166992 -2.5 0.5s-1.83301 0.5 -2.5 0.5zM454.005 402.005
c-5.33301 -1.33301 -11.499 -4.49902 -18.499 -9.49902s-13.667 -10.5 -20 -16.5s-11.666 -11.5 -15.999 -16.5s-6.5 -8.5 -6.5 -10.5v-9c2 2 5 4.5 9 7.5s8.16699 6.5 12.5 10.5s8.66602 7.5 12.999 10.5s7.16602 5.5 8.49902 7.5
c2.66699 1.33301 6.16699 4.16602 10.5 8.49902l7.5 7.5v2v1.5v1.5v2v3z" />
    <glyph glyph-name="A" unicode="A" horiz-adv-x="672" 
d="M87 26c0 1.33301 0.168945 2.99609 0.501953 4.99609l0.5 3c10 19.333 20.5 38 31.5 56l34 53.5l34 54c11 18.333 21.167 36.833 30.5 55.5c-2.66699 6 -9.33398 11.333 -20.001 16s-23.5 9.66699 -38.5 15s-30.833 11.5 -47.5 18.5s-32 15.333 -46 25s-25.667 21 -35 34
s-14 28.167 -14 45.5c0 18 6 33.833 18 47.5s26.667 25 44 34s35.666 15.833 54.999 20.5s36 7 50 7c29.333 0 55.166 -5 77.499 -15s45.5 -23 69.5 -39c8 6 14.833 12.667 20.5 20s10.834 15.333 15.501 24c2 4.66699 6.5 13.167 13.5 25.5s14 25.5 21 39.5
s14 27.167 21 39.5s11.5 21.166 13.5 26.499c5.33301 4 9.66602 6.5 12.999 7.5s8 1.5 14 1.5h4.5h4.5c6.66699 -28 11.667 -56.667 15 -86s5.83301 -58.666 7.5 -87.999s3.16699 -58.666 4.5 -87.999s3.66602 -58.666 6.99902 -87.999c2 0 5.66699 -0.166992 11 -0.5
s9.33301 -0.5 12 -0.5c9.33301 0 18.666 1 27.999 3s18.666 4.16699 27.999 6.5s18.833 4.5 28.5 6.5s19.5 3 29.5 3h3l4 -4c2 -2 3.66699 -3.33301 5 -4c-4 -7.33301 -10.5 -13.166 -19.5 -17.499s-19 -7.83301 -30 -10.5s-22.5 -5.16699 -34.5 -7.5s-22.667 -5 -32 -8
s-17.166 -6.5 -23.499 -10.5s-9.5 -9.66699 -9.5 -17c0 -13.333 0.833008 -26.666 2.5 -39.999s3.66699 -26.833 6 -40.5s4.5 -27.334 6.5 -41.001s3 -27.5 3 -41.5c0 -3.33301 -0.166992 -8 -0.5 -14s-1 -12 -2 -18s-3 -11.333 -6 -16s-7.5 -7 -13.5 -7
c-6.66699 0 -12.667 5 -18 15s-9.66602 22.667 -12.999 38s-6.16602 32.166 -8.49902 50.499s-4.33301 36 -6 53s-3.5 32 -5.5 45s-4 21.5 -6 25.5c-5.33301 0.666992 -15.166 1.33398 -29.499 2.00098s-29.333 1.5 -45 2.5s-30.5 2 -44.5 3s-23.667 1.5 -29 1.5h-10
c-13.333 0 -25.833 -6.16699 -37.5 -18.5s-22.334 -28 -32.001 -47s-19.167 -39.333 -28.5 -61l-27 -61c-8.66699 -19 -17.667 -34.833 -27 -47.5s-19.333 -19 -30 -19c-7.33301 0 -12.166 2.83301 -14.499 8.5s-3.5 11.834 -3.5 18.501zM288.002 295.996
c5.33301 -3.33301 11.834 -5.83496 19.501 -7.50195s15.5 -2.5 23.5 -2.5h22.5h18.5c2.66699 0 6 0.166992 10 0.5s8 0.5 12 0.5s7.5 0.166992 10.5 0.5s4.83301 0.5 5.5 0.5l9 8c1.33301 1.33301 -1 7.33301 -7 18s-13.5 21.834 -22.5 33.501s-17.833 22.334 -26.5 32.001
s-14.667 14.5 -18 14.5c-0.666992 0 -1.33398 -0.333008 -2.00098 -1s-1.66699 -1 -3 -1c-10 -14.667 -19.333 -30 -28 -46s-16.667 -32.667 -24 -50zM61.0029 407.994c0 -17.333 6.00098 -32.5 18.001 -45.5s26.667 -23.833 44 -32.5s35.666 -15 54.999 -19
s36.333 -6 51 -6c9.33301 0 19 4.83301 29 14.5s19.167 20.834 27.5 33.501s15.333 25.667 21 39s8.5 23.666 8.5 30.999c0 8 -5.33301 15.5 -16 22.5s-23.167 13.167 -37.5 18.5s-28.5 9.5 -42.5 12.5s-24.333 4.5 -31 4.5c-10 0 -22.167 -1.5 -36.5 -4.5
s-28.333 -7.5 -42 -13.5s-25.167 -13.5 -34.5 -22.5s-14 -19.833 -14 -32.5zM375.004 440.994c0 -8.66699 3.33496 -19.334 10.002 -32.001s14.667 -25 24 -37s19.166 -22.333 29.499 -31s19.5 -13 27.5 -13c0 3.33301 -0.166992 8.33301 -0.5 15s-0.666016 14 -0.999023 22
s-0.666016 15.333 -0.999023 22s-0.5 11.667 -0.5 15c-1.33301 9.33301 -2.83301 21.666 -4.5 36.999l-5 45c-1.66699 14.667 -3.33398 27.667 -5.00098 39s-2.83398 17.333 -3.50098 18l-9 17c-0.666992 -0.666992 -2.16699 -2 -4.5 -4s-3.83301 -3.33301 -4.5 -4
l-10 -19.5l-15.5 -28.5c-5.66699 -10 -10.834 -19.667 -15.501 -29s-8 -15.666 -10 -18.999c0 -1.33301 -0.166992 -3.66602 -0.5 -6.99902s-0.5 -5.33301 -0.5 -6z" />
    <glyph glyph-name="B" unicode="B" horiz-adv-x="576" 
d="M18 157c16 -18 32.6641 -34.4922 49.9971 -49.4922s35.666 -28 54.999 -39s39.833 -19.5 61.5 -25.5s44.5 -9 68.5 -9c30 0 60 5.5 90 16.5s57.167 26.333 81.5 46s44.166 43.167 59.499 70.5s23 57 23 89c0 18 -4.33301 33.833 -13 47.5s-19.834 25.167 -33.501 34.5
s-29 16.5 -46 21.5s-33.833 7.5 -50.5 7.5c-8.66699 0 -19.5 -1.16699 -32.5 -3.5s-26.833 -5.33301 -41.5 -9s-29.667 -8 -45 -13s-29.666 -10.5 -42.999 -16.5s-24.666 -12.167 -33.999 -18.5s-16 -12.5 -20 -18.5c0 -3.33301 -0.5 -9 -1.5 -17s-2 -16.833 -3 -26.5
s-1.83301 -18.667 -2.5 -27s-1.33398 -14.166 -2.00098 -17.499c0 -4 -0.666992 -8.83301 -2 -14.5s-2.83301 -11.334 -4.5 -17.001s-4 -11.167 -7 -16.5s-6.83301 -9.66602 -11.5 -12.999c-9.33301 4 -16 10.5 -20 19.5s-6.5 19 -7.5 30s-1.16699 22 -0.5 33
s1 20.167 1 27.5c0 6.66699 0.166992 17.667 0.5 33s1 33.333 2 54s2.66699 43.167 5 67.5s5.5 48.666 9.5 72.999s9 47.666 15 69.999s13.333 42.333 22 60s18.834 31.667 30.501 42s24.834 15.5 39.501 15.5c17.333 0 32.833 -4 46.5 -12s25.334 -18.167 35.001 -30.5
s17.334 -26.333 23.001 -42s8.5 -31.5 8.5 -47.5c0 -12.667 -2.33301 -24.834 -7 -36.501s-9.5 -22.834 -14.5 -33.501l-14.5 -32c-4.66699 -10.667 -7 -21.667 -7 -33c16 0 34 -0.333008 54 -1s40.333 -2.33398 61 -5.00098s40.834 -7.16699 60.501 -13.5
s37.167 -15 52.5 -26s27.5 -24.833 36.5 -41.5s13.5 -37 13.5 -61s-4.33301 -46.833 -13 -68.5s-20.5 -41.834 -35.5 -60.501s-32.333 -35.334 -52 -50.001s-40.667 -27.334 -63 -38.001s-45 -18.834 -68 -24.501s-45.167 -8.5 -66.5 -8.5
c-11.333 0 -25.5 1.83301 -42.5 5.5s-34.5 8.66699 -52.5 15s-35.833 14.333 -53.5 24s-33.5 20 -47.5 31s-25.333 23.167 -34 36.5s-13 27.333 -13 42v4zM222.997 620.008c-8.66699 0 -16.333 -4.33203 -23 -12.999s-12.5 -19.834 -17.5 -33.501s-9 -28.667 -12 -45
s-5.66699 -32.333 -8 -48s-3.83301 -29.834 -4.5 -42.501s-1 -22 -1 -28v-10.5v-15.5v-15.5v-10.5c16 10.667 31.333 22.334 46 35.001s27.834 26.167 39.501 40.5s21 30 28 47s10.5 35.833 10.5 56.5c0 9.33301 -1 19 -3 29s-5.16699 19 -9.5 27s-10.333 14.5 -18 19.5
s-16.834 7.5 -27.501 7.5z" />
    <glyph glyph-name="C" unicode="C" horiz-adv-x="462" 
d="M25 188c0 15.333 0.999023 35.167 2.99902 59.5s5.5 50.666 10.5 78.999s11.833 56.666 20.5 84.999s19.167 54.166 31.5 77.499s26.833 42.333 43.5 57s36 22 58 22c26.667 0 49.5 -7.66699 68.5 -23s34.667 -34.166 47 -56.499s21.833 -46.166 28.5 -71.499
s11 -48 13 -68c-1.33301 -8 -5 -14.5 -11 -19.5s-12.333 -7.5 -19 -7.5h-5c-0.666992 1.33301 -2 3 -4 5l-4 4c0 2 -0.166992 4.5 -0.5 7.5s-0.5 6.5 -0.5 10.5s-0.166992 7.5 -0.5 10.5s-0.5 5.16699 -0.5 6.5c0 12.667 1.66699 24 5 34s5 20.333 5 31v5
c-8 9.33301 -16 19.166 -24 29.499s-16.5 19.833 -25.5 28.5s-18.833 15.834 -29.5 21.501s-22.667 8.5 -36 8.5c-16.667 0 -31.834 -6.16699 -45.501 -18.5s-25.5 -28 -35.5 -47s-18.667 -40.333 -26 -64s-13.333 -47 -18 -70s-8 -44.333 -10 -64s-3 -35.167 -3 -46.5
c0 -26 3 -50 9 -72s15.667 -41 29 -57s29.833 -28.5 49.5 -37.5s43.167 -13.5 70.5 -13.5c14 0 28.667 1.33301 44 4s30.5 6.33398 45.5 11.001s29.667 10.334 44 17.001s27.5 14 39.5 22c1.33301 0 3.66602 1.33301 6.99902 4l10.5 8.5c3.66699 3 7.33398 5.66699 11.001 8
s5.83398 4.16602 6.50098 5.49902c0.666992 0 2.16699 0.166992 4.5 0.5s3.83301 0.5 4.5 0.5c1.33301 0 3 -0.166992 5 -0.5s3.33301 -0.5 4 -0.5c-3.33301 -14 -9.66602 -26.5 -18.999 -37.5s-20.5 -20.833 -33.5 -29.5s-27.5 -16 -43.5 -22s-32 -11 -48 -15
s-31.167 -6.83301 -45.5 -8.5s-27.166 -2.5 -38.499 -2.5c-28.667 0 -54.834 4.33301 -78.501 13s-44 21 -61 37s-30 35.667 -39 59s-13.5 50 -13.5 80z" />
    <glyph glyph-name="D" unicode="D" 
d="M148 8c-4 3.33301 -11.5 9.16602 -22.5 17.499l-34.5 27l-34 26.5c-10.667 8 -18 13.667 -22 17c-6 4.66699 -10.833 8.83398 -14.5 12.501s-5.5 9.83398 -5.5 18.501c10 0 18.667 -2.5 26 -7.5s14.5 -10.333 21.5 -16s14.333 -10.834 22 -15.501s16.5 -7 26.5 -7
c0 6.66699 0.166992 18.5 0.5 35.5s0.666016 35.167 0.999023 54.5s0.666016 37.5 0.999023 54.5s0.5 29.167 0.5 36.5c0 2.66699 -0.5 9.16699 -1.5 19.5s-2 21.333 -3 33s-2 22.5 -3 32.5s-1.5 16.333 -1.5 19c0 1.33301 0.333008 5.16602 1 11.499s1.66699 12.833 3 19.5
s2.5 13 3.5 19s1.5 9.66699 1.5 11v22v23c0 1.33301 -0.5 5.33301 -1.5 12s-2.16699 14 -3.5 22s-2.33301 15.333 -3 22s-1 11 -1 13c0 2.66699 0.333008 7.33398 1 14.001l2 21c0.666992 7.33301 1.5 14.333 2.5 21s2.16699 11 3.5 13c10 8.66699 17.667 14 23 16
s13 3 23 3c28 0 55.667 -5.16699 83 -15.5s53.333 -24.5 78 -42.5s47.167 -39 67.5 -63s38 -49.333 53 -76s26.833 -54.167 35.5 -82.5s13 -55.5 13 -81.5c0 -30 -6.16699 -61 -18.5 -93s-29.166 -61 -50.499 -87s-46.166 -47.333 -74.499 -64s-58.5 -25 -90.5 -25
c-9.33301 0 -18.333 0.666992 -27 2l-26.5 4c-9 1.33301 -18 2.5 -27 3.5s-18.167 0.833008 -27.5 -0.5zM175 52c0 -0.666992 1.00293 -2.16992 3.00293 -4.50293s4 -3.83301 6 -4.5c1.33301 -0.666992 4.16602 -1.83398 8.49902 -3.50098l15 -5.5
c5.66699 -2 11.167 -3.66699 16.5 -5s9 -2.33301 11 -3h6c16.667 0 33.667 4.16699 51 12.5s34 19.166 50 32.499s30.667 28.833 44 46.5s25 35.834 35 54.501s18 37.334 24 56.001s9 36 9 52c0 19.333 -4 40.333 -12 63s-18.833 45.334 -32.5 68.001s-29.5 44.5 -47.5 65.5
s-37.167 39.5 -57.5 55.5s-41 28.833 -62 38.5s-41.5 14.5 -61.5 14.5c-4.66699 0 -9.33398 -0.166992 -14.001 -0.5s-9 -1.16602 -13 -2.49902s-7.5 -3.66602 -10.5 -6.99902s-4.5 -8 -4.5 -14v-34c0 -11.333 0.5 -22.833 1.5 -34.5s2.66699 -23 5 -34
s6.16602 -21.5 11.499 -31.5z" />
    <glyph glyph-name="E" unicode="E" horiz-adv-x="584" 
d="M88 184c-9.33301 4.66699 -16.1719 9.33984 -20.5049 14.0068s-6.5 11.334 -6.5 20.001c0 4.66699 0.833008 8.66699 2.5 12s3.66699 6.5 6 9.5s4.5 6.16699 6.5 9.5s3 7.33301 3 12c0 8 0.166992 17.333 0.5 28s-0.166992 21.5 -1.5 32.5s-3.83301 21.333 -7.5 31
s-9.83398 17.5 -18.501 23.5c2 0.666992 5.16699 3.16699 9.5 7.5l8.5 8.5v2v1v2c0 8.66699 -2.16699 14.667 -6.5 18s-9.33301 5.66602 -15 6.99902l-17.5 4c-6 1.33301 -10.333 4.66602 -13 9.99902c7.33301 10 19.333 18.667 36 26s35.5 13.833 56.5 19.5
s43 10.5 66 14.5s45.5 7.5 67.5 10.5s41.667 5 59 6s31 1.5 41 1.5h23c6 0 13.833 -0.5 23.5 -1.5l28.5 -3c9.33301 -1 17.5 -1.83301 24.5 -2.5l10.5 -1l9 -8l-9 -10c-58 -2 -113.833 -5.83301 -167.5 -11.5s-108.5 -16.167 -164.5 -31.5
c-0.666992 -1.33301 -1.33398 -4 -2.00098 -8s-1.5 -8.33301 -2.5 -13s-1.83301 -9.16699 -2.5 -13.5s-1 -7.16602 -1 -8.49902v-6.5c0 -3 0.166992 -6.16699 0.5 -9.5s0.5 -6.33301 0.5 -9v-7c54.667 0 108.667 2.5 162 7.5s107.333 7.5 162 7.5h12c4 0 7.5 -0.5 10.5 -1.5
s5.5 -3 7.5 -6s3 -7.16699 3 -12.5c0 -3.33301 -8.16699 -8 -24.5 -14s-36.833 -12.833 -61.5 -20.5l-80.5 -25.5c-29 -9.33301 -55.833 -19 -80.5 -29s-45.167 -20.333 -61.5 -31s-24.5 -21 -24.5 -31v-3v-1c0.666992 -0.666992 2.33398 -2.16699 5.00098 -4.5
s4 -4.16602 4 -5.49902c0 -0.666992 0.333008 -1 1 -1v-2c0 -0.666992 0.333008 -1 1 -1l-0.5 -0.5c-0.333008 -0.333008 -0.5 -0.833008 -0.5 -1.5c-0.666992 -0.666992 -1 -1.33398 -1 -2.00098s-1.33301 -2.16699 -4 -4.5s-4.33398 -3.5 -5.00098 -3.5
c-0.666992 -2 -2.16699 -5.33301 -4.5 -10s-3.5 -7.33398 -3.5 -8.00098c0 -22 3.83301 -40.833 11.5 -56.5s17.834 -28.334 30.501 -38.001s27.5 -16.834 44.5 -21.501s34.833 -7 53.5 -7c26 0 49.667 3.66699 71 11s41.333 17.333 60 30s36.5 27.5 53.5 44.5
s33.833 35.5 50.5 55.5c0.666992 0 1.83398 1.66699 3.50098 5l5.5 10.5c2 3.66699 3.83301 7.33398 5.5 11.001s2.5 6.16699 2.5 7.5c0 0.666992 0.166992 2.16699 0.5 4.5s0.5 4.16602 0.5 5.49902c0 4 -1.16699 7.16699 -3.5 9.5s-5.16602 4.16602 -8.49902 5.49902
s-6.83301 2.16602 -10.5 2.49902s-7.5 0.5 -11.5 0.5c0 9.33301 4.33301 15.666 13 18.999s17.334 5 26.001 5c10 0 17.5 -3.33301 22.5 -10s7.5 -15 7.5 -25c0 -18.667 -5 -37.5 -15 -56.5s-23 -37.333 -39 -55s-34.5 -34 -55.5 -49s-42.5 -28 -64.5 -39
s-43.667 -19.833 -65 -26.5s-40.666 -10 -57.999 -10c-29.333 0 -53.666 4.83301 -72.999 14.5s-35.666 23 -48.999 40s-23.833 36.667 -31.5 59s-14.5 46.166 -20.5 71.499zM111.994 352.006c0 -14 0.666992 -26.002 2 -36.002c0.666992 -9.33301 1.5 -17.666 2.5 -24.999
s2.83301 -11 5.5 -11h9c0.666992 0 5 1.5 13 4.5s17.5 6.83301 28.5 11.5l34 14.5c11.667 5 21.167 8.83301 28.5 11.5c2 0.666992 4.5 2 7.5 4s6.5 3.83301 10.5 5.5s7.5 3.5 10.5 5.5s5.5 3 7.5 3c-12 3.33301 -25 5.83301 -39 7.5s-28.167 2.83398 -42.5 3.50098
s-28.333 1 -42 1h-35.5z" />
    <glyph glyph-name="F" unicode="F" horiz-adv-x="462" 
d="M96 244l-11.5049 0.00488281h-18.5h-19h-12c-8 1.33301 -13 3.16602 -15 5.49902s-3 6.16602 -3 11.499s3.33301 10.666 10 15.999s14.5 10.5 23.5 15.5l26.5 15c8.66699 5 15 9.83301 19 14.5v11c0 4.66699 0.166992 9.83398 0.5 15.501s0.5 10.834 0.5 15.501v43
c0 10 -0.5 19.667 -1.5 29s-2.16699 19 -3.5 29c-0.666992 6.66699 -1.66699 14 -3 22v-5c-0.666992 -3.33301 -2 -5.83301 -4 -7.5s-4.5 -2.83398 -7.5 -3.50098s-6.5 -1 -10.5 -1c-8 0 -15.333 2.83301 -22 8.5s-10 13.5 -10 23.5c0 13.333 6.16699 25.666 18.5 36.999
s28 21.833 47 31.5s40.333 18.167 64 25.5s46.834 13.5 69.501 18.5s44 8.66699 64 11s35.667 3.5 47 3.5h13c6 0 12.5 -0.166992 19.5 -0.5s13.5 -0.5 19.5 -0.5h13c24 -7.33301 36 -22.666 36 -45.999v-10c0 -4.66699 -0.333008 -9.33398 -1 -14.001
s-1.83398 -8.83398 -3.50098 -12.501s-4.5 -5.5 -8.5 -5.5c-1.33301 0 -2.5 0.166992 -3.5 0.5s-1.83301 0.5 -2.5 0.5c-2 8 -4.33301 15.667 -7 23c-2.66699 6 -5.5 11.833 -8.5 17.5s-6.16699 9.83398 -9.5 12.501h-10c-4.66699 0 -9.5 0.166992 -14.5 0.5
s-9.83301 0.5 -14.5 0.5h-10c-14 0 -31.833 -1 -53.5 -3s-43.334 -6 -65.001 -12s-41.5 -14.333 -59.5 -25s-30 -24.334 -36 -41.001v-14v-22v-22v-15v-64c0 -21.333 3 -42.333 9 -63c1.33301 0 3.66602 -0.166992 6.99902 -0.5s5.33301 -0.5 6 -0.5c18 0 36 2 54 6
s35.833 8.33301 53.5 13s35.5 8.83398 53.5 12.501s36.333 5.5 55 5.5c2.66699 0 7.33398 0.333008 14.001 1s13.5 0.5 20.5 -0.5s13.333 -2.83301 19 -5.5s8.5 -7.33398 8.5 -14.001c0 -0.666992 -0.5 -2 -1.5 -4s-1.5 -3.66699 -1.5 -5c-4 0 -10.5 -0.333008 -19.5 -1
s-18.5 -1.33398 -28.5 -2.00098s-19.5 -1.5 -28.5 -2.5s-15.5 -1.83301 -19.5 -2.5c-2 -0.666992 -7.66699 -2 -17 -4s-19.5 -4.5 -30.5 -7.5l-32.5 -8.5c-10.667 -2.66699 -19 -4.66699 -25 -6c-3.33301 -1.33301 -8.83301 -3.16602 -16.5 -5.49902l-24 -7.5
c-8.33301 -2.66699 -16.166 -5.33398 -23.499 -8.00098s-12 -4.33398 -14 -5.00098l-4 -4l-5 -5v-7v-10.5v-10.5v-7v-41.5c0 -15 0.833008 -30 2.5 -45s4.33398 -29.333 8.00098 -43s9.16699 -25.834 16.5 -36.501l4 -3c2.66699 -2 5.5 -3.83301 8.5 -5.5
s5.83301 -3.5 8.5 -5.5s4.33398 -3.33301 5.00098 -4v-4c0 -1.33301 0.166992 -2.5 0.5 -3.5s0.5 -2.16699 0.5 -3.5c0 -9.33301 -1.66699 -15.666 -5 -18.999s-9.66602 -5 -18.999 -5c-11.333 0 -20.666 4.83301 -27.999 14.5s-13.5 22 -18.5 37s-8.66699 32 -11 51
l-7 55.5c-2.33301 18 -4.66602 34.833 -6.99902 50.5s-5.83301 27.834 -10.5 36.501z" />
    <glyph glyph-name="G" unicode="G" horiz-adv-x="654" 
d="M468 182c-45.333 -36 -90.3359 -69.6582 -135.003 -100.991s-92.667 -59 -144 -83c-5.33301 1.33301 -10.333 1.66602 -15 0.999023s-9.16699 -1.83398 -13.5 -3.50098s-9 -3.16699 -14 -4.5s-9.83301 -2 -14.5 -2c-13.333 0 -26.166 2.66699 -38.499 8
s-23.166 12.5 -32.499 21.5s-16.666 19.5 -21.999 31.5s-8 24.667 -8 38c0 40 8.5 78.833 25.5 116.5s38 73.667 63 108s52.5 67 82.5 98l83 85.5l-27 18l9 8c14.667 -0.666992 28 0.833008 40 4.5s23.333 7.83398 34 12.501s21.5 9 32.5 13s23.167 6 36.5 6h12
c4 0 7.5 -0.5 10.5 -1.5s5.33301 -2.83301 7 -5.5s2.5 -6.33398 2.5 -11.001c0 -2 -5.33301 -6.83301 -16 -14.5l-42.5 -30l-60.5 -43.5c-22.667 -16.667 -45.834 -35.334 -69.501 -56.001s-46.667 -42.834 -69 -66.501s-42.5 -48.334 -60.5 -74.001
s-32.333 -52.5 -43 -80.5s-16 -56.333 -16 -85c0 -11.333 2.33301 -20.5 7 -27.5s10.5 -12.833 17.5 -17.5s15 -7.83398 24 -9.50098s17.833 -2.5 26.5 -2.5c29.333 0 60 7.66699 92 23s63 34 93 56s58.167 45.667 84.5 71s48.833 48.333 67.5 69c4 4 6.5 8 7.5 12
s1.5 8.66699 1.5 14c0 1.33301 -0.166992 3 -0.5 5l-0.5 3c-20 -4 -38.667 -8.5 -56 -13.5s-34.5 -10.333 -51.5 -16s-33.667 -11.667 -50 -18s-33.5 -13.5 -51.5 -21.5h-2c0 -0.666992 -1 -1 -3 -1c-5.33301 0 -9 2 -11 6s-3 8 -3 12c0 7.33301 5.5 14.833 16.5 22.5
s23.833 14.667 38.5 21s29.334 11.833 44.001 16.5s25.667 8 33 10c2 0.666992 7.83301 2.33398 17.5 5.00098l30.5 8.5c10.667 3 20.667 5.66699 30 8l18 4.5c5.33301 1.33301 10 3.5 14 6.5l12 9c4 3 8 5.66699 12 8s9 3.5 15 3.5c3.33301 0 6.5 -0.333008 9.5 -1
s5.5 -3.33398 7.5 -8.00098h157c0.666992 0 2.33398 -0.333008 5.00098 -1s5.5 -1.5 8.5 -2.5s5.5 -2 7.5 -3s3.66699 -1.5 5 -1.5c0 -0.666992 0.333008 -1.33398 1 -2.00098v-1.5v-1.5v-1.5v-1.5c-0.666992 -0.666992 -1 -1.33398 -1 -2.00098
c-0.666992 -1.33301 -2 -3 -4 -5s-3.33301 -3 -4 -3c-5.33301 0 -14.166 -0.5 -26.499 -1.5s-25.5 -2 -39.5 -3s-27.167 -1.83301 -39.5 -2.5s-20.833 -1.33398 -25.5 -2.00098c-14.667 -2 -26 -5 -34 -9s-14.333 -12.667 -19 -26c-7.33301 -24.667 -13 -47.5 -17 -68.5
s-6.83301 -41.5 -8.5 -61.5s-2.5 -40.667 -2.5 -62v-70v-24c0 -12 0.166992 -24.5 0.5 -37.5s0.666016 -25.167 0.999023 -36.5s0.5 -19.333 0.5 -24c0.666992 -4 2.33398 -11 5.00098 -21l8.5 -31.5c3 -11 5.5 -21.5 7.5 -31.5s3.66699 -17 5 -21
c0.666992 -1.33301 1.16699 -4.83301 1.5 -10.5s0.5 -9.5 0.5 -11.5c-10.667 0 -19.834 4 -27.501 12s-14.167 18.333 -19.5 31s-9.5 26.667 -12.5 42s-5.33301 30.333 -7 45s-2.83398 28 -3.50098 40s-1 21 -1 27c-0.666992 8 -1.16699 21.833 -1.5 41.5
s-0.5 40.667 -0.5 63s0.166992 43.333 0.5 63s0.833008 33.5 1.5 41.5z" />
    <glyph glyph-name="H" unicode="H" horiz-adv-x="488" 
d="M376 454c-18.667 -10 -37.6641 -19.1709 -56.9971 -27.5039l-58 -24.5l-57.5 -24.5c-19 -8.33301 -37.5 -17.833 -55.5 -28.5v-7.5v-12v-12v-7.5c0 -31.333 1.16699 -63 3.5 -95s7.16602 -63 14.499 -93c0 -0.666992 1.16699 -3.5 3.5 -8.5
s4.16602 -8.16699 5.49902 -9.5v-4v-4c0 -4 -1 -8.16699 -3 -12.5s-5.66699 -6.5 -11 -6.5c-6.66699 0 -12.5 4.33301 -17.5 13s-9.33301 19.5 -13 32.5s-6.66699 27 -9 42s-4 29 -5 42s-1.66699 24 -2 33l-0.5 13.5c-1.33301 5.33301 -2.5 11.833 -3.5 19.5
s-1.83301 15.167 -2.5 22.5s-1.33398 13.666 -2.00098 18.999l-1 8l-9 13h-70l-8 23c9.33301 5.33301 18.333 9.16602 27 11.499s16.167 5.33301 22.5 9s11.333 8.33398 15 14.001s5.5 14.167 5.5 25.5c0 14 -1.83301 28.167 -5.5 42.5s-7.66699 28.333 -12 42
s-8.5 27.5 -12.5 41.5s-6 27.333 -6 40c0 4.66699 0.5 9.66699 1.5 15s2.5 10.166 4.5 14.499s4.5 8 7.5 11s7.5 4.5 13.5 4.5c8.66699 0 15.334 -5.66699 20.001 -17s8.33398 -25.5 11.001 -42.5s4.66699 -35.167 6 -54.5s3.16602 -37.5 5.49902 -54.5
s5.33301 -31.167 9 -42.5s9.5 -17 17.5 -17c6.66699 0 12.167 0.833008 16.5 2.5s10.833 3.83398 19.5 6.50098c8 3.33301 18.5 7.16602 31.5 11.499s26.833 9.33301 41.5 15s29.5 12 44.5 19s28.833 15 41.5 24s23.5 18.5 32.5 28.5s14.833 21 17.5 33
c0.666992 6 1.16699 15.167 1.5 27.5s1.5 24.833 3.5 37.5s5.66699 23.834 11 33.501s13.333 14.5 24 14.5c4.66699 0 8.5 -2 11.5 -6s5.33301 -8.83301 7 -14.5s2.5 -11.167 2.5 -16.5v-13v-6.5v-9v-8v-4.5l-3 -48l-4.5 -72.5c-1.66699 -27 -3.33398 -55.5 -5.00098 -85.5
s-3.5 -58.333 -5.5 -85s-3.66699 -50.667 -5 -72s-2.66602 -37 -3.99902 -47c0 -3.33301 0.5 -9.16602 1.5 -17.499s2 -17.166 3 -26.499s2 -18.166 3 -26.499s1.5 -14.166 1.5 -17.499c1.33301 -7.33301 3.66602 -14.166 6.99902 -20.499s6.5 -12.833 9.5 -19.5l9 -20
c3 -6.66699 4.5 -14 4.5 -22c-10 0 -19.667 4.83301 -29 14.5s-17.5 21 -24.5 34s-12.833 26 -17.5 39s-7 23.167 -7 30.5v340h-12z" />
    <glyph glyph-name="I" unicode="I" horiz-adv-x="130" 
d="M35 166c-4.66699 64 -8.83398 125.999 -12.501 185.999s-5.5 121.667 -5.5 185v9c0 4.66699 0.166992 9.5 0.5 14.5s0.5 9.83301 0.5 14.5v9c0.666992 4.66699 3 10.5 7 17.5s8.66699 10.5 14 10.5c4.66699 0 8.5 -2 11.5 -6s5.16699 -8.66699 6.5 -14
s2.33301 -10.333 3 -15s1 -7.66699 1 -9c0.666992 -5.33301 1.5 -13.5 2.5 -24.5s1.83301 -22.5 2.5 -34.5s1.5 -23.333 2.5 -34s1.5 -17.667 1.5 -21v-27v-47v-57.5v-57.5v-46.5v-26.5c0 -17.333 2.5 -34.166 7.5 -50.499l15.5 -49
c5.33301 -16.333 10.333 -32.666 15 -48.999s7 -32.833 7 -49.5c-8 0 -15.5 3.66699 -22.5 11s-13.333 16.5 -19 27.5s-10.667 23.167 -15 36.5s-8.16602 26.333 -11.499 39s-6 24.167 -8 34.5s-3.33301 18.166 -4 23.499z" />
    <glyph glyph-name="J" unicode="J" horiz-adv-x="550" 
d="M244 -301c0 14.667 0.334961 30.333 1.00195 47s2.5 33.5 5.5 50.5s7.5 33.333 13.5 49s14 29.5 24 41.5c6.66699 7.33301 17.5 17.166 32.5 29.499l46.5 39.5c16 14 30.167 27.5 42.5 40.5s18.5 24.5 18.5 34.5c0 2 -0.166992 5.66699 -0.5 11s-0.5 9 -0.5 11
c-8 1.33301 -19.667 3 -35 5s-32.666 4.5 -51.999 7.5s-39.833 6 -61.5 9s-42.167 6 -61.5 9s-36.666 5.5 -51.999 7.5s-27 3.66699 -35 5c-4 0.666992 -11.333 1.5 -22 2.5s-22 2 -34 3s-23.333 1.83301 -34 2.5s-18.334 1 -23.001 1
c-4.66699 1.33301 -7.5 3.83301 -8.5 7.5s-1.5 7.5 -1.5 11.5c0 6 1 9.5 3 10.5s7.33301 2.5 16 4.5c3.33301 2 11.833 5 25.5 9l44 13.5l44 14l26.5 8.5c10 3.33301 22.5 7.83301 37.5 13.5s30.5 12.334 46.5 20.001s32 16 48 25s30.5 18.833 43.5 29.5
s23.5 21.667 31.5 33s12 23.333 12 36c0 16.667 -1 33 -3 49s-4.33301 32.167 -7 48.5s-5 32.5 -7 48.5s-3 32 -3 48c0 6.66699 0.666992 13 2 19s7 10.667 17 14c12.667 -8 22 -17.833 28 -29.5s10.5 -24.5 13.5 -38.5s5.66699 -28 8 -42s6.16602 -27 11.499 -39l30 -401
h57c-2.66699 -4.66699 -6.83398 -8.5 -12.501 -11.5s-11.5 -5.66699 -17.5 -8s-11.167 -5 -15.5 -8s-6.5 -6.83301 -6.5 -11.5c0 -28 0.833008 -56.167 2.5 -84.5s3.66699 -56.5 6 -84.5s4.5 -56.167 6.5 -84.5s3 -56.5 3 -84.5v-30c0 -12 -0.166992 -24 -0.5 -36
s-0.5 -22.5 -0.5 -31.5v-14.5c-0.666992 -9.33301 -1.33398 -20.666 -2.00098 -33.999s-2.16699 -27.5 -4.5 -42.5s-5.5 -30.167 -9.5 -45.5s-9 -29.166 -15 -41.499s-13.667 -22.833 -23 -31.5s-20.333 -13.334 -33 -14.001c-28.667 21.333 -53.5 46.666 -74.5 75.999
s-38.333 60.666 -52 93.999s-23.667 67.833 -30 103.5s-9.5 70.834 -9.5 105.501zM277.002 -293.001c0 -30 2.33105 -60.502 6.99805 -91.502s12.167 -61.5 22.5 -91.5s24 -58 41 -84s37.833 -49 62.5 -69h2h2c6.66699 0 12.334 4 17.001 12s8.5 17.5 11.5 28.5
s5.33301 21.667 7 32s3.16699 18.166 4.5 23.499c0 4 0.5 10 1.5 18l3 25c1 8.66699 1.83301 16.334 2.5 23.001s1 11 1 13v15c0 8.66699 0.166992 18.667 0.5 30s0.5 22.833 0.5 34.5v27.5c0 48.667 -0.5 97.834 -1.5 147.501s-6.5 98.5 -16.5 146.5
c-0.666992 2 -2 5.33301 -4 10s-3.66699 7.33398 -5 8.00098h-1c-0.666992 0 -1.33398 0.166992 -2.00098 0.5s-1.33398 0.5 -2.00098 0.5c-17.333 0 -33.166 -4.66699 -47.499 -14s-27.166 -21.5 -38.499 -36.5s-21.166 -32.167 -29.499 -51.5s-15.333 -38.5 -21 -57.5
s-10 -37.333 -13 -55s-4.5 -32.5 -4.5 -44.5zM174 123.997c17.333 0 34.668 -1.00098 52.001 -3.00098s34.5 -4.16699 51.5 -6.5s34 -4.5 51 -6.5s34.167 -3 51.5 -3c8 0 14.333 0.333008 19 1s11 3.33398 19 8.00098c0 2 0.166992 6.16699 0.5 12.5s0.5 10.5 0.5 12.5
c0 4 -0.166992 9.16699 -0.5 15.5s-0.5 10.166 -0.5 11.499c-0.666992 7.33301 -1.83398 16.333 -3.50098 27s-3.5 21.167 -5.5 31.5l-5 26.5c-1.33301 7.33301 -2.33301 11 -3 11h-17c-33.333 -23.333 -67.5 -45.166 -102.5 -65.499s-70.833 -39.5 -107.5 -57.5v-15z" />
    <glyph glyph-name="K" unicode="K" horiz-adv-x="506" 
d="M26 523c0 8 1.33301 13.167 4 15.5s7 3.5 13 3.5c8 0 13.833 -2.66699 17.5 -8s6.83398 -12 9.50098 -20c0 -8 -0.166992 -20.333 -0.5 -37s-0.5 -35.5 -0.5 -56.5v-66.5v-67c0 -21.333 0.166992 -40.5 0.5 -57.5s0.5 -29.5 0.5 -37.5c0 -3.33301 0.333008 -10 1 -20
l2 -31.5c0.666992 -11 1.5 -21.5 2.5 -31.5s1.83301 -17 2.5 -21c0.666992 -2 2.16699 -5.33301 4.5 -10s4.16602 -7.33398 5.49902 -8.00098c0 -0.666992 0.333008 -1 1 -1h2c4 0 10.833 7.66699 20.5 23s20.667 35 33 59l41 80l45 87c15 28.667 29.667 55 44 79
s27.5 43 39.5 57h2.5h2.5c6 0 9.66699 -2.5 11 -7.5s2 -10.167 2 -15.5c0 -16.667 -4.66699 -33.667 -14 -51l-30.5 -57c-11 -20.667 -21.167 -42.667 -30.5 -66s-14 -49.333 -14 -78v-9.5c0 -4.33301 0.166992 -9.16602 0.5 -14.499s0.5 -10.333 0.5 -15v-10
c4.66699 -16.667 14.167 -30.334 28.5 -41.001s30.833 -19 49.5 -25s38.5 -10.333 59.5 -13s40.167 -4.66699 57.5 -6s31.666 -3 42.999 -5s17 -5 17 -9c0 -2 -0.333008 -3.66699 -1 -5c-16 -6 -31.333 -9 -46 -9h-46c-35.333 0 -64.166 2 -86.499 6s-41 11.5 -56 22.5
s-27.833 26.167 -38.5 45.5s-21.667 44.333 -33 75c-8 -4.66699 -14.667 -12 -20 -22s-10.166 -21.167 -14.499 -33.5s-8.33301 -25.166 -12 -38.499s-8.16699 -25.333 -13.5 -36s-12 -19.5 -20 -26.5s-17.667 -10.5 -29 -10.5c-10.667 0 -19.334 5.33301 -26.001 16
s-11.667 22.834 -15 36.501s-5.5 26.667 -6.5 39s-1.5 20.166 -1.5 23.499z" />
    <glyph glyph-name="L" unicode="L" 
d="M25 246c0 50 2.1709 99.334 6.50391 148.001s11.166 97.667 20.499 147c2 8 4 14.5 6 19.5s4.5 9 7.5 12s7 5 12 6s11.5 1.5 19.5 1.5v-15.5c0 -7.66699 -0.333008 -12.5 -1 -14.5c-0.666992 -4.66699 -1.83398 -14.167 -3.50098 -28.5
s-3.83398 -31.166 -6.50098 -50.499l-8 -61l-7.5 -61c-2.33301 -19.333 -4.5 -36.166 -6.5 -50.499s-3 -23.833 -3 -28.5v-8c0 -32 4.16699 -61.833 12.5 -89.5s21.166 -51.834 38.499 -72.501s38.666 -36.834 63.999 -48.501s55 -17.5 89 -17.5
c20 0 39.833 2.16699 59.5 6.5s39.167 9.33301 58.5 15s38.5 10.834 57.5 15.501s38.167 7 57.5 7h8l-8 -17c-0.666992 0 -3.33398 -1 -8.00098 -3l-17 -7.5l-20 -9l-17 -7.5c-28.667 -10.667 -57.5 -19.167 -86.5 -25.5s-59.167 -9.5 -90.5 -9.5
c-40 0 -74.667 5.66699 -104 17s-53.666 27.666 -72.999 48.999s-33.666 47.166 -42.999 77.499s-14 64.833 -14 103.5z" />
    <glyph glyph-name="M" unicode="M" horiz-adv-x="760" 
d="M607 454c-7.33301 -2.66699 -12.1709 -6.16406 -14.5039 -10.4971s-4.83301 -9.83301 -7.5 -16.5c-1.33301 -2.66699 -4 -8.83398 -8 -18.501l-14 -34.5l-17.5 -42l-17.5 -42l-14 -35l-8 -20c-4.66699 -10.667 -10.5 -23 -17.5 -37s-15.333 -27.333 -25 -40
s-20.334 -23.334 -32.001 -32.001s-24.5 -13 -38.5 -13c-22 0 -39.667 8.5 -53 25.5s-23.5 39 -30.5 66s-11.833 57.333 -14.5 91s-4.83398 66.5 -6.50098 98.5s-3.5 62 -5.5 90s-6 50 -12 66h-3h-2h-1h-1h-2c-6.66699 -4 -12.834 -10 -18.501 -18
s-10.834 -16.5 -15.501 -25.5s-8.5 -17.5 -11.5 -25.5s-5.16699 -14.333 -6.5 -19l-114 -366c-0.666992 -2 -1.66699 -4.66699 -3 -8s-3.16602 -6.5 -5.49902 -9.5s-5 -5.5 -8 -7.5s-6.16699 -2.33301 -9.5 -1c-2 0 -4.5 1.5 -7.5 4.5s-5.83301 6.33301 -8.5 10
s-5 7.33398 -7 11.001s-3.33301 6.5 -4 8.5c-10 67.333 -15.667 136 -17 206s-1.33301 138 0 204l-4.5 9c-2.33301 4.66699 -3.5 7.66699 -3.5 9c0 4.66699 1.5 9.5 4.5 14.5s6.66699 9.83301 11 14.5s9 8.5 14 11.5s9.5 4.5 13.5 4.5
c6.66699 0 11.334 -1.83301 14.001 -5.5s4 -8.83398 4 -15.501c0 -36 -1.66699 -71.667 -5 -107s-5 -71.333 -5 -108v-20c0 -8.66699 0.166992 -17.167 0.5 -25.5s0.5 -15.833 0.5 -22.5v-11l9 -36c0.666992 1.33301 2.16699 3 4.5 5s3.83301 3.33301 4.5 4
c1.33301 2.66699 3.66602 7.66699 6.99902 15l10.5 23.5l10.5 24c3.33301 7.66699 5.33301 13.167 6 16.5c1.33301 3.33301 3.66602 9.5 6.99902 18.5l12 33c4.66699 13 9.83398 26.5 15.501 40.5s10.834 27.333 15.501 40l12.5 33l7.5 19
c2.66699 5.33301 6.83398 14.833 12.501 28.5s12.667 27.334 21 41.001s17.333 25.834 27 36.501s19.834 16 30.501 16c10 0 17.667 -6.66699 23 -20s9.5 -30.833 12.5 -52.5s5.16699 -46.334 6.5 -74.001s2.5 -56.167 3.5 -85.5s2.66699 -57.833 5 -85.5
s5.83301 -52.334 10.5 -74.001s11.167 -39.167 19.5 -52.5s19.5 -20 33.5 -20c4 0 8.5 2.16699 13.5 6.5s9.83301 9.5 14.5 15.5s8.83398 12 12.501 18s6.16699 10.667 7.5 14c4.66699 8.66699 11.334 22.334 20.001 41.001l29.5 63l34.5 74l34 74.5l29 63.5
c8.66699 18.667 15 32.667 19 42l13.5 33c5.66699 14 9.83398 26 12.501 36c8 -1.33301 16 -3.66602 24 -6.99902s12 -9.33301 12 -18c0 -1.33301 -0.166992 -3.16602 -0.5 -5.49902s-0.5 -3.83301 -0.5 -4.5c-9.33301 -54.667 -16.166 -107.834 -20.499 -159.501
s-6.5 -104.834 -6.5 -159.501v-24.5c0 -11.667 0.166992 -24.334 0.5 -38.001s0.5 -26.334 0.5 -38.001v-25.5c3.33301 -27.333 13 -52.333 29 -75s32.333 -44 49 -64v-23c-6 0 -13.333 3.16699 -22 9.5s-17.334 14.5 -26.001 24.5s-17.167 21.333 -25.5 34
s-15.666 25 -21.999 37s-11.5 23 -15.5 33s-6 18 -6 24v297z" />
    <glyph glyph-name="N" unicode="N" horiz-adv-x="576" 
d="M114 392l-2.49512 -17.0029c-1.66699 -11.333 -3.33398 -25 -5.00098 -41s-3.5 -32.167 -5.5 -48.5l-5 -41.5v-9c-1.33301 -6 -3.16602 -16.833 -5.49902 -32.5l-7.5 -50c-2.66699 -17.667 -5.33398 -34.334 -8.00098 -50.001s-4.33398 -26.5 -5.00098 -32.5
c-2 -8 -5.83301 -14.5 -11.5 -19.5s-12.5 -7.5 -20.5 -7.5c-4 0 -6.83301 1.5 -8.5 4.5s-2.83398 6.83301 -3.50098 11.5s-1 9.16699 -1 13.5v9.5c0 36 1.66699 73.5 5 112.5s8 78.167 14 117.5s13.333 78.333 22 117s18.667 76 30 112
c0.666992 3.33301 2.16699 5.66602 4.5 6.99902s5 2 8 2h9h6.5h4.5h4.5h6l1.5 -4.5c1 -3 2 -6.5 3 -10.5l3 -11.5c1 -3.66699 1.5 -6.83398 1.5 -9.50098c4 -18 10 -42 18 -72s18.167 -62.5 30.5 -97.5s26.333 -70.5 42 -106.5s33 -68.5 52 -97.5s39.167 -52.5 60.5 -70.5
s43.666 -27 66.999 -27c11.333 0 21.666 4 30.999 12s17.5 18.5 24.5 31.5s13 27.5 18 43.5s9.33301 31.5 13 46.5s6.33398 29 8.00098 42s2.5 22.833 2.5 29.5c0 52.667 -5.5 103.834 -16.5 153.501s-25.833 99.167 -44.5 148.5c-4 5.33301 -10 10.333 -18 15
s-14 8.33398 -18 11.001c2 4.66699 4.66699 7.33398 8 8.00098s7 1 11 1c12.667 0 24.167 -7.66699 34.5 -23s19.666 -34.666 27.999 -57.999s15.833 -49 22.5 -77s12 -55 16 -81s7 -49.333 9 -70s3 -34.667 3 -42c0 -21.333 -1.83301 -45.5 -5.5 -72.5
s-10.5 -52.5 -20.5 -76.5s-23.833 -44.333 -41.5 -61s-40.5 -25 -68.5 -25c-25.333 0 -48.833 8.16699 -70.5 24.5s-41.667 37.333 -60 63s-35.333 54.334 -51 86.001s-30.167 62.667 -43.5 93l-36.5 84c-11 25.667 -21.167 45.834 -30.5 60.501z" />
    <glyph glyph-name="O" unicode="O" horiz-adv-x="472" 
d="M17 170c0 19.333 2.16797 41 6.50098 65s10.666 48.167 18.999 72.5s19 47.833 32 70.5s28 43 45 61s35.833 32.333 56.5 43s43.334 16 68.001 16c21.333 0 41 -4.83301 59 -14.5s34.5 -22 49.5 -37s28.167 -32.5 39.5 -52.5s21 -40.5 29 -61.5s14.167 -41.667 18.5 -62
s6.5 -38.833 6.5 -55.5c0 -23.333 -4 -45 -12 -65s-18.833 -38 -32.5 -54s-29.667 -30 -48 -42s-37.833 -22.167 -58.5 -30.5s-41.834 -14.5 -63.501 -18.5s-43.167 -6 -64.5 -6c-28.667 0 -52.5 4 -71.5 12s-34.333 19.5 -46 34.5s-20 33 -25 54s-7.5 44.5 -7.5 70.5z
M52.001 148c0 -18.667 2.99902 -34.8281 8.99902 -48.4951s14.333 -24.667 25 -33s23.334 -14.333 38.001 -18s31 -5.5 49 -5.5c28 0 56.333 3.16699 85 9.5s54.334 16.666 77.001 30.999s41.167 32.666 55.5 54.999s21.5 49.5 21.5 81.5c0 20 -3.83301 44 -11.5 72
s-18.5 54.667 -32.5 80s-31.167 46.833 -51.5 64.5s-42.833 26.5 -67.5 26.5c-11.333 0 -20.833 -0.5 -28.5 -1.5s-17.167 -3.5 -28.5 -7.5v-5v-4c0 -0.666992 0.5 -2.33398 1.5 -5.00098s2.16699 -5.5 3.5 -8.5s2.33301 -5.83301 3 -8.5s1 -4.33398 1 -5.00098
c0 -6 -1.66699 -10.5 -5 -13.5s-7.16602 -5.16699 -11.499 -6.5s-9 -2.33301 -14 -3s-9.5 -1.66699 -13.5 -3c-22 -9.33301 -39.833 -23.333 -53.5 -42s-24.334 -39.5 -32.001 -62.5s-12.834 -46.833 -15.501 -71.5s-4 -47.334 -4 -68.001z" />
    <glyph glyph-name="P" unicode="P" horiz-adv-x="418" 
d="M79 226c-4.66699 2 -10.667 4.8291 -18 8.49609s-14.333 7.83398 -21 12.501s-12.5 9.83398 -17.5 15.501s-7.5 11.834 -7.5 18.501c10 0 19.167 -1.66699 27.5 -5s16.833 -5 25.5 -5c0 48 -1.16699 95.667 -3.5 143s-3.5 95.333 -3.5 144v14v21v21.5v13.5
c4 24 13.833 42 29.5 54s35.5 18 59.5 18c15.333 0 32.166 -4 50.499 -12s36.833 -18.333 55.5 -31s36.834 -27.5 54.501 -44.5s33.167 -34.667 46.5 -53s24.166 -36.5 32.499 -54.5s12.5 -35 12.5 -51c0 -44.667 -6.33301 -81.667 -19 -111s-30.667 -53 -54 -71
s-51.166 -31.667 -83.499 -41s-67.833 -16.333 -106.5 -21c2 -15.333 3.66699 -29.5 5 -42.5s2.33301 -25.667 3 -38l2 -37c0.666992 -12.333 1 -25.166 1 -38.499c0 -3.33301 -0.166992 -8 -0.5 -14s-1.16602 -12 -2.49902 -18s-3.5 -11.333 -6.5 -16s-7.5 -7 -13.5 -7
c-2.66699 0 -5.33398 1 -8.00098 3s-5 4.5 -7 7.5s-3.66699 6 -5 9s-2 5.5 -2 7.5zM121 378.996c0 -10.667 -0.666992 -23.335 -2 -38.002s-1.33301 -28.5 0 -41.5s5.33301 -24.167 12 -33.5s18 -14 34 -14c26.667 0 51.667 4.83301 75 14.5s43.833 23 61.5 40
s31.5 37.167 41.5 60.5s15 48.333 15 75c0 14.667 -3.16699 30.334 -9.5 47.001s-14.833 33.334 -25.5 50.001s-23.167 32.5 -37.5 47.5s-29.333 28.333 -45 40s-31.5 20.834 -47.5 27.501s-31 10 -45 10c-12 0 -22 -3.66699 -30 -11s-14.333 -16.5 -19 -27.5
s-7.83398 -22.833 -9.50098 -35.5s-2.5 -23.667 -2.5 -33c0 -14.667 2.33301 -25 7 -31s9.83398 -10.5 15.501 -13.5l15.5 -8.5c4.66699 -2.66699 7 -7.66699 7 -15s-0.833008 -13.333 -2.5 -18s-4.16699 -10.334 -7.5 -17.001v-15.5c0 -7 -0.166992 -14.333 -0.5 -22
s-0.5 -15 -0.5 -22v-15.5z" />
    <glyph glyph-name="Q" unicode="Q" horiz-adv-x="628" 
d="M433 192c-6 0 -12.833 -1.83398 -20.5 -5.50098s-15.167 -8 -22.5 -13l-21.5 -14.5c-7 -4.66699 -13.5 -8.33398 -19.5 -11.001c-12 -5.33301 -23.333 -9.66602 -34 -12.999s-21.167 -6 -31.5 -8s-21 -3.5 -32 -4.5s-23.5 -1.5 -37.5 -1.5
c-26.667 0 -49.667 2.33301 -69 7s-35.166 12.334 -47.499 23.001s-21.5 25.334 -27.5 44.001s-9 42 -9 70c0 20.667 1.5 40.334 4.5 59.001s4.5 38 4.5 58c0 9.33301 -2.66699 18.666 -8 27.999s-11.333 18.5 -18 27.5s-12.667 18.5 -18 28.5s-8 20.667 -8 32
c0 26.667 4.66699 50.834 14 72.501s22 40.834 38 57.501s34.667 31.167 56 43.5s43.833 22.5 67.5 30.5s47.5 13.833 71.5 17.5s47.333 5.5 70 5.5c38.667 0 72.167 -7.66699 100.5 -23s51.833 -35.5 70.5 -60.5s32.5 -53.833 41.5 -86.5s13.5 -66.334 13.5 -101.001
c0 -24 -3.33301 -46 -10 -66s-14 -39.833 -22 -59.5s-15.333 -39.334 -22 -59.001s-10 -40.834 -10 -63.501c0 -20.667 1 -41.167 3 -61.5s9.66699 -39.166 23 -56.499c3.33301 -4 8.83301 -9 16.5 -15l24.5 -19c8.66699 -6.66699 16.5 -13.167 23.5 -19.5
s11.833 -11.833 14.5 -16.5v-2v-3h1c0 -0.666992 -0.166992 -1.16699 -0.5 -1.5s-0.5 -0.833008 -0.5 -1.5v-2l-4 -4l-4 -4h-5c-16.667 0 -31.834 4.66699 -45.501 14s-25.667 21.166 -36 35.499s-19.5 29.833 -27.5 46.5s-15 32 -21 46l-15.5 35.5
c-4.33301 9.66699 -7.83301 14.5 -10.5 14.5zM87 266.999c0 -20 3.49805 -36.999 10.498 -50.999s16.5 -25.5 28.5 -34.5s25.833 -15.5 41.5 -19.5s32.5 -6 50.5 -6c15.333 0 34.833 2.66699 58.5 8s46.667 13 69 23s41.666 22 57.999 36s24.5 29.667 24.5 47
c0 16 -0.5 30.5 -1.5 43.5s-3.5 27.833 -7.5 44.5h-11h-11c-24.667 0 -49.167 -1.66699 -73.5 -5s-49.166 -5 -74.499 -5h-36.5c-11 0 -21.833 0.5 -32.5 1.5s-21.167 2.66699 -31.5 5s-21.833 6.16602 -34.5 11.499c-5.33301 -11.333 -9.66602 -21 -12.999 -29
s-6.16602 -15.5 -8.49902 -22.5s-3.83301 -14.333 -4.5 -22s-1 -16.167 -1 -25.5zM498.998 460c0 -12 -1.33398 -23.3379 -4.00098 -34.0049s-5.66699 -21.167 -9 -31.5s-6.16602 -21.166 -8.49902 -32.499s-3.5 -24.666 -3.5 -39.999h15
c4.66699 0 9.33398 6.16699 14.001 18.5s8.5 26.333 11.5 42s5.33301 30.5 7 44.5s2.5 23 2.5 27c0 26 -2.66699 52.833 -8 80.5s-14.333 53.167 -27 76.5s-29.334 42.5 -50.001 57.5s-46.334 22.5 -77.001 22.5c-6.66699 0 -13.5 -0.333008 -20.5 -1s-13.167 -4 -18.5 -10
c8.66699 -2.66699 17.167 -6.5 25.5 -11.5s15.833 -11 22.5 -18s12 -15 16 -24s6 -18.5 6 -28.5v-4c-1.33301 -1.33301 -3 -3.16602 -5 -5.49902s-3.33301 -3.83301 -4 -4.5l-53 53h-1c-0.666992 0 -1.16699 0.166992 -1.5 0.5s-0.833008 0.5 -1.5 0.5
c-12 0 -24.667 -4.16699 -38 -12.5s-26.166 -18.333 -38.499 -30s-23.5 -24.167 -33.5 -37.5s-18.333 -25 -25 -35c-2.66699 -4 -6.83398 -10.833 -12.501 -20.5l-18.5 -31.5l-18.5 -32c-5.66699 -10 -9.5 -17 -11.5 -21l-0.5 -1.5l-0.5 -1.5
c0 -9.33301 5.83301 -16.666 17.5 -21.999s24.834 -9.16602 39.501 -11.499s28.834 -3.83301 42.501 -4.5s22.5 -1 26.5 -1c2 0 7.33301 0.333008 16 1l31.5 2.5c12.333 1 25.5 2.33301 39.5 4s27 3.33398 39 5.00098s21.833 3.66699 29.5 6s11.5 4.83301 11.5 7.5v112
c0 3.33301 1.66699 5.66602 5 6.99902s6.83301 2.16602 10.5 2.49902s7.16699 0.5 10.5 0.5h5c9.33301 0 16.833 -1.83301 22.5 -5.5s10.167 -8.66699 13.5 -15s5.66602 -13.166 6.99902 -20.499s2 -15 2 -23zM51.9971 497.995c0 -4 1.16504 -9.50195 3.49805 -16.502
s5.33301 -13.833 9 -20.5s8 -12.5 13 -17.5s9.83301 -7.5 14.5 -7.5h2h2c0.666992 0.666992 2 2.16699 4 4.5s3.66699 3.83301 5 4.5l39 63.5c12.667 21 25.834 41.5 39.501 61.5s28.167 39.167 43.5 57.5s33 35.833 53 52.5c-2 0 -5.16699 0.166992 -9.5 0.5
s-7.16602 0.5 -8.49902 0.5c-24 0 -48.5 -4.83301 -73.5 -14.5s-47.5 -22.667 -67.5 -39s-36.5 -35.666 -49.5 -57.999s-19.5 -46.166 -19.5 -71.499z" />
    <glyph glyph-name="R" unicode="R" 
d="M114 184c-0.666992 0 -1.3291 -1.99512 -1.99609 -5.99512l-2.5 -15l-3 -18l-2.5 -15c-0.666992 -2.66699 -1.33398 -8.16699 -2.00098 -16.5s-1.5 -17.166 -2.5 -26.499s-1.83301 -18 -2.5 -26s-1 -14 -1 -18l-4 -4c-2 -2 -3.33301 -3.66699 -4 -5h-3h-2h-3h-2l-9 9
c-4.66699 4.66699 -7.33398 7.66699 -8.00098 9c-1.33301 5.33301 -3.16602 14.666 -5.49902 27.999s-5 27.333 -8 42s-5.66699 28.667 -8 42s-4.16602 22.666 -5.49902 27.999v8c0 4.66699 -0.166992 13.667 -0.5 27s-0.833008 29 -1.5 47s-1.33398 37 -2.00098 57
s-1.16699 39 -1.5 57s-0.833008 33.667 -1.5 47s-1 22.333 -1 27v6c0 26.667 4.83301 53.167 14.5 79.5s23 50.166 40 71.499s37.333 38.666 61 51.999s49.5 20 77.5 20c15.333 0 30.333 -3 45 -9s27.667 -14 39 -24s20.5 -22 27.5 -36s10.5 -29 10.5 -45
c0 -23.333 -5.66699 -45.666 -17 -66.999s-25.5 -41.333 -42.5 -60s-35.333 -36.334 -55 -53.001l-55 -47c-17 -14.667 -31.167 -28.667 -42.5 -42s-17 -26 -17 -38c0 -9.33301 4.16699 -19.833 12.5 -31.5s19 -23.667 32 -36s27.5 -24.333 43.5 -36
s31.833 -22.667 47.5 -33s30.167 -19.5 43.5 -27.5s23.666 -14 30.999 -18c2.66699 -2 8 -5 16 -9l26.5 -13l27 -13.5l18.5 -9.5c6 -2 13.833 -3.5 23.5 -4.5s19.5 -2.16699 29.5 -3.5s18.5 -3.5 25.5 -6.5s10.5 -8.16699 10.5 -15.5
c0 -0.666992 -0.166992 -1.16699 -0.5 -1.5s-0.5 -0.833008 -0.5 -1.5v-2c-1.33301 -0.666992 -3 -2 -5 -4s-3.66699 -3.33301 -5 -4h-5.5c-3 0 -6.16699 -0.166992 -9.5 -0.5s-6.5 -0.5 -9.5 -0.5h-6.5c-30.667 0 -61.334 6.16699 -92.001 18.5
s-60.334 27.666 -89.001 45.999s-56 38.166 -82 59.499l-72 61h-8zM95.0049 526.005c0 -14 -0.332031 -28.833 -0.999023 -44.5s-0.833984 -31.167 -0.500977 -46.5s2 -30.333 5 -45s8.16699 -28.334 15.5 -41.001c6 4 15 10.833 27 20.5s25.167 21 39.5 34
s29 27.167 44 42.5s28.5 30.5 40.5 45.5s22 29.5 30 43.5s12 26 12 36c0 15.333 -3 27.833 -9 37.5s-13.667 17.334 -23 23.001s-20 9.5 -32 11.5s-24.333 3 -37 3c-38 0 -66 -11 -84 -33s-27 -51 -27 -87z" />
    <glyph glyph-name="S" unicode="S" 
d="M18 226c0 15.333 4.16602 28.166 12.499 38.499s18.5 18.5 30.5 24.5s25 10.333 39 13s27 4 39 4c2.66699 0 7.33398 -1.33301 14.001 -4s11 -4.66699 13 -6v-1v-2c0 -6 -2.5 -10.333 -7.5 -13s-11.5 -4.83398 -19.5 -6.50098s-16.5 -3.16699 -25.5 -4.5
s-17.5 -3.66602 -25.5 -6.99902s-14.5 -8 -19.5 -14s-7.5 -14.333 -7.5 -25c0 -14.667 7 -29.667 21 -45s31.833 -29.666 53.5 -42.999s45.834 -25.833 72.501 -37.5s52.667 -21.667 78 -30s48.333 -14.666 69 -18.999s36.334 -6.16602 47.001 -5.49902
c2 0 5.5 0.833008 10.5 2.5s10.167 3.5 15.5 5.5l15.5 6c5 2 8.5 3.33301 10.5 4c0 1.33301 0.166992 4.16602 0.5 8.49902s0.5 7.16602 0.5 8.49902c0 8 -1 14.833 -3 20.5s-4.83301 11 -8.5 16s-8.33398 10 -14.001 15s-12.167 11.167 -19.5 18.5l-27 27l-41 40.5
l-48.5 47l-49.5 47l-42 40l-27 26.5c-19.333 24.667 -34.5 49 -45.5 73s-16.5 51.667 -16.5 83c0 28 5.5 53.333 16.5 76s29.167 41.334 54.5 56.001h8h13h13.5h8.5c18.667 0 38.334 -3.5 59.001 -10.5s39.667 -16.833 57 -29.5s31.666 -28 42.999 -46s17 -37.667 17 -59
c0 -2.66699 -0.333008 -6.83398 -1 -12.501s-3.66699 -8.5 -9 -8.5c-10 0 -18.833 3.16699 -26.5 9.5s-15 14.5 -22 24.5s-13.833 20.5 -20.5 31.5s-14.167 21.5 -22.5 31.5s-18 18.167 -29 24.5s-23.5 9.5 -37.5 9.5c-10.667 0 -21.334 -3.16699 -32.001 -9.5
s-20 -14.166 -28 -23.499s-14.5 -19.666 -19.5 -30.999s-7.5 -22 -7.5 -32c0 -14.667 2 -29.834 6 -45.501s9.66699 -30.667 17 -45s15.833 -28 25.5 -41s19.834 -24.833 30.501 -35.5l236 -227c10 -8.66699 18.5 -20.334 25.5 -35.001s10.5 -28.667 10.5 -42
c0 -10.667 -2.33301 -20 -7 -28s-10.667 -14.5 -18 -19.5s-15.833 -8.66699 -25.5 -11s-19.5 -3.5 -29.5 -3.5h-9c-5.33301 0.666992 -13.666 2.5 -24.999 5.5s-23 5.83301 -35 8.5l-33.5 7.5c-10.333 2.33301 -16.833 3.83301 -19.5 4.5
c-10.667 3.33301 -24.834 8.5 -42.501 15.5s-36.834 15.333 -57.501 25s-41.667 20.667 -63 33s-40.5 25.5 -57.5 39.5s-31 28.5 -42 43.5s-16.5 29.5 -16.5 43.5z" />
    <glyph glyph-name="T" unicode="T" horiz-adv-x="594" 
d="M340 43c0 8 -0.325195 20.498 -0.992188 37.498s-1.16699 36 -1.5 57s-1 43.333 -2 67s-1.66699 46.167 -2 67.5s-0.833008 40.333 -1.5 57s-1 29 -1 37c0 6 0.166992 13.667 0.5 23s-0.166992 18 -1.5 26s-4 15 -8 21s-10.667 9 -20 9
c-24.667 0 -49.167 -1.16699 -73.5 -3.5s-48.333 -6.5 -72 -12.5s-46.5 -14.167 -68.5 -24.5s-42.667 -23.166 -62 -38.499c-2.66699 0.666992 -6.16699 3.16699 -10.5 7.5s-6.83301 7.83301 -7.5 10.5c-2.66699 10.667 2.5 21 15.5 31s30.667 19.333 53 28
s47.166 16.334 74.499 23.001s53.666 12.5 78.999 17.5s48.166 8.83301 68.499 11.5s34.166 4 41.499 4c6 0 10.5 -0.666992 13.5 -2s7.16699 -4.33301 12.5 -9h213c0 -4.66699 -2.5 -8.5 -7.5 -11.5s-10.833 -5.66699 -17.5 -8s-13 -4 -19 -5s-10 -1.5 -12 -1.5
c-4.66699 -0.666992 -13.334 -1.33398 -26.001 -2.00098s-25.834 -1.5 -39.501 -2.5s-26.667 -1.83301 -39 -2.5s-21.166 -1 -26.499 -1c-4.66699 -2 -9.33398 -4.33301 -14.001 -7s-8.66699 -6.33398 -12 -11.001c0.666992 -3.33301 1.5 -9.16602 2.5 -17.499l3 -26
c1 -9 1.83301 -17.667 2.5 -26s1 -14.166 1 -17.499v-27v-49.5v-59.5v-59v-48.5v-27.5c0 -1.33301 0.333008 -5 1 -11s1.5 -12.5 2.5 -19.5s2 -13.333 3 -19s1.83301 -9.16699 2.5 -10.5v-6c0 -5.33301 -1.83301 -8.83301 -5.5 -10.5s-7.83398 -2.5 -12.501 -2.5
c-5.33301 0 -9.66602 1.5 -12.999 4.5s-5.83301 6.83301 -7.5 11.5s-2.83398 9.5 -3.50098 14.5s-1.33398 9.5 -2.00098 13.5z" />
    <glyph glyph-name="U" unicode="U" horiz-adv-x="392" 
d="M39 446c3.33301 0 6.50391 -1.5 9.50391 -4.5s5.33301 -6.5 7 -10.5s3 -8 4 -12s1.5 -7 1.5 -9v-226c0 -15.333 3 -31.166 9 -47.499s14 -31.5 24 -45.5s21.667 -25.5 35 -34.5s28 -13.5 44 -13.5c20.667 0 39 5 55 15s30.167 23 42.5 39s23 34.5 32 55.5
s16.333 42 22 63s9.66699 41.5 12 61.5s3.5 38 3.5 54v29.5c0 13.667 -0.833008 29 -2.5 46s-3.83398 34.5 -6.50098 52.5s-6.66699 34 -12 48s-11.833 25.167 -19.5 33.5s-17.167 11.5 -28.5 9.5l-1 1.5c-0.666992 1 -1 1.83301 -1 2.5c0 7.33301 3.16699 13 9.5 17
s12.5 6 18.5 6c8.66699 0 16.334 -3 23.001 -9s12.667 -13.5 18 -22.5s9.66602 -19.333 12.999 -31s6.16602 -23 8.49902 -34s4 -21.167 5 -30.5l2.5 -23v-12.5v-26.5v-31v-26v-19.5v-28.5v-28.5v-19.5c-6 -23.333 -14 -48.666 -24 -75.999s-22.833 -52.833 -38.5 -76.5
s-34.5 -43.334 -56.5 -59.001s-48 -23.5 -78 -23.5c-21.333 0 -41.333 5.83301 -60 17.5s-34.834 26.5 -48.501 44.5s-24.334 37.833 -32.001 59.5s-11.5 42.5 -11.5 62.5v243c0 1.33301 2.16699 4.16602 6.5 8.49902s7.83301 7.5 10.5 9.5h2l0.5 0.5
c0.333008 0.333008 0.833008 0.5 1.5 0.5z" />
    <glyph glyph-name="V" unicode="V" horiz-adv-x="436" 
d="M18 462c0 4.66699 0.666992 10.4971 2 17.4971s3.5 13.833 6.5 20.5s6.5 12.334 10.5 17.001s9 7 15 7c4 0 7.5 -0.333008 10.5 -1s5.5 -3.66699 7.5 -9c-4 -29.333 -5 -56.666 -3 -81.999s6.16699 -50.166 12.5 -74.499s14 -48.5 23 -72.5l28.5 -75
c0.666992 -0.666992 1 -2.16699 1 -4.5s-0.333008 -4.16602 -1 -5.49902l8 -15.5l13 -24c4.66699 -8.33301 9.16699 -16 13.5 -23l9.5 -15.5l11.5 -21.5c4.33301 -8.33301 9.16602 -16 14.499 -23s11.333 -13 18 -18s14 -7.5 22 -7.5c8.66699 0 16.5 3.66699 23.5 11
s13.167 16.333 18.5 27s9.83301 21.5 13.5 32.5s6.83398 19.5 9.50098 25.5c10.667 30 20 59 28 87s15 56.167 21 84.5s11.333 57.166 16 86.499s9 60 13 92l9 8c8.66699 -4 13.667 -7.66699 15 -11s2 -8 2 -14v-9c-0.666992 -6.66699 -2.16699 -18.667 -4.5 -36l-7.5 -55
c-2.66699 -19.333 -5.5 -38 -8.5 -56s-4.83301 -30.333 -5.5 -37c-1.33301 -7.33301 -3.83301 -19.666 -7.5 -36.999s-8.5 -36.833 -14.5 -58.5s-13 -43.834 -21 -66.501s-17.167 -43.334 -27.5 -62.001s-21.5 -34.167 -33.5 -46.5s-25 -18.5 -39 -18.5
c-13.333 0 -27 6.66699 -41 20s-27.667 30.5 -41 51.5s-26.5 44.167 -39.5 69.5s-24.5 50.333 -34.5 75s-18.667 47.334 -26 68.001s-12.666 36.667 -15.999 48c-0.666992 4 -2.16699 11.667 -4.5 23l-7.5 36.5l-8 37.5c-2.66699 12 -4.33398 20.667 -5.00098 26v8z" />
    <glyph glyph-name="W" unicode="W" horiz-adv-x="646" 
d="M280 262c-1.33301 -4 -3.17188 -10.9932 -5.50488 -20.9932s-5 -20.5 -8 -31.5l-8.5 -31.5c-2.66699 -10 -4.33398 -17 -5.00098 -21c-4 -10.667 -8.16699 -23.167 -12.5 -37.5s-10 -27.833 -17 -40.5s-15.667 -23.334 -26 -32.001s-22.833 -13 -37.5 -13
c-20.667 0 -38.5 5.66699 -53.5 17s-27.5 26.333 -37.5 45s-17.833 39.667 -23.5 63s-10 46.833 -13 70.5s-5 46.334 -6 68.001s-1.5 40.167 -1.5 55.5c0 9.33301 -0.5 22.166 -1.5 38.499s-0.5 32.666 1.5 48.999s6.5 30.333 13.5 42s18.167 17.5 33.5 17.5
c0 -4 -0.166992 -11.5 -0.5 -22.5s-0.666016 -22.667 -0.999023 -35s-0.5 -24 -0.5 -35v-23.5c0 -1.33301 -0.5 -4.5 -1.5 -9.5s-2 -10.5 -3 -16.5s-2 -11.5 -3 -16.5s-1.5 -8.5 -1.5 -10.5c0 -4 0.666992 -12.5 2 -25.5s3 -26.833 5 -41.5s3.83301 -28.834 5.5 -42.501
s3.16699 -23.5 4.5 -29.5c1.33301 -9.33301 4 -20.5 8 -33.5s9.33301 -25.5 16 -37.5s14.5 -22.333 23.5 -31s19.833 -13 32.5 -13c15.333 0 27.333 7.66699 36 23s15.5 34.166 20.5 56.499s9 47 12 74s6.33301 51.667 10 74s8.33398 41.166 14.001 56.499
s13.834 23 24.501 23h5l4 -4l4 -4c10 -30 21.667 -60.5 35 -91.5s28.5 -61.167 45.5 -90.5s36.167 -56.833 57.5 -82.5s45.333 -48.5 72 -68.5h6h7c12 0 20.5 4.5 25.5 13.5s9.5 19.5 13.5 31.5l6.5 25c3 11.333 5.83301 23 8.5 35l7.5 33c2.33301 10 3.5 16.333 3.5 19
v12.5c0 7.66699 0.166992 16.5 0.5 26.5s0.5 20.333 0.5 31v25v30c0 12 -0.166992 24.167 -0.5 36.5s-0.5 23.166 -0.5 32.499v16c-0.666992 14.667 -1.5 26.167 -2.5 34.5s-3 15.5 -6 21.5s-7.33301 11.333 -13 16s-13.167 10 -22.5 16v3c0 8.66699 1 16.167 3 22.5
s7.66699 9.5 17 9.5c12.667 0 22.167 -2.66699 28.5 -8s10.833 -14.333 13.5 -27c0.666992 -6.66699 1.83398 -15.5 3.50098 -26.5s3.33398 -23.167 5.00098 -36.5s3.5 -26.833 5.5 -40.5l5.5 -39c1.66699 -12.333 3 -23 4 -32s1.5 -14.833 1.5 -17.5v-8
c0 -4 0.166992 -8.5 0.5 -13.5s0.5 -10 0.5 -15v-12.5c0 -10 -0.666992 -23.333 -2 -40s-3.5 -34.5 -6.5 -53.5s-7 -38.333 -12 -58s-11.667 -37.334 -20 -53.001s-18.166 -28.5 -29.499 -38.5s-24.333 -15 -39 -15c-2 0 -5.83301 0.166992 -11.5 0.5s-9.5 0.5 -11.5 0.5
c-24 22.667 -44.667 43.5 -62 62.5s-33.333 38.5 -48 58.5s-29 41.167 -43 63.5l-47 77.5h-8z" />
    <glyph glyph-name="X" unicode="X" 
d="M356 169c0 18 1.83301 36.0078 5.5 54.0078s7.83398 35.5 12.501 52.5s8.83398 34.167 12.501 51.5s5.5 34.666 5.5 51.999v13c-8.66699 -10.667 -18 -25.334 -28 -44.001s-20.167 -39 -30.5 -61l-33 -67c-11.667 -22.667 -23.834 -43.334 -36.501 -62.001
s-25.667 -33.834 -39 -45.501s-27.333 -17.5 -42 -17.5c-8.66699 0 -14 2.5 -16 7.5s-3 11.167 -3 18.5c0 24 5 46.5 15 67.5s22.5 40.833 37.5 59.5s31.333 36.167 49 52.5s33.834 32.5 48.501 48.5c0 2 0.166992 5.5 0.5 10.5s0.5 8.83301 0.5 11.5
c0 19.333 -3.16699 37.5 -9.5 54.5s-15.166 31.5 -26.499 43.5s-25.166 21.5 -41.499 28.5s-34.833 10.5 -55.5 10.5c-16.667 0 -33 -3.83301 -49 -11.5s-31.167 -16 -45.5 -25l-39 -24.5c-11.667 -7.33301 -20.5 -11 -26.5 -11s-10 2 -12 6s-3 8 -3 12
c0 14 7.66699 26.667 23 38s33.333 21.333 54 30s41.167 15.5 61.5 20.5s35.833 7.5 46.5 7.5c29.333 0 52.166 -4.33301 68.499 -13s29.666 -20 39.999 -34s19.333 -29.667 27 -47s17.834 -35.333 30.501 -54c0 -0.666992 0.333008 -1 1 -1h2c10 0 18.667 3 26 9
s14 13.667 20 23s11.333 19.166 16 29.499s9.5 20.166 14.5 29.499s10.167 17 15.5 23s11.333 9 18 9c4.66699 0 8.66699 -1 12 -3s5 -5.33301 5 -10v-5c-8.66699 -26.667 -18.5 -52.834 -29.5 -78.501s-21.5 -51.667 -31.5 -78s-18.5 -53 -25.5 -80
s-10.5 -54.5 -10.5 -82.5c0 -22 1.83301 -41 5.5 -57s9.16699 -30.5 16.5 -43.5s17.166 -25 29.499 -36s27.5 -21.833 45.5 -32.5v-22c-24 0 -44.333 5.5 -61 16.5s-30.334 24.833 -41.001 41.5s-18.334 35.167 -23.001 55.5s-7 40.166 -7 59.499zM270 253.008
c-8.66699 -5.33301 -15.833 -13.1689 -21.5 -23.502s-10.167 -20.166 -13.5 -29.499c8 6.66699 14.833 14.834 20.5 24.501s10.5 19.167 14.5 28.5z" />
    <glyph glyph-name="Y" unicode="Y" horiz-adv-x="445" 
d="M244 -45c0 17.333 1.33301 34.666 4 51.999s5.66699 34.5 9 51.5s6.5 34 9.5 51s4.5 34.167 4.5 51.5v5c-36 6.66699 -69.5 16.834 -100.5 30.501s-57.833 31.5 -80.5 53.5s-40.5 48.167 -53.5 78.5s-19.5 65.833 -19.5 106.5c0 6 -0.166992 14.167 -0.5 24.5
s0.5 20.166 2.5 29.499s5.5 17.5 10.5 24.5s12.5 10.5 22.5 10.5c9.33301 0 16.166 -1 20.499 -3s6.5 -8 6.5 -18c0 -8.66699 -1 -17 -3 -25l-6 -23.5l-6 -24c-2 -8.33301 -3 -16.5 -3 -24.5c0 -24 5 -47.5 15 -70.5s23.5 -43.167 40.5 -60.5s36.5 -31.333 58.5 -42
s45 -16 69 -16h7.5c3 0 6.5 0.166992 10.5 0.5s7.5 0.5 10.5 0.5h7.5c12 8 21.5 21.833 28.5 41.5s12.833 41.667 17.5 66s8.66699 49.833 12 76.5s7.66602 50.834 12.999 72.501s11.833 39.667 19.5 54s18.167 21.5 31.5 21.5c0.666992 0 2 -1.16699 4 -3.5
s3.33301 -4.16602 4 -5.49902c0.666992 -0.666992 1.33398 -3.16699 2.00098 -7.5s1.33398 -9.33301 2.00098 -15s1.5 -11.334 2.5 -17.001s1.83301 -10.167 2.5 -13.5v-4c0 -32 -3.5 -63.167 -10.5 -93.5s-15.667 -60 -26 -89s-21.5 -57.667 -33.5 -86
s-23.167 -57 -33.5 -86s-19 -58.5 -26 -88.5s-10.5 -61.333 -10.5 -94c0 -24 1.83301 -47.5 5.5 -70.5s5.5 -46.5 5.5 -70.5c-8.66699 0 -16 3 -22 9s-10.667 13.667 -14 23s-5.83301 19.833 -7.5 31.5s-2.66699 23 -3 34s-0.333008 21.167 0 30.5s0.5 16.333 0.5 21z" />
    <glyph glyph-name="Z" unicode="Z" horiz-adv-x="619" 
d="M175 83c0 24 6.99414 48.335 20.9941 73.002s31.833 49.5 53.5 74.5s44.834 50.167 69.501 75.5s47.834 51.166 69.501 77.499s39.5 52.833 53.5 79.5s21 53.667 21 81c0 19.333 -5 34.166 -15 44.499s-22.5 17.666 -37.5 21.999s-31.167 6.83301 -48.5 7.5
s-33.333 1 -48 1c-12 0 -25.167 -0.333008 -39.5 -1s-28.833 -2 -43.5 -4s-29.167 -4.66699 -43.5 -8s-27.5 -7.33301 -39.5 -12c-1.33301 -1.33301 -4.5 -3.33301 -9.5 -6l-16.5 -8.5l-16.5 -8c-5 -2.33301 -8.16699 -3.5 -9.5 -3.5
c-0.666992 -0.666992 -2.33398 -1.16699 -5.00098 -1.5s-5.83398 -0.666016 -9.50098 -0.999023s-7.5 -0.5 -11.5 -0.5h-9h-7c-3.33301 0 -6.83301 0.166992 -10.5 0.5l-10.5 1c-3.33301 0.333008 -5.66602 0.833008 -6.99902 1.5
c-4.66699 1.33301 -7.33398 3.5 -8.00098 6.5s-1 6.16699 -1 9.5c0 9.33301 6.66699 17.5 20 24.5s30.333 13 51 18s43.5 9.33301 68.5 13s49.333 6.66699 73 9s44.667 4 63 5s31.5 1.5 39.5 1.5c20.667 0 41.334 -1.66699 62.001 -5s39.334 -9.33301 56.001 -18
s30.334 -20.667 41.001 -36s16 -35.333 16 -60c0 -28.667 -7.16699 -56.334 -21.5 -83.001s-32.166 -52.667 -53.499 -78s-44.666 -50.5 -69.999 -75.5s-48.833 -49.5 -70.5 -73.5s-39.5 -47.833 -53.5 -71.5s-21 -47.5 -21 -71.5c0 -8.66699 0.5 -16.5 1.5 -23.5
s6.5 -12.5 16.5 -16.5h7h9h9.5h5.5c11.333 0 21 0.333008 29 1s15.5 1.83398 22.5 3.50098s15 4.33398 24 8.00098l34.5 14.5c4 2 11 5.16699 21 9.5l34.5 15l40 18l39.5 18c12.667 5.66699 24 11 34 16s17.667 8.5 23 10.5h36c0 -4 -0.833008 -7.5 -2.5 -10.5
s-4.16699 -5.5 -7.5 -7.5l-271 -131c-0.666992 0 -3.16699 -0.333008 -7.5 -1s-9.33301 -1.5 -15 -2.5s-11.167 -1.83301 -16.5 -2.5s-9.66602 -1.33398 -12.999 -2.00098h-14c-25.333 -0 -45.333 7.33301 -60 22s-22 35 -22 61z" />
    <glyph glyph-name="bracketleft" unicode="[" horiz-adv-x="628" 
d="M70 498c6 4 16.0029 10.3389 30.0029 19.0059l48 29l56.5 34.5l56 34.5l48 29.5l31.5 19.5c2 0.666992 5 2 9 4l11.5 5.5c3.66699 1.66699 6.83398 3.16699 9.50098 4.5s4.66699 2 6 2c8 1.33301 13 0.166016 15 -3.50098s3 -7.83398 3 -12.501
c0 -11.333 -7.33301 -23.5 -22 -36.5s-33 -26.167 -55 -39.5s-46.167 -26.5 -72.5 -39.5l-74 -37.5c-23 -12 -43 -23 -60 -33s-27.5 -18 -31.5 -24c-2 -4 -4.16699 -11.5 -6.5 -22.5l-7.5 -34.5c-2.66699 -12 -5.33398 -23.333 -8.00098 -34
s-4.33398 -18.334 -5.00098 -23.001v-19v-51.5c0 -19 1 -38.333 3 -58s5 -38.667 9 -57s10.333 -35.333 19 -51s19.667 -28.667 33 -39s30 -17.5 50 -21.5h19c9.33301 0 19 -0.166992 29 -0.5s19.5 -0.5 28.5 -0.5h19.5c28 0 55.667 2.33301 83 7s54.333 10 81 16
s53.5 11.333 80.5 16s54.5 7 82.5 7h11h11c-9.33301 -12 -22.833 -22.667 -40.5 -32s-37.834 -17.333 -60.501 -24s-46.667 -12 -72 -16s-50.166 -7.33301 -74.499 -10s-47.333 -4.5 -69 -5.5s-39.5 -1.5 -53.5 -1.5h-20.5c-9.66699 0 -19.834 0.166992 -30.501 0.5
s-20.834 0.5 -30.501 0.5h-20.5c-20 3.33301 -37.667 11 -53 23s-28 26.5 -38 43.5s-17.5 35.833 -22.5 56.5s-7.5 41 -7.5 61v270c0 8 1.33301 14.667 4 20s6.5 9.66602 11.5 12.999s10.5 5.66602 16.5 6.99902s12.667 2.66602 20 3.99902z" />
    <glyph glyph-name="backslash" unicode="\" horiz-adv-x="270" 
d="M248 61c5.33301 -9.33301 10.499 -20.499 15.499 -33.499s7.5 -24.833 7.5 -35.5c-10.667 0 -20.167 4.5 -28.5 13.5s-15.666 19.5 -21.999 31.5s-11.5 24.167 -15.5 36.5s-7 22.166 -9 29.499l-108 343l-111 342v5c0 6 3.83301 11.167 11.5 15.5s14.834 6.5 21.501 6.5
c1.33301 0 3.16602 -0.166992 5.49902 -0.5s3.5 -0.833008 3.5 -1.5z" />
    <glyph glyph-name="bracketright" unicode="]" horiz-adv-x="602" 
d="M4 90c2 0 5.8291 -0.331055 11.4961 -0.998047s9.16699 -1 10.5 -1c28 -8 53.833 -14.833 77.5 -20.5s47.167 -10.334 70.5 -14.001s47.333 -6.33398 72 -8.00098s51.667 -2.5 81 -2.5h21.5h33h33h21.5c10.667 2 20.834 3.66699 30.501 5s18 3.5 25 6.5
s12.667 7.66699 17 14s6.5 15.166 6.5 26.499c0 13.333 -0.5 25.833 -1.5 37.5s-2.16699 23.334 -3.5 35.001s-3.16602 23.834 -5.49902 36.501l-7.5 40v366c0 1.33301 -1.16699 3.16602 -3.5 5.49902s-4.16602 3.5 -5.49902 3.5c-30 10 -61.667 15.667 -95 17
s-65.666 2 -96.999 2c-32.667 0 -65.167 -1.66699 -97.5 -5s-65.166 -5 -98.499 -5h-8.5h-11.5h-11.5h-7.5c-2 1.33301 -5.33301 4.16602 -10 8.49902s-7.33398 7.5 -8.00098 9.5c-0.666992 0 -1 0.333008 -1 1v3c0 7.33301 2.16699 12.5 6.5 15.5s9.5 5 15.5 6
s12 1.33301 18 1s10.667 -0.5 14 -0.5s10.833 0.166992 22.5 0.5s25.334 1 41.001 2s32.167 1.66699 49.5 2s33.833 0.833008 49.5 1.5s29.167 1.16699 40.5 1.5s19 0.5 23 0.5c3.33301 0 10.5 -0.333008 21.5 -1s22.833 -1.66699 35.5 -3s24.667 -2.33301 36 -3
s18.333 -1 21 -1c4.66699 0 12.334 -0.166992 23.001 -0.5s22 -0.5 34 -0.5s23.5 0.166992 34.5 0.5s18.5 0.5 22.5 0.5c2.66699 -0.666992 4.66699 -2.16699 6 -4.5s2.16602 -4.66602 2.49902 -6.99902s0.5 -4.83301 0.5 -7.5v-7c0 -25.333 -1 -50.666 -3 -75.999
s-4.16699 -50.833 -6.5 -76.5s-4.5 -51.334 -6.5 -77.001s-3 -51.167 -3 -76.5v-33c0 -13.333 0.166992 -26.5 0.5 -39.5s0.5 -24.333 0.5 -34v-15.5c0 -3.33301 1.33301 -11.833 4 -25.5l8.5 -44.5l8.5 -44.5l5 -25.5c0 -1.33301 0.166992 -4.16602 0.5 -8.49902
s0.5 -7.83301 0.5 -10.5c0 -15.333 -6 -27 -18 -35s-26 -13.833 -42 -17.5s-32.5 -5.83398 -49.5 -6.50098s-30.5 -1 -40.5 -1h-12.5c-5.66699 0 -11.334 0.166992 -17.001 0.5s-10.667 0.5 -15 0.5h-7.5c-5.33301 0.666992 -16.5 1.66699 -33.5 3
s-35.167 2.83301 -54.5 4.5s-38 3.5 -56 5.5s-31 3.66699 -39 5c-3.33301 0.666992 -10.333 2.16699 -21 4.5s-22.5 5.33301 -35.5 9s-26.667 8 -41 13s-27.5 10 -39.5 15s-22 10.167 -30 15.5s-12 10.333 -12 15z" />
    <glyph glyph-name="asciicircum" unicode="^" horiz-adv-x="402" 
d="M216 622c-1.33301 0 -3.50098 -2 -6.50098 -6l-10.5 -13.5c-4 -5 -7.5 -9.66699 -10.5 -14s-4.5 -6.83301 -4.5 -7.5c-17.333 -20.667 -30.5 -34.5 -39.5 -41.5s-14.833 -9.33301 -17.5 -7s-3 8.16602 -1 17.499s5.5 20.166 10.5 32.499s10.833 25.333 17.5 39
s13.167 25.834 19.5 36.501s12 18.834 17 24.501s8.16699 6.5 9.5 2.5c3.33301 6 8 10.5 14 13.5s11.667 4.5 17 4.5h4l18 -45c4 -10 7 -17.167 9 -21.5s4 -7.33301 6 -9s4 -5 6 -10l9.5 -24c4.33301 -11 10.5 -27.5 18.5 -49.5c-10 -10 -18.167 -16.5 -24.5 -19.5
s-11.666 -3.33301 -15.999 -1s-8 6.83301 -11 13.5s-6 14.667 -9 24s-6.5 19.333 -10.5 30s-9 21 -15 31z" />
    <glyph glyph-name="underscore" unicode="_" horiz-adv-x="942" 
d="M8 8c4.66699 7.33301 10.167 14.5 16.5 21.5s13.166 13 20.499 18s15.333 8.83301 24 11.5s17.667 3.33398 27 2.00098c45.333 2 89.5 4.33301 132.5 7s85.5 5.66699 127.5 9s84 7 126 11s84.667 9.33301 128 16c22 3.33301 44.667 7.5 68 12.5l70.5 14.5
c23.667 4.66699 47 8.66699 70 12s45.5 5 67.5 5c2 0 5 -0.666992 9 -2s7.83301 -3.33301 11.5 -6s6.66699 -5.5 9 -8.5s2.5 -6.16699 0.5 -9.5c-3.33301 -8.66699 -8.33301 -15.334 -15 -20.001s-14.167 -7.66699 -22.5 -9s-16.833 -1.66602 -25.5 -0.999023
s-16.667 2 -24 4l-524 -62h-35c-8.66699 0 -20.167 -0.5 -34.5 -1.5l-42 -3c-13.667 -1 -25.834 -1.83301 -36.501 -2.5s-16.667 -1 -18 -1l-18 -4.5c-9.33301 -2.33301 -19.333 -5 -30 -8l-30.5 -8.5c-9.66699 -2.66699 -15.5 -4.33398 -17.5 -5.00098
c-0.666992 -0 -2 -0.166992 -4 -0.5s-3.66699 -0.5 -5 -0.5c-5.33301 0 -9.66602 0.5 -12.999 1.5s-7.66602 3.5 -12.999 7.5z" />
    <glyph glyph-name="grave" unicode="`" horiz-adv-x="145" 
d="M53 571l-18.5 16.501c-7.66699 7 -14.667 14.667 -21 23s-10.666 16.666 -12.999 24.999s-0.166016 15.5 6.50098 21.5c5.33301 4.66699 9.66602 7 12.999 7s7.66602 -2 12.999 -6c6.66699 -7.33301 14.834 -15.833 24.501 -25.5s16.5 -19.5 20.5 -29.5l43 -62
c-6 -6.66699 -12.333 -9.5 -19 -8.5s-12.834 3.66699 -18.501 8s-11.167 9.5 -16.5 15.5s-10 11 -14 15z" />
    <glyph glyph-name="a" unicode="a" horiz-adv-x="458" 
d="M244 122c-10 -12 -21.5039 -24.6689 -34.5039 -38.002s-27 -25.666 -42 -36.999s-30.667 -20.833 -47 -28.5s-33.166 -11.5 -50.499 -11.5c-35.333 0 -53 17 -53 51c0 14 5.83301 32.5 17.5 55.5s26.834 47.167 45.501 72.5s39.334 49.833 62.001 73.5
s45.334 43.334 68.001 59.001s43.5 25.5 62.5 29.5s34.5 -1.66699 46.5 -17c0 -18 -1.33301 -36 -4 -54l-8 -53.5l-8 -52.5c-2.66699 -17.333 -4 -35 -4 -53c0 -4 0.5 -10.167 1.5 -18.5s2.66699 -16.666 5 -24.999s5.5 -15.666 9.5 -21.999s9.33301 -9.5 16 -9.5
c16 0 29.167 2 39.5 6s19.333 8.83301 27 14.5s14.334 12.167 20.001 19.5s11.667 14.666 18 21.999s13.5 14.333 21.5 21s18.333 12 31 16v-3v-5c0 -16.667 -5 -33.167 -15 -49.5s-22.667 -30.833 -38 -43.5s-32.5 -22.834 -51.5 -30.501s-37.5 -11.5 -55.5 -11.5
c-15.333 0 -27.666 4.33301 -36.999 13s-16.833 19 -22.5 31s-9.83398 25.167 -12.501 39.5s-5.33398 27.5 -8.00098 39.5zM261.996 252.998c6.66699 22 9.1709 37.0029 7.50391 45.0029s-6.5 11.167 -14.5 9.5s-18.333 -7.33398 -31 -17.001
s-26.334 -21.334 -41.001 -35.001s-29.334 -28.834 -44.001 -45.501l-41 -47.5c-12.667 -15 -23 -28.5 -31 -40.5s-13 -20.667 -15 -26c-4 -15.333 -4.5 -27 -1.5 -35s7.66699 -13.5 14 -16.5s13.333 -3.5 21 -1.5s14.167 5 19.5 9c11.333 10 25.666 23.5 42.999 40.5
s34.166 35.167 50.499 54.5s30.5 38.5 42.5 57.5s19 35.167 21 48.5z" />
    <glyph glyph-name="b" unicode="b" horiz-adv-x="334" 
d="M37 8c-5.33301 5.33301 -8.34082 10.3311 -9.00781 14.998s-1 10 -1 16c0 2 0.166992 4.66699 0.5 8l0.5 5l17.5 92c5.66699 28.667 10.5 56.834 14.5 84.501s7 55.834 9 84.501s3 59.667 3 93v22.5c0 11 -0.166992 23 -0.5 36s-0.5 25 -0.5 36v22.5
c-0.666992 6 -3.5 9.16699 -8.5 9.5s-9.16699 0.5 -12.5 0.5c-10 0 -18.5 -0.5 -25.5 -1.5s-13.167 -2.66699 -18.5 -5s-10.166 -5.5 -14.499 -9.5l-14.5 -14c-2 0 -5.16699 -0.166992 -9.5 -0.5s-7.16602 -0.5 -8.49902 -0.5c-5.33301 0 -11.166 0.5 -17.499 1.5
s-9.5 5.16699 -9.5 12.5c0 0.666992 0.166992 1.5 0.5 2.5l0.5 1.5c10 12.667 19.5 23.334 28.5 32.001s18.5 15.334 28.5 20.001s21.333 8 34 10s27.334 3 44.001 3c11.333 0 20.166 -2.66699 26.499 -8s11 -12.166 14 -20.499s4.83301 -17.666 5.5 -27.999
s1 -20.5 1 -30.5v-21.5v-32.5c0 -12 -0.166992 -24.667 -0.5 -38s-0.666016 -26 -0.999023 -38s-0.666016 -22.833 -0.999023 -32.5s-0.5 -16.834 -0.5 -21.501h12c2 2.66699 6.33301 7.33398 13 14.001s14.167 13.667 22.5 21s17 13.666 26 18.999s17.5 8 25.5 8
c10.667 0 20.834 -4.16699 30.501 -12.5s18.334 -19.333 26.001 -33s14.667 -28.834 21 -45.501s11.5 -33 15.5 -49s7.16699 -30.667 9.5 -44s3.5 -24 3.5 -32c0 -22 -6 -42.667 -18 -62s-27.167 -36.333 -45.5 -51s-38.666 -26.334 -60.999 -35.001s-43.5 -13 -63.5 -13
c-8.66699 0 -16.5 0.166992 -23.5 0.5l-21 1c-7 0.333008 -14.333 1.16602 -22 2.49902s-16.167 3 -25.5 5zM201.992 330.998c-20 -17.333 -37.668 -37.8311 -53.001 -61.498s-28.333 -48.834 -39 -75.501s-18.5 -54 -23.5 -82s-7.5 -55 -7.5 -81
c18.667 0 39.334 2.33301 62.001 7s43.834 12.167 63.501 22.5s36.167 24 49.5 41s20 38.167 20 63.5c0 13.333 -1.33301 28.166 -4 44.499s-6.83398 32.333 -12.501 48s-13 30.167 -22 43.5s-20.167 23.333 -33.5 30z" />
    <glyph glyph-name="c" unicode="c" horiz-adv-x="260" 
d="M17 100c0 5.33301 0.833984 16 2.50098 32s4 34.167 7 54.5s6.83301 41.666 11.5 63.999s10.5 42.833 17.5 61.5s14.833 34 23.5 46s18.667 18 30 18c14 0 25 -5.33301 33 -16s14.167 -23.167 18.5 -37.5s7.33301 -29 9 -44s2.5 -26.833 2.5 -35.5
c-14 0 -23 2.33301 -27 7s-6.83301 10.334 -8.5 17.001s-3.5 13.5 -5.5 20.5s-7.66699 13.167 -17 18.5c-15.333 -9.33301 -27 -22.5 -35 -39.5s-14.167 -35.5 -18.5 -55.5s-6.83301 -39.667 -7.5 -59s-1 -36.666 -1 -51.999c0 -18.667 3.5 -34.334 10.5 -47.001
s21.167 -19 42.5 -19c16.667 0 32.667 3.33301 48 10s30 15.167 44 25.5s27.167 21.666 39.5 33.999l34.5 35.5h19l-0.5 -3.5c-0.333008 -2.33301 -0.833008 -4.16602 -1.5 -5.49902c-9.33301 -19.333 -21 -37 -35 -53s-29.333 -29.667 -46 -41s-34.834 -20.333 -54.501 -27
s-40.167 -10 -61.5 -10c-15.333 0 -27.833 2.5 -37.5 7.5s-17.167 12 -22.5 21s-9 19.667 -11 32s-3 25.833 -3 40.5z" />
    <glyph glyph-name="d" unicode="d" horiz-adv-x="322" 
d="M78 61c-12.667 0 -23.3291 4.00195 -31.9961 12.002s-15.834 17.667 -21.501 29s-10 23.333 -13 36s-4.5 23.667 -4.5 33c0 20.667 3.83301 42.167 11.5 64.5s18 43.5 31 63.5s28 38.167 45 54.5s34.833 29.166 53.5 38.499c8 4 15.167 6.16699 21.5 6.5
s11.833 0.666016 16.5 0.999023s8.16699 2.33301 10.5 6s3.5 10.834 3.5 21.501v167c0 5.33301 3 10.833 9 16.5s11.667 8.5 17 8.5c3.33301 0 6.16602 -1.5 8.49902 -4.5s4.16602 -6.5 5.49902 -10.5s2.33301 -8.33301 3 -13s1 -8 1 -10c0 -75.333 -1 -149.5 -3 -222.5
s-3 -148.167 -3 -225.5c5.33301 0 10.666 1 15.999 3s11 4.33301 17 7l17.5 8c5.66699 2.66699 11.167 4.66699 16.5 6c0 -0.666992 0.166992 -2 0.5 -4s0.5 -3.66699 0.5 -5c0 -9.33301 -3.16699 -16.833 -9.5 -22.5s-13.666 -10.834 -21.999 -15.501l-24 -14
c-7.66699 -4.66699 -12.834 -10.667 -15.501 -18c-0.666992 -1.33301 -1.33398 -6 -2.00098 -14s-2 -17 -4 -27s-5 -18.833 -9 -26.5s-9 -11.5 -15 -11.5c-9.33301 0 -15.5 2.66699 -18.5 8s-4.16699 11.666 -3.5 18.999s1.83398 14.333 3.50098 21s2.5 11.334 2.5 14.001
h-111zM42.0049 171.002c0 -22 7.00098 -40.1641 21.001 -54.4971s32 -21.5 54 -21.5h16.5c6.33301 0 12.833 0.5 19.5 1.5s12.667 2.83301 18 5.5s9.33301 6.66699 12 12c-1.33301 18 -1.5 35.167 -0.5 51.5s2.16699 32.666 3.5 48.999l4 49c1.33301 16.333 2 33.5 2 51.5
c0 8 -1.5 14.333 -4.5 19s-8.83301 7 -17.5 7c-18 0 -34.833 -5.83301 -50.5 -17.5s-29.334 -26.334 -41.001 -44.001s-20.667 -36.334 -27 -56.001s-9.5 -37.167 -9.5 -52.5z" />
    <glyph glyph-name="e" unicode="e" horiz-adv-x="358" 
d="M26 125c-4.66699 -2.66699 -8.32617 -3.33203 -10.9932 -1.99902s-4.5 3.33301 -5.5 6s-1.66699 5.83398 -2 9.50098s-0.5 6.16699 -0.5 7.5c0 13.333 1.66699 21.5 5 24.5s7.66602 5 12.999 6s11 2.5 17 4.5s11.667 8.33301 17 19c8 16.667 15.167 34.167 21.5 52.5
s14.166 35.5 23.499 51.5s21.166 29 35.499 39s34.166 15 59.499 15c4 0 8.5 -0.333008 13.5 -1s9.66699 -1.83398 14 -3.50098s8 -4.33398 11 -8.00098s4.5 -8.5 4.5 -14.5c0 -14 -3.5 -26.5 -10.5 -37.5s-15.667 -21 -26 -30s-21.5 -17.5 -33.5 -25.5s-23 -15.667 -33 -23
s-18.5 -15 -25.5 -23s-10.5 -16.667 -10.5 -26v-96c0 -7.33301 2.83301 -13.166 8.5 -17.499s12.167 -7.83301 19.5 -10.5s15 -4.66699 23 -6s14 -2 18 -2c16 0 32 2.83301 48 8.5s31.5 12.834 46.5 21.501s29.167 18.167 42.5 28.5l38 29.5
c4 3.33301 7.5 6.83301 10.5 10.5l9 10.5c3 3.33301 6.33301 6.16602 10 8.49902s8.5 4.16602 14.5 5.49902v-4v-5c0 -5.33301 -0.5 -10 -1.5 -14s-3.5 -8 -7.5 -12c-14.667 -16.667 -30.334 -32.334 -47.001 -47.001s-34.334 -27.667 -53.001 -39
s-38.334 -20.333 -59.001 -27s-42.667 -10 -66 -10s-41.333 3.33301 -54 10s-22.5 16.334 -29.5 29.001s-11.833 27.667 -14.5 45l-9 56zM155.008 280.002c0 1.33301 -1.16699 1.16797 -3.5 -0.499023s-5 -3.83398 -8 -6.50098s-5.16699 -5.16699 -6.5 -7.5
s-1.33301 -3.5 0 -3.5c3.33301 -0.666992 7.33301 1.33301 12 6s6.66699 8.66699 6 12z" />
    <glyph glyph-name="f" unicode="f" horiz-adv-x="450" 
d="M49 -232c0 22.667 0.999023 46.0039 2.99902 70.0039s4.5 48.167 7.5 72.5s6.66699 48.5 11 72.5s8.83301 47 13.5 69l-61 -60l-1 -1c-0.666992 -0.666992 -1.66699 -1 -3 -1s-2.33301 0.333008 -3 1l-2 1c-0.666992 0 -2.16699 1.33301 -4.5 4s-3.83301 4 -4.5 4
s-2.66699 -0.333008 -6 -1s-7 -1.5 -11 -2.5l-11.5 -3l-5.5 -1.5h-5c-4 0 -6.83301 0.833008 -8.5 2.5s-2.83398 3.83398 -3.50098 6.50098s-1 5.66699 -1 9v9c0 6.66699 0.5 13 1.5 19s6.5 10.667 16.5 14h5.5h11.5h11h6c8.66699 2 19.834 8.5 33.501 19.5
s26.834 24 39.501 39s23.167 30.667 31.5 47s11.5 30.5 9.5 42.5c2 8 5.83301 21.833 11.5 41.5l18 63.5l18.5 63.5c6 19.667 10.333 33.5 13 41.5l7.5 19.5c3.66699 9.66699 8.16699 19.667 13.5 30s11.833 19.5 19.5 27.5s16.167 12 25.5 12c6 0 10.5 -1.66699 13.5 -5
s5.16699 -7.33301 6.5 -12s2 -9.66699 2 -15v-13v-14c0 -6.66699 -0.333008 -11 -1 -13c-2.66699 -7.33301 -7.16699 -20.666 -13.5 -39.999l-20.5 -60.5l-21 -60c-6.66699 -19 -11.667 -32.5 -15 -40.5c-0.666992 -2 -2.16699 -5.33301 -4.5 -10l-7.5 -15.5
c-2.66699 -5.66699 -5.5 -11 -8.5 -16s-4.83301 -8.5 -5.5 -10.5h4h5c2.66699 0.666992 8.5 2.83398 17.5 6.50098s19 7.5 30 11.5l30.5 11c9.33301 3.33301 15.333 5.66602 18 6.99902c0.666992 0 3.5 0.166992 8.5 0.5s8.83301 0.5 11.5 0.5
c24 0 44.833 -4.83301 62.5 -14.5s32 -22.334 43 -38.001s19.167 -33.834 24.5 -54.501s8 -42 8 -64c0 -8.66699 -0.666992 -20.834 -2 -36.501s-3.5 -33.334 -6.5 -53.001s-6.5 -40 -10.5 -61s-8.66699 -40.833 -14 -59.5s-11.333 -35.5 -18 -50.5
s-13.334 -26.167 -20.001 -33.5l-104 -104c-6 -6 -13.333 -10.833 -22 -14.5s-17.5 -6.33398 -26.5 -8.00098s-18.167 -2.83398 -27.5 -3.50098s-17.666 -1 -24.999 -1c-22.667 0 -41 4.16699 -55 12.5s-25 19.5 -33 33.5s-13.5 30.167 -16.5 48.5s-4.5 37.833 -4.5 58.5z
M82.999 -223.996c0 -16.667 0.333984 -32.668 1.00098 -48.001s3.5 -28.666 8.5 -39.999s13 -20.5 24 -27.5s26.5 -10.5 46.5 -10.5c28 0 53.333 6.16699 76 18.5s42.667 28.833 60 49.5s32.333 44.167 45 70.5s23.167 53.5 31.5 81.5s14.333 55.667 18 83s5.5 52 5.5 74
c0 17.333 -0.833008 34.833 -2.5 52.5s-5.83398 33.5 -12.501 47.5s-16.167 25.5 -28.5 34.5s-28.833 13.5 -49.5 13.5c-34.667 0 -64.167 -6.33301 -88.5 -19s-44.833 -29.334 -61.5 -50.001s-29.667 -44.667 -39 -72s-16.5 -55.666 -21.5 -84.999s-8.33301 -59 -10 -89
s-2.5 -58 -2.5 -84zM206 376.003c-1.33301 0 -3.33398 -2.83301 -6.00098 -8.5s-5.16699 -12.667 -7.5 -21l-7.5 -27c-2.66699 -9.66699 -4.66699 -18.667 -6 -27s-2.16602 -15.166 -2.49902 -20.499s0.166992 -8 1.5 -8c2 0 4 2.66699 6 8s4.33301 12.166 7 20.499
s5.16699 17.333 7.5 27s4.33301 18.667 6 27s2.66699 15.333 3 21s-0.166992 8.5 -1.5 8.5z" />
    <glyph glyph-name="g" unicode="g" horiz-adv-x="306" 
d="M-27 -170c0 7.33301 0.169922 15.333 0.50293 24s1.33301 17.334 3 26.001s4.16699 16.667 7.5 24s8.66602 13.333 15.999 18c0 -5.33301 0.333008 -14.666 1 -27.999s1.5 -27.333 2.5 -42s1.83301 -28.834 2.5 -42.501s1.33398 -22.834 2.00098 -27.501
c1.33301 -14 4.83301 -28.5 10.5 -43.5s12 -30 19 -45s14.167 -29.333 21.5 -43l19 -34.5c4.66699 -7.33301 11.334 -12.333 20.001 -15s17 -4 25 -4c14.667 0 27.834 5.83301 39.501 17.5s21.834 26.5 30.501 44.5s16.334 38 23.001 60s12 43.5 16 64.5s7 40 9 57
s3 29.5 3 37.5v11c0 6.66699 0.166992 14.5 0.5 23.5s0.5 18 0.5 27v21.5c0 31.333 -0.5 62.833 -1.5 94.5s-6.5 62.5 -16.5 92.5c-0.666992 0 -1.5 0.166992 -2.5 0.5l-1.5 0.5c-4.66699 0 -12.334 -4.66699 -23.001 -14s-23.334 -19.5 -38.001 -30.5
s-30.334 -21 -47.001 -30s-33.667 -13.5 -51 -13.5c-11.333 0 -20.166 2.33301 -26.499 7s-11 10.667 -14 18s-4.83301 15.5 -5.5 24.5s-1 17.833 -1 26.5c0 20.667 4.66699 42.834 14 66.501s21.666 45.834 36.999 66.501s33.333 37.667 54 51s42.334 20 65.001 20
c8.66699 0 16.334 -1.66699 23.001 -5s13.667 -5 21 -5c4 0 7.16699 1 9.5 3s4.66602 4.16699 6.99902 6.5s4.83301 4.5 7.5 6.5s6 3 10 3c12 0 18.833 -2.66699 20.5 -8s2.5 -13.666 2.5 -24.999c0 -40.667 -0.666992 -80.834 -2 -120.501l-4 -119
c-1.33301 -39.667 -2.33301 -79.667 -3 -120s-0.333984 -81.5 0.999023 -123.5c-2.66699 -10.667 -5.83398 -25 -9.50098 -43s-8.33398 -37 -14.001 -57s-12.5 -40 -20.5 -60s-17.167 -38.333 -27.5 -55s-22.333 -30.167 -36 -40.5s-28.834 -15.5 -45.501 -15.5
c-16 0 -31 4.83301 -45 14.5s-26.833 22.167 -38.5 37.5s-21.834 32.666 -30.501 51.999s-16 38.833 -22 58.5s-10.5 38.667 -13.5 57s-4.5 34.166 -4.5 47.499zM52.0029 130c0 -12 1.50098 -19.499 4.50098 -22.499s10.5 -4.5 22.5 -4.5c14 0 29.5 4.66699 46.5 14
s33.167 21 48.5 35s28.166 29.167 38.499 45.5s15.5 31.5 15.5 45.5c0 16.667 -2.33301 30 -7 40s-16 15 -34 15s-35.333 -5.5 -52 -16.5s-31.167 -25 -43.5 -42s-22 -35.333 -29 -55s-10.5 -37.834 -10.5 -54.501z" />
    <glyph glyph-name="h" unicode="h" horiz-adv-x="325" 
d="M21 37c0 36 2.67188 71.5 8.00488 106.5s11.5 70 18.5 105s13.167 69.833 18.5 104.5s8 69.667 8 105v10c0 4.66699 -0.166992 9.5 -0.5 14.5s-0.5 9.83301 -0.5 14.5v9c0.666992 7.33301 -0.666016 12.333 -3.99902 15s-7.66602 4 -12.999 4
c-0.666992 0 -2 -0.333008 -4 -1s-3.66699 -1 -5 -1c-2.66699 -3.33301 -5 -5.66602 -7 -6.99902l-6 -4c-2 -1.33301 -4.33301 -2.66602 -7 -3.99902s-5.66699 -3.33301 -9 -6c-4.66699 -4 -10.167 -6.83301 -16.5 -8.5s-12.5 -2.5 -18.5 -2.5v28l64 57
c4 4 8.33301 6.5 13 7.5s9.33398 1.5 14.001 1.5c11.333 0 20 -4.83301 26 -14.5s10.5 -21 13.5 -34s4.5 -26 4.5 -39v-28.5v-11v-13.5v-11.5v-6c-0.666992 -2.66699 -1.83398 -9.16699 -3.50098 -19.5l-6 -36l-7.5 -44c-2.66699 -15.667 -5.33398 -30.334 -8.00098 -44.001
s-4.83398 -25.667 -6.50098 -36l-3.5 -21.5v-3v-5c1.33301 0.666992 3 2 5 4s3 3.33301 3 4c1.33301 2 4.16602 6.5 8.49902 13.5l13.5 22.5c4.66699 8 9.16699 15.333 13.5 22s7.16602 10.667 8.49902 12c2.66699 3.33301 7.16699 8.33301 13.5 15s13.333 13.667 21 21
l21 20.5c6.33301 6.33301 11.166 10.833 14.499 13.5c0.666992 0 3.33398 0.166992 8.00098 0.5s7.66699 0.5 9 0.5c15.333 0 25.833 -7.16699 31.5 -21.5s9 -32.333 10 -54s0.5 -45 -1.5 -70s-2.66699 -48.167 -2 -69.5s3.66699 -39.166 9 -53.499s16 -21.5 32 -21.5
c7.33301 0 13.666 2 18.999 6s10.666 8.33301 15.999 13s10.833 9 16.5 13s12.5 6 20.5 6c0 -10 -2.66699 -20 -8 -30s-12 -19 -20 -27s-17.167 -14.167 -27.5 -18.5s-20.166 -6.5 -29.499 -6.5c-19.333 0 -33.5 6 -42.5 18s-15 26.333 -18 43s-4.5 34 -4.5 52
s-0.333008 33.333 -1 46c-0.666992 8 -1.33398 18.5 -2.00098 31.5s-1.5 25.5 -2.5 37.5s-1.83301 22.5 -2.5 31.5l-1 13.5l-9 8c-18 -16 -34 -32.833 -48 -50.5s-26 -36.334 -36 -56.001s-18.833 -40.334 -26.5 -62.001s-14.834 -44.167 -21.501 -67.5
c-2 -8 -3.16699 -15.5 -3.5 -22.5s-1.16602 -13.667 -2.49902 -20s-3.33301 -12.333 -6 -18s-7.33398 -11.5 -14.001 -17.5c-12.667 6 -20.167 11.333 -22.5 16s-3.5 11.667 -3.5 21z" />
    <glyph glyph-name="i" unicode="i" horiz-adv-x="237" 
d="M84 140c0 17.333 1.00391 34.499 3.00391 51.499s4.16699 34 6.5 51s4.5 34 6.5 51s3 34.5 3 52.5c0 4 -0.833008 8.5 -2.5 13.5s-5.83398 7.5 -12.501 7.5c-8.66699 0 -14.334 -0.666992 -17.001 -2s-4.5 -3 -5.5 -5s-2.66699 -4.33301 -5 -7
s-7.5 -5.33398 -15.5 -8.00098h-5c-14 0 -21 7.33301 -21 22c0 4 4.5 10.333 13.5 19s19.5 16.834 31.5 24.501s23.333 14.334 34 20.001s17.667 7.5 21 5.5c1.33301 0 3.33301 -1.16699 6 -3.5s5.33398 -5 8.00098 -8l7.5 -8.5c2.33301 -2.66699 3.83301 -4.66699 4.5 -6
v-8c0 -4 0.166992 -8.33301 0.5 -13s0.5 -9.16699 0.5 -13.5v-9.5c0 -19.333 -1.33301 -38.5 -4 -57.5s-5.83398 -38.167 -9.50098 -57.5s-6.83398 -38.666 -9.50098 -57.999s-4 -38.666 -4 -57.999c0 -3.33301 0.333008 -10 1 -20s2.16699 -20.333 4.5 -31
s5.83301 -20.167 10.5 -28.5s11 -12.5 19 -12.5c16 0 28 2.16699 36 6.5s15 9.16602 21 14.499s12.5 10.166 19.5 14.499s16.833 6.5 29.5 6.5c0 -28 -10.333 -49.333 -31 -64s-47 -22 -79 -22c-16.667 0 -29.334 5.33301 -38.001 16s-15.167 23.5 -19.5 38.5
s-6.83301 30.5 -7.5 46.5s-1 29.333 -1 40zM94.0039 557.999c0 7.33301 1.16699 13 3.5 17s7.83301 6 16.5 6c6 0 10.167 -2.16699 12.5 -6.5s3.5 -9.83301 3.5 -16.5c0 -6 -1.16699 -11.167 -3.5 -15.5s-6.5 -6.5 -12.5 -6.5c-8.66699 0 -14.167 1.83301 -16.5 5.5
s-3.5 9.16699 -3.5 16.5z" />
    <glyph glyph-name="j" unicode="j" horiz-adv-x="226" 
d="M-281 -143c0 12 0.331055 22.6699 0.998047 32.0029s3.66699 20 9 32c2 -36 6.5 -69.5 13.5 -100.5s17.167 -59.833 30.5 -86.5s29.833 -51.834 49.5 -75.501s43.834 -46.5 72.501 -68.5c14 -10.667 29.833 -19.334 47.5 -26.001s35.167 -10 52.5 -10
c20.667 0 38.5 6.5 53.5 19.5s27.667 30 38 51s18.666 44.167 24.999 69.5s11.333 50.833 15 76.5s6.33398 49.5 8.00098 71.5s3.16699 39.667 4.5 53c0 3.33301 1 12.333 3 27s4 30.334 6 47.001s4 32.167 6 46.5s3 23.5 3 27.5v16.5c0 9 0.166992 19 0.5 30
s0.5 21.833 0.5 32.5v25v17c0 7.33301 -0.166992 14.833 -0.5 22.5s-0.5 14.5 -0.5 20.5v11l-9 17c-8 -4 -16.667 -9.83301 -26 -17.5l-28 -23.5c-9.33301 -8 -18.666 -15 -27.999 -21s-18 -9 -26 -9c-5.33301 0 -10.5 0.666992 -15.5 2s-7.5 5.66602 -7.5 12.999
c0 10 5.33301 20.333 16 31s23.334 20.5 38.001 29.5s29.667 16.5 45 22.5s27.333 9 36 9h6.5c3 0 6.16699 -0.166992 9.5 -0.5s6.33301 -0.5 9 -0.5h6c4.66699 -3.33301 8.16699 -7.33301 10.5 -12s4.5 -9.33398 6.5 -14.001c0 -3.33301 0.166992 -9.33301 0.5 -18
s0.666016 -17.834 0.999023 -27.501s0.5 -19 0.5 -28v-18.5v-22.5c0 -9.66699 -0.166992 -19.5 -0.5 -29.5s-0.666016 -18.667 -0.999023 -26s-0.5 -11.666 -0.5 -12.999c-0.666992 -6 -2 -17.167 -4 -33.5s-4.66699 -35.5 -8 -57.5l-10.5 -71.5l-11 -74l-10.5 -65.5l-8 -47
c-3.33301 -19.333 -7.5 -39.833 -12.5 -61.5s-12.333 -41.667 -22 -60s-22.334 -33.5 -38.001 -45.5s-35.5 -18 -59.5 -18c-44 0 -84.167 9.16699 -120.5 27.5s-67.5 42.833 -93.5 73.5s-46.333 66 -61 106s-22 81 -22 123zM142.998 410.003c0 7.33301 1.33301 13 4 17
s8 6 16 6c6 0 10.167 -2.33301 12.5 -7s3.5 -10 3.5 -16c0 -6.66699 -1.16699 -12 -3.5 -16s-6.5 -6 -12.5 -6c-8 0 -13.333 2 -16 6s-4 9.33301 -4 16z" />
    <glyph glyph-name="k" unicode="k" horiz-adv-x="317" 
d="M26 8v15.4971c0 7 -0.166992 14.5 -0.5 22.5s-0.5 15.5 -0.5 22.5v14.5c0 71.333 2 141.833 6 211.5s5 140.167 3 211.5l3.5 10l5.5 16l5.5 16l3.5 10c0.666992 1.33301 2 3 4 5l5 5h2h1h1c4.66699 0 7.83398 -1 9.50098 -3s2.83398 -4.5 3.50098 -7.5s1 -6.33301 1 -10
v-9.5c0 -8 -0.166992 -15.167 -0.5 -21.5s-0.833008 -12.833 -1.5 -19.5s-1.66699 -13.5 -3 -20.5s-2.66602 -14.5 -3.99902 -22.5c-0.666992 -8.66699 -1.16699 -22.334 -1.5 -41.001s-0.833008 -39.834 -1.5 -63.501l-2 -74.5
c-0.666992 -26 -1.33398 -50.667 -2.00098 -74s-1.16699 -44.5 -1.5 -63.5s-0.5 -32.833 -0.5 -41.5v-8v-10c16.667 30 31.167 58.667 43.5 86l37 81.5c12.333 27 25.833 54 40.5 81s32.334 54.833 53.001 83.5c4 5.33301 7.83301 9.5 11.5 12.5s7.5 5.33301 11.5 7
s8.5 2.66699 13.5 3s11.167 0.5 18.5 0.5c0 -13.333 -2.16699 -25.666 -6.5 -36.999s-10 -22.5 -17 -33.5l-22 -33.5c-7.66699 -11.333 -14.834 -23.666 -21.501 -36.999s-12.334 -28.166 -17.001 -44.499s-7 -34.833 -7 -55.5c0 -14 0.5 -26.833 1.5 -38.5
s3.66699 -22 8 -31s10.833 -15.833 19.5 -20.5s21 -7 37 -7c14 0 26.5 1.33301 37.5 4s21.167 6.5 30.5 11.5s18.666 10.833 27.999 17.5s19.666 13.334 30.999 20.001c1.33301 0 3 -1.16699 5 -3.5s3.66699 -4.16602 5 -5.49902v-2v-1c0 -0.666992 0.333008 -1 1 -1
c0 -0.666992 -0.166992 -1.33398 -0.5 -2.00098s-0.5 -1.66699 -0.5 -3c-19.333 -22.667 -40 -41.334 -62 -56.001s-48 -22 -78 -22c-22 0 -39.167 3.83301 -51.5 11.5s-22 17.667 -29 30s-12.833 26.5 -17.5 42.5s-10 32 -16 48c-4 -6 -8.16699 -15 -12.5 -27
s-9.16602 -24.667 -14.499 -38l-16 -41.5c-5.33301 -14.333 -11.333 -27.166 -18 -38.499s-13.667 -20.833 -21 -28.5s-15 -11.5 -23 -11.5c-3.33301 0 -6.5 0.333008 -9.5 1s-5.5 3.33398 -7.5 8.00098z" />
    <glyph glyph-name="l" unicode="l" horiz-adv-x="284" 
d="M-10 74c0 4 4.33398 7.33496 13.001 10.002s18.5 6 29.5 10s22 8.83301 33 14.5s18.5 12.834 22.5 21.501c-1.33301 32 -1 62.333 1 91s5.33301 57 10 85s10.5 56.167 17.5 84.5s14.833 58.166 23.5 89.499c-1.33301 6.66699 0.166992 17 4.5 31s10.166 27.667 17.499 41
s15.5 25.166 24.5 35.499s17.167 15.5 24.5 15.5c8 0 13.833 -4.33301 17.5 -13s6.16699 -18.667 7.5 -30s1.66602 -22.833 0.999023 -34.5s-1 -20.5 -1 -26.5c0 -34 -2 -66.833 -6 -98.5s-10.167 -62.5 -18.5 -92.5s-18.5 -59.667 -30.5 -89s-25.667 -59 -41 -89l-0.5 -3
c-0.333008 -2 -0.5 -3.66699 -0.5 -5c0.666992 -24 7.66699 -40.833 21 -50.5s29.166 -15 47.499 -16s37.333 1.16699 57 6.5s35.834 10.666 48.501 15.999l9 -8c-3.33301 -6 -8.16602 -12.167 -14.499 -18.5s-13.166 -12 -20.499 -17s-14.5 -9 -21.5 -12
s-12.5 -4.5 -16.5 -4.5c-17.333 0 -32.333 0.666992 -45 2s-24.334 4 -35.001 8s-21 10 -31 18s-21 18.667 -33 32h-8c-6 -5.33301 -11.5 -9.5 -16.5 -12.5s-10.833 -5.16699 -17.5 -6.5s-14.167 -2.16602 -22.5 -2.49902s-17.833 -0.5 -28.5 -0.5
c-7.33301 0 -12.833 1.16699 -16.5 3.5s-5.5 7.16602 -5.5 14.499zM201.001 514.002c-13.333 -18 -24.5 -38.332 -33.5 -60.999s-16.167 -46 -21.5 -70s-9.33301 -48.333 -12 -73s-4 -48.334 -4 -71.001c0 -1.33301 0.166992 -4.33301 0.5 -9s0.5 -9.5 0.5 -14.5
s0.166992 -9.83301 0.5 -14.5s0.5 -7.66699 0.5 -9l4 4l4 4v10c10 22 18.833 43.333 26.5 64s14.167 41.5 19.5 62.5s9.33301 42.5 12 64.5s4 45.667 4 71v8.5v13c0 4.33301 -0.166992 8.5 -0.5 12.5s-0.5 6.66699 -0.5 8z" />
    <glyph glyph-name="m" unicode="m" horiz-adv-x="589" 
d="M104 270l-9.00195 36.0088l-18 -10l-104 -104c-0.666992 -0.666992 -3.16699 0.166016 -7.5 2.49902s-7.5 4.16602 -9.5 5.49902l-5.5 5.5c-2.33301 2.33301 -3.5 3.83301 -3.5 4.5v4c0 4 2.83301 10.333 8.5 19s13.167 18.334 22.5 29.001s19.833 21.834 31.5 33.501
s23.334 22 35.001 31s22.834 16.5 33.501 22.5s19.667 9 27 9c12.667 0 22.167 -5.83301 28.5 -17.5s10.666 -25.334 12.999 -41.001s3.16602 -31.334 2.49902 -47.001s-1 -27.167 -1 -34.5c2 3.33301 6.33301 9.16602 13 17.499l21 27l21 26.5l14 17
c2 2 6.5 6.83301 13.5 14.5l23 24c8.33301 8.33301 17.166 15.666 26.499 21.999s17.333 9.5 24 9.5c12 0 20.667 -3.5 26 -10.5s8.83301 -15.5 10.5 -25.5s2.16699 -20.5 1.5 -31.5s-1 -20.167 -1 -27.5c0 -25.333 -1.66699 -50.333 -5 -75s-5 -50 -5 -76v-8
c14 16 26.167 33.667 36.5 53l31.5 57.5c10.667 19 22.167 37.167 34.5 54.5s27.5 32 45.5 44c1.33301 0.666992 3.5 1.16699 6.5 1.5s5.16699 0.5 6.5 0.5c7.33301 0 12.833 -2.16699 16.5 -6.5s6 -9.66602 7 -15.999s1.16699 -12.833 0.5 -19.5s-1 -12.334 -1 -17.001
c0 -28.667 -1.66699 -56.834 -5 -84.501s-5 -55.834 -5 -84.501c0 -15.333 3.5 -25.333 10.5 -30s18.167 -7 33.5 -7c7.33301 0 13.833 1.16699 19.5 3.5s11.167 5 16.5 8s10.833 5.66699 16.5 8s11.834 3.5 18.501 3.5c0 -10 -2.66699 -19.167 -8 -27.5
s-12 -15.333 -20 -21s-17 -10 -27 -13s-19.333 -4.5 -28 -4.5c-7.33301 0 -14.833 1 -22.5 3s-14.667 5.16699 -21 9.5s-11.666 9.83301 -15.999 16.5s-6.5 14.667 -6.5 24v192c-7.33301 -5.33301 -15.5 -15 -24.5 -29s-18.333 -30 -28 -48s-19.334 -37 -29.001 -57
s-19.167 -38 -28.5 -54s-18.333 -29.5 -27 -40.5s-16.667 -16.5 -24 -16.5s-12.666 3.33301 -15.999 10s-5.5 14.167 -6.5 22.5s-1.5 16.166 -1.5 23.499v15c0 16 1 32 3 48s4.33301 32.167 7 48.5s5 32.5 7 48.5s3 32 3 48v9c0 4 -0.5 7.83301 -1.5 11.5s-2.5 7 -4.5 10
s-4.66699 4.5 -8 4.5c-0.666992 0 -1.16699 -0.166992 -1.5 -0.5s-0.833008 -0.5 -1.5 -0.5c0 -0.666992 -0.666992 -1 -2 -1c-0.666992 0 -2 -1 -4 -3s-3.33301 -3.66699 -4 -5l-29 -36l-35 -43l-29 -36c-8 -10 -12.333 -15 -13 -15c-2 -4 -5.5 -13.667 -10.5 -29
l-16 -49.5l-15.5 -50c-4.66699 -15.667 -8 -25.5 -10 -29.5c-3.33301 -10.667 -7.66602 -18 -12.999 -22s-13.333 -6 -24 -6c0 22.667 1 45 3 67s4.33301 44.167 7 66.5s5 44.666 7 66.999s3 45.166 3 68.499v3z" />
    <glyph glyph-name="n" unicode="n" horiz-adv-x="399" 
d="M78 70c1.33301 5.33301 3.33594 14.1738 6.00293 26.5068s5.5 26.166 8.5 41.499s6 31.666 9 48.999s6 33.666 9 48.999s5.5 29.333 7.5 42s3.33301 22 4 28c0.666992 2.66699 0.666992 6.66699 0 12s-1.33398 11.333 -2.00098 18s-1.33398 12.667 -2.00098 18
s-1 9.33301 -1 12c-2 0 -5.33301 0.666992 -10 2s-9.5 2.5 -14.5 3.5s-9.5 2 -13.5 3s-7 1.5 -9 1.5c-16 -6 -27.833 -13.5 -35.5 -22.5s-14.667 -17.833 -21 -26.5s-13.833 -16.167 -22.5 -22.5s-21.334 -9.5 -38.001 -9.5c-6 0 -10.333 2.33301 -13 7s-4 10 -4 16v4
c14.667 16.667 28.5 31 41.5 43s26.833 22.167 41.5 30.5s30.667 14.5 48 18.5s37.333 6 60 6c10 0 17.5 -1.83301 22.5 -5.5s8.83301 -8.33398 11.5 -14.001s4.16699 -12.167 4.5 -19.5s0.5 -15.333 0.5 -24c0 -18 -1.83301 -35.833 -5.5 -53.5
s-7.66699 -35.334 -12 -53.001l-12.5 -53c-4 -17.667 -6 -35.834 -6 -54.501v-4c2 5.33301 6.33301 14.166 13 26.499l21 39.5l21.5 39.5l14.5 25.5c0.666992 0.666992 3 3.5 7 8.5l14.5 17.5l17 19.5c5.66699 6.33301 10.5 11.5 14.5 15.5c4 5.33301 8.83301 11 14.5 17
s11.667 11.667 18 17s13 9.83301 20 13.5s14.167 5.5 21.5 5.5c6 0 10.5 -2.33301 13.5 -7s5.16699 -10.334 6.5 -17.001s2 -13.5 2 -20.5v-17.5c0 -20 -2.33301 -40 -7 -60s-9.66699 -39.833 -15 -59.5l-15.5 -59.5c-5 -20 -7.5 -40 -7.5 -60c0 -8.66699 1.33301 -16 4 -22
s8.66699 -9 18 -9c12 0 23 3.33301 33 10s19.5 13.834 28.5 21.501s18 14.834 27 21.501s19.167 10 30.5 10v-19c0 -0.666992 -1.66699 -2.66699 -5 -6l-12 -12l-14.5 -14l-12.5 -12l-18 -15c-6.66699 -5.33301 -13.5 -10.166 -20.5 -14.499s-14.5 -8 -22.5 -11
s-15.667 -4.5 -23 -4.5c-10 0 -18.167 2.83301 -24.5 8.5s-11.166 12.667 -14.499 21s-5.66602 17.166 -6.99902 26.499s-2 17.666 -2 24.999c0 20 1.83301 39.833 5.5 59.5s7.5 39 11.5 58s7.66699 38.167 11 57.5s5 39 5 59h-6c-0.666992 0 -3 -2 -7 -6l-14.5 -14
c-5.66699 -5.33301 -11.167 -11 -16.5 -17s-10 -11 -14 -15c-3.33301 -4 -7 -8.83301 -11 -14.5s-8 -11.834 -12 -18.501l-11.5 -19.5c-3.66699 -6.33301 -6.83398 -12.166 -9.50098 -17.499c-2 -4.66699 -5.33301 -11.667 -10 -21l-15.5 -32l-18 -38l-18 -38l-15.5 -32
c-4.66699 -9.33301 -8 -16.333 -10 -21c-0.666992 -2.66699 -3.33398 -6.16699 -8.00098 -10.5s-7.66699 -6.83301 -9 -7.5l-2 -1h-3h-2c-0.666992 0 -1.33398 0.333008 -2.00098 1c-1.33301 0.666992 -3.16602 2 -5.49902 4s-3.5 3.33301 -3.5 4v62z" />
    <glyph glyph-name="o" unicode="o" horiz-adv-x="270" 
d="M8 34l-0.000976562 10.5c0 5 -0.166992 10.333 -0.5 16s-0.5 11 -0.5 16v11.5c0 18.667 1.33301 38.667 4 60s6.66699 42.166 12 62.499s12.5 40 21.5 59s20.333 35.667 34 50s29.5 25.833 47.5 34.5s38.667 13 62 13c15.333 0 27 -4.5 35 -13.5s13.5 -20.167 16.5 -33.5
s4.66699 -27.333 5 -42s0.5 -27.667 0.5 -39c0 -26 -2.66699 -53.167 -8 -81.5s-14 -54.166 -26 -77.499s-28.5 -42.666 -49.5 -57.999s-47.167 -23 -78.5 -23c-9.33301 0 -17.333 0.333008 -24 1s-12.667 2.5 -18 5.5s-10.666 6.66699 -15.999 11s-11 10.166 -17 17.499z
M42.999 52c6 -6 13 -8.99902 21 -8.99902h23c25.333 0 46 6.5 62 19.5s28.5 29.167 37.5 48.5s15.333 40.5 19 63.5s5.5 44.5 5.5 64.5c0 9.33301 0.166992 19.5 0.5 30.5s-0.666992 21.333 -3 31s-6.5 17.667 -12.5 24s-15 9.5 -27 9.5c0 -10.667 -1.33301 -18.667 -4 -24
s-6.16699 -9 -10.5 -11s-9.33301 -3.16699 -15 -3.5s-11.667 -1.5 -18 -3.5s-12.5 -5 -18.5 -9s-11.333 -11 -16 -21l-30.5 -86.5c-9.66699 -27.667 -14.5 -56.834 -14.5 -87.501v-7.5c0 -3 0.166992 -6.5 0.5 -10.5s0.5 -7.5 0.5 -10.5v-7.5z" />
    <glyph glyph-name="p" unicode="p" horiz-adv-x="369" 
d="M-17 -231c12 36.667 22.0049 68.499 30.0049 95.499s14.333 52 19 75s8.66699 45.5 12 67.5s6.83301 46.5 10.5 73.5s8.16699 57.833 13.5 92.5s12.666 76 21.999 124c0 14.667 -0.833008 26.334 -2.5 35.001s-5 14.167 -10 16.5s-12 2 -21 -1s-20.5 -8.5 -34.5 -16.5h-5
c-5.33301 0 -10.333 1.16699 -15 3.5s-7 6.83301 -7 13.5c0 4.66699 0.333008 8 1 10s3.33398 4.66699 8.00098 8l36 23c14 8.66699 27.5 14.5 40.5 17.5s24.333 1.16699 34 -5.5s15.834 -21 18.501 -43l23.5 27.5c8.33301 9.66699 17.166 18.334 26.499 26.001
s19.5 13.834 30.5 18.501s23.167 7 36.5 7c20.667 0 37.667 -6.66699 51 -20s23.666 -29.666 30.999 -48.999s12.166 -39.833 14.499 -61.5s3.5 -40.5 3.5 -56.5c0 -38.667 -6.66699 -73.167 -20 -103.5s-31.5 -56.166 -54.5 -77.499s-50.5 -37.833 -82.5 -49.5
s-66.667 -18.167 -104 -19.5c-5.33301 -17.333 -8.83301 -30 -10.5 -38s-2.83398 -14.833 -3.50098 -20.5s-1.33398 -11.834 -2.00098 -18.501s-2.83398 -16.834 -6.50098 -30.501s-9.5 -32.834 -17.5 -57.501s-19.333 -57.667 -34 -99c-8 0 -15.333 3.66699 -22 11
s-10 14.666 -10 21.999zM97.0049 51.999c-0.666992 -4 0.000976562 -7.1709 2.00098 -9.50391s4.33301 -4.16602 7 -5.49902s5.66699 -2.16602 9 -2.49902s6 -0.5 8 -0.5c17.333 0 35.833 4 55.5 12s38 18.333 55 31s31.5 27.334 43.5 44.001s19 34.334 21 53.001
c10 24.667 15.5 49.5 16.5 74.5s-1 47.833 -6 68.5s-12.5 38 -22.5 52s-21.833 22.333 -35.5 25s-28.334 -1.33301 -44.001 -12s-31.5 -30.667 -47.5 -60z" />
    <glyph glyph-name="q" unicode="q" horiz-adv-x="306" 
d="M173 -141c0 32.667 1.5 64.499 4.5 95.499s4.5 62.5 4.5 94.5c-8.66699 0 -17.167 -2.16699 -25.5 -6.5l-26.5 -14.5c-9.33301 -5.33301 -19.166 -10.166 -29.499 -14.499s-20.833 -6.5 -31.5 -6.5c-20 0 -33.667 6.16699 -41 18.5s-11 28.166 -11 47.499
c0 14.667 2.83301 32.667 8.5 54s13.334 43.5 23.001 66.5s21 45.833 34 68.5s27 43.167 42 61.5s30.667 33.166 47 44.499s32.5 17 48.5 17c12 0 21.833 -4.33301 29.5 -13s13.834 -19 18.501 -31s7.83398 -24.333 9.50098 -37s2.5 -23 2.5 -31
c0 -34 -3.66699 -67.167 -11 -99.5s-15.333 -64.666 -24 -96.999s-16.834 -64.833 -24.501 -97.5s-11.5 -66.334 -11.5 -101.001v-29.5c0 -13 1.16699 -25.833 3.5 -38.5s6.16602 -23.5 11.499 -32.5s13.666 -13.5 24.999 -13.5h6h7c20 15.333 36.167 29.833 48.5 43.5
s23.333 27.834 33 42.501s19.5 30.5 29.5 47.5s22.333 36.5 37 58.5c1.33301 2 4.16602 5.16699 8.49902 9.5l8.5 8.5c0 -1.33301 0.166992 -3.66602 0.5 -6.99902s0.5 -5.66602 0.5 -6.99902c0 -12.667 -3 -27.5 -9 -44.5s-14 -34.5 -24 -52.5s-21.667 -35.5 -35 -52.5
s-27.333 -32.167 -42 -45.5s-29.5 -24.166 -44.5 -32.499s-29.167 -12.5 -42.5 -12.5c-14 0 -24.833 5.5 -32.5 16.5s-13.5 24.167 -17.5 39.5s-6.33301 30.666 -7 45.999s-1 27.666 -1 36.999zM52 51.999c6 -4 10.4971 -6.49902 13.4971 -7.49902s7.5 -1.5 13.5 -1.5
c18 0 34.333 4.5 49 13.5s27.834 21 39.501 36s21.834 31.833 30.501 50.5s15.834 37.667 21.501 57s9.83398 37.666 12.501 54.999s4 32.666 4 45.999c0 7.33301 -1.33301 14.5 -4 21.5s-7.33398 12.833 -14.001 17.5c-22 -6 -43 -18.5 -63 -37.5s-37.667 -40.667 -53 -65
s-27.5 -49.666 -36.5 -75.999s-13.5 -49.833 -13.5 -70.5v-7.5v-11.5v-11.5v-8.5z" />
    <glyph glyph-name="r" unicode="r" horiz-adv-x="370" 
d="M44 34c6.66699 26.667 11.5039 50.8291 14.5039 72.4961s5 42.834 6 63.501s1.33301 42.334 1 65.001s-0.5 48.334 -0.5 77.001c-10.667 0 -18.5 -0.666992 -23.5 -2s-8.5 -2.83301 -10.5 -4.5s-3.33301 -3.5 -4 -5.5s-1.83398 -3.83301 -3.50098 -5.5
s-4.83398 -3.16699 -9.50098 -4.5s-12 -2 -22 -2c-6 0 -10.333 2.33301 -13 7s-4 10 -4 16c0 5.33301 3.5 11 10.5 17s15.333 12 25 18s19.667 11 30 15s19.166 6 26.499 6c2.66699 0 6.5 -1.16699 11.5 -3.5s9.83301 -5.33301 14.5 -9s8.5 -7.5 11.5 -11.5s4.5 -8 4.5 -12
v-139c6.66699 10 17.334 23.667 32.001 41s31 34.5 49 51.5s36.333 31.833 55 44.5s35.334 19 50.001 19c20 0 34 -6.5 42 -19.5s12 -29.167 12 -48.5c-8 0 -14.333 1.33301 -19 4s-8.83398 5.66699 -12.501 9s-7.5 6.16602 -11.5 8.49902s-9.33301 3.5 -16 3.5
c-21.333 -4 -41.333 -14.667 -60 -32s-35.834 -37.666 -51.501 -60.999s-29.667 -48 -42 -74l-32.5 -71l-22.5 -52c-5.66699 -13.333 -9.16699 -18.666 -10.5 -15.999c-6.66699 0 -12.834 3.16699 -18.501 9.5s-8.5 13.833 -8.5 22.5v3z" />
    <glyph glyph-name="s" unicode="s" horiz-adv-x="262" 
d="M17 170l-0.00195312 5.99902c0 2.66699 0.166992 5.66699 0.5 9s0.5 6.5 0.5 9.5v5.5c0.666992 2 3.16699 4.33301 7.5 7s7.5 3.66699 9.5 3c4 -1.33301 7.66699 -6 11 -14s6.66602 -17.667 9.99902 -29l11.5 -37.5c4.33301 -13.667 10 -26.334 17 -38.001
s15.667 -22 26 -31s22.833 -14.833 37.5 -17.5c4.66699 -0.666992 8.33398 -0.5 11.001 0.5s4.5 2.66699 5.5 5s1.5 5 1.5 8v7.5c-0.666992 12 -5.33398 24.5 -14.001 37.5s-19 27 -31 42s-24 31 -36 48s-22 35 -30 54s-13 39.333 -15 61s2 44.834 12 69.501
c0 6 3.16699 14 9.5 24s14 19.5 23 28.5s18.5 16.833 28.5 23.5s18.667 10 26 10c10.667 0 20.834 -2 30.501 -6s17.167 -10.667 22.5 -20c6.66699 -8.66699 14.5 -20.167 23.5 -34.5s17 -28.5 24 -42.5s11.5 -26.667 13.5 -38s-1 -18 -9 -20
c-9.33301 0 -17.166 2.66699 -23.499 8s-11.5 12 -15.5 20s-7.66699 16.833 -11 26.5s-7 18.5 -11 26.5s-8.66699 14.833 -14 20.5s-12.333 8.5 -21 8.5c-12 0 -22.5 -3.66699 -31.5 -11s-16.333 -16.333 -22 -27s-9.66699 -22.167 -12 -34.5s-3.5 -23.166 -3.5 -32.499
c0 -16.667 3.16699 -32.167 9.5 -46.5s14.333 -28 24 -41s20.334 -25.833 32.001 -38.5s22.334 -25.5 32.001 -38.5s17.834 -26.5 24.501 -40.5s10 -29 10 -45c0 -6.66699 -1.5 -13.167 -4.5 -19.5s-7 -12.333 -12 -18s-10.833 -10.167 -17.5 -13.5s-13.334 -5 -20.001 -5
c-18.667 0 -36.334 5.66699 -53.001 17s-31.5 25.666 -44.5 42.999s-23.333 35.833 -31 55.5s-11.5 37.834 -11.5 54.501z" />
    <glyph glyph-name="t" unicode="t" horiz-adv-x="306" 
d="M122 34l0.00390625 10.501c0 5 -0.166992 10.333 -0.5 16s-0.5 11 -0.5 16v11.5c0 19.333 1.66699 38.166 5 56.499s7.16602 36.666 11.499 54.999s8.16602 36.833 11.499 55.5s5 37.667 5 57c-8 0 -17.5 -3.66699 -28.5 -11s-22.5 -15.666 -34.5 -24.999
s-23.167 -18.833 -33.5 -28.5l-23.5 -21.5h-3h-5c-12.667 0 -19 6 -19 18c0 8 4.16699 16.5 12.5 25.5s18.666 18 30.999 27s25.666 17.5 39.999 25.5l40 22.5c12.333 7 22.666 13.167 30.999 18.5s12.5 9.66602 12.5 12.999c6 28 8.66699 51.333 8 70
s-3.16699 33.667 -7.5 45s-10.333 19.166 -18 23.499s-15.667 6.16602 -24 5.49902s-16.833 -3.66699 -25.5 -9s-16 -12 -22 -20c-4.66699 5.33301 -7.66699 9.83301 -9 13.5s-2 7.83398 -2 12.501c15.333 15.333 30.5 25 45.5 29s29.167 3.83301 42.5 -0.5
s25.333 -11.833 36 -22.5s18.834 -23.167 24.501 -37.5s8.33398 -29.666 8.00098 -45.999s-4.5 -32.166 -12.5 -47.499l8 4c4 2 8.33301 3.83301 13 5.5l13.5 5c4.33301 1.66699 7.5 2.83398 9.5 3.50098h3h5c0.666992 0 1.5 -2.16699 2.5 -6.5s2.33301 -9.33301 4 -15
l4.5 -15c1.33301 -4.33301 2 -6.83301 2 -7.5l-74 -35c-0.666992 -0.666992 -2.83398 -7.83398 -6.50098 -21.501l-12.5 -48l-14 -57c-4.66699 -19.667 -8 -35.5 -10 -47.5c-1.33301 -2.66699 -2.5 -7.83398 -3.5 -15.501s-1.83301 -15.667 -2.5 -24l-2 -24
c-0.666992 -7.66699 -1 -12.834 -1 -15.501c0 -4 0.333008 -8.66699 1 -14s1.83398 -10.166 3.50098 -14.499s4.16699 -8 7.5 -11s7.66602 -4.5 12.999 -4.5c19.333 0 36.5 3.83301 51.5 11.5s28.167 16.167 39.5 25.5l30.5 26c9 8 17.167 12 24.5 12
c1.33301 0 3.16602 -0.166992 5.49902 -0.5s3.5 -0.833008 3.5 -1.5c-2 -19.333 -7.5 -35.833 -16.5 -49.5s-20 -24.834 -33 -33.501s-28.167 -15 -45.5 -19s-36 -6 -56 -6c-6 0 -12.667 0.333008 -20 1s-14 2.33398 -20 5.00098s-11.167 6.33398 -15.5 11.001
s-7.16602 10.667 -8.49902 18z" />
    <glyph glyph-name="u" unicode="u" horiz-adv-x="451" 
d="M82 410c-13.333 0 -22.6699 -2.66504 -28.0029 -7.99805s-9.5 -11 -12.5 -17l-8.5 -17c-2.66699 -5.33301 -7.66699 -8 -15 -8c-8 0 -14.5 1.5 -19.5 4.5s-7.5 8.83301 -7.5 17.5c0.666992 8.66699 4 17 10 25s13.5 15.167 22.5 21.5s18.5 11.166 28.5 14.499
s20 4.33301 30 3c9.33301 0 18 -0.666992 26 -2s15 -4 21 -8s10.667 -9.5 14 -16.5s5 -16.167 5 -27.5v-331l17 17c0.666992 0.666992 3.83398 6.16699 9.50098 16.5l19.5 36.5l22.5 43l18.5 36c15.333 30.667 27.666 60.5 36.999 89.5s17.333 59.833 24 92.5
c1.33301 5.33301 4.5 8.5 9.5 9.5s9.16699 1.5 12.5 1.5c0.666992 0 2.66699 -0.166992 6 -0.5s5.66602 -0.5 6.99902 -0.5c0 -5.33301 0.166992 -13.333 0.5 -24s0.833008 -22.667 1.5 -36l2 -41.5l2 -41.5c0.666992 -13.333 1.33398 -25.166 2.00098 -35.499
s1 -18.166 1 -23.499c0 -4 0.5 -11.167 1.5 -21.5s3 -21 6 -32s7.16699 -20.833 12.5 -29.5s13 -13 23 -13c9.33301 5.33301 18.666 11.666 27.999 18.999l28.5 22.5c9.66699 7.66699 19.334 14.667 29.001 21s19.834 11.166 30.501 14.499
c5.33301 -3.33301 7.33301 -8.33301 6 -15s-5 -14.334 -11 -23.001s-13.667 -17.5 -23 -26.5s-19.666 -17.333 -30.999 -25s-22.833 -13.667 -34.5 -18s-22.5 -5.83301 -32.5 -4.5c-19.333 0 -34.166 6 -44.499 18s-17.666 26.5 -21.999 43.5s-6.83301 34.833 -7.5 53.5
s-1 34.667 -1 48c-7.33301 0 -14.5 -5.83301 -21.5 -17.5s-14.167 -26.167 -21.5 -43.5l-23 -56c-8 -20 -16.667 -38.5 -26 -55.5s-19.166 -31.333 -29.499 -43s-21.5 -17.5 -33.5 -17.5c-8.66699 0 -15.667 2.33301 -21 7s-9.33301 10.667 -12 18s-4.33398 15 -5.00098 23
s-1 15.667 -1 23v314c0 2 -0.666992 4.5 -2 7.5s-3 5.83301 -5 8.5s-4.33301 5 -7 7s-5.33398 3 -8.00098 3z" />
    <glyph glyph-name="v" unicode="v" horiz-adv-x="358" 
d="M122 34l-26.5059 57.501l-33.5 73l-31.5 71l-22.5 52.5c0.666992 2.66699 3.16699 6.16699 7.5 10.5s7.83301 6.83301 10.5 7.5c7.33301 1.33301 15 -3.16699 23 -13.5s16 -24 24 -41s16.333 -35.667 25 -56l24.5 -57c7.66699 -17.667 14.834 -32.334 21.501 -44.001
s12.334 -17.5 17.001 -17.5c0.666992 0 1.33398 0.166992 2.00098 0.5s1.66699 0.5 3 0.5c0 2 1 5.16699 3 9.5s3.83301 8.83301 5.5 13.5s3.33398 9 5.00098 13s2.83398 6.66699 3.50098 8l6.5 12.5l11.5 22.5l11 22.5l6 12.5c1.33301 2.66699 3.5 8.33398 6.5 17.001
s6.66699 18.667 11 30l13.5 36l13 36l10.5 29.5c3 8.33301 5.16699 14.166 6.5 17.499c4.66699 21.333 11.834 38.833 21.501 52.5s18 22 25 25s10.667 -0.166992 11 -9.5s-7.16699 -26 -22.5 -50c-1.33301 -5.33301 -4.16602 -14.166 -8.49902 -26.499l-13.5 -39.5
l-13.5 -39.5c-4.33301 -12.333 -7.16602 -21.166 -8.49902 -26.499c-2.66699 -8 -6.16699 -19.5 -10.5 -34.5l-15 -50c-5.66699 -18.333 -11.834 -36.833 -18.501 -55.5s-13.834 -35.834 -21.501 -51.501s-15.5 -28.5 -23.5 -38.5s-16 -15 -24 -15
c-4 0 -7.83301 1.33301 -11.5 4s-7 5.66699 -10 9s-5.66699 7.16602 -8 11.499z" />
    <glyph glyph-name="w" unicode="w" horiz-adv-x="494" 
d="M220 324c-0.666992 0 -1.1709 -0.166016 -1.50391 -0.499023s-0.833008 -0.5 -1.5 -0.5c0 -0.666992 -0.666992 -1 -2 -1c-2 -0.666992 -5.16699 -3.33398 -9.5 -8.00098s-6.83301 -7.33398 -7.5 -8.00098l-96 -202c0 -0.666992 -1.83301 -3.66699 -5.5 -9
s-8.16699 -11.333 -13.5 -18s-10.666 -12.5 -15.999 -17.5s-9.66602 -7.5 -12.999 -7.5h-2h-2c-1.33301 0.666992 -3.16602 2.16699 -5.49902 4.5l-4.5 4.5v9v12.5v13v8.5c0 20 1 39.833 3 59.5s4.16699 39.334 6.5 59.001s4.5 39.167 6.5 58.5s3 39 3 59v10.5
c0 5 -0.166992 10.333 -0.5 16s-0.5 10.834 -0.5 15.501v10c2 9.33301 0.333008 14.833 -5 16.5s-10.666 2.5 -15.999 2.5c-13.333 0 -22.333 -1.16699 -27 -3.5s-8.5 -4.83301 -11.5 -7.5s-6.83301 -5.16699 -11.5 -7.5s-14 -3.5 -28 -3.5c-12 0 -18 6.66699 -18 20
c0 8.66699 4.5 16.334 13.5 23.001s19.5 12.167 31.5 16.5s24 7.66602 36 9.99902s21.333 3.5 28 3.5c8 0 16.167 -2.5 24.5 -7.5s14.5 -11.167 18.5 -18.5c0 -4 0.166992 -10.667 0.5 -20s0.5 -19.333 0.5 -30v-30.5v-20.5c0 -28 -1.5 -55 -4.5 -81s-4.5 -52.667 -4.5 -80
v-17l57 119c20 40.667 41.333 79.334 64 116.001c0.666992 1.33301 2.16699 3.16602 4.5 5.49902l4.5 4.5h5c6 0 11.333 -1.83301 16 -5.5s8.5 -8 11.5 -13s5.33301 -10.667 7 -17l4.5 -17.5c0 -2.66699 0.666992 -8.83398 2 -18.501s3 -20.667 5 -33
s3.83301 -25.666 5.5 -39.999s3.5 -27.666 5.5 -39.999s3.66699 -23.333 5 -33s2.33301 -15.834 3 -18.501c0.666992 -4.66699 2.5 -12.334 5.5 -23.001s6.5 -22 10.5 -34l11.5 -34.5l7.5 -22.5l14.5 7.5c5.66699 3 9.5 6.5 11.5 10.5l17.5 31l20 37l16.5 31.5
c4.66699 9 7 13.833 7 14.5v16l44 184l-1 6.5c-0.666992 4.33301 -1 9 -1 14s0.833008 9.83301 2.5 14.5s4.5 7.33398 8.5 8.00098l9 -9v-6c0 -3.33301 0.166992 -7 0.5 -11l1 -12.5c0.333008 -4.33301 0.5 -7.5 0.5 -9.5c0 -40 -3.33301 -78.167 -10 -114.5
s-15.667 -75.166 -27 -116.499c-4 -8 -9.66699 -20.333 -17 -37s-15.833 -33.334 -25.5 -50.001s-20.167 -31.334 -31.5 -44.001s-23 -19 -35 -19c-16 0 -29.167 8 -39.5 24s-18.833 36.167 -25.5 60.5s-11.5 50.5 -14.5 78.5l-8.5 78.5
c-2.66699 24.333 -5.16699 44.5 -7.5 60.5s-5.5 24 -9.5 24z" />
    <glyph glyph-name="x" unicode="x" horiz-adv-x="409" 
d="M247 210c-1.33301 -0.666992 -3.16699 -2.16602 -5.5 -4.49902s-3.83301 -4.16602 -4.5 -5.49902l-28 -32.5l-36 -41.5l-32 -37c-9.33301 -10.667 -15 -17 -17 -19c-2.66699 -3.33301 -5.33398 -7.5 -8.00098 -12.5s-5.83398 -9.83301 -9.50098 -14.5
s-7.66699 -8.83398 -12 -12.501s-8.83301 -5.5 -13.5 -5.5c-6.66699 0 -11.834 1.33301 -15.501 4s-7.16699 7.33398 -10.5 14.001c12 17.333 24.667 33.333 38 48l38 43.5c12 14.333 22.333 28.833 31 43.5s14.5 30.334 17.5 47.001s2 35 -3 55s-14.5 42 -28.5 66
c-18 0 -33.333 -3 -46 -9s-24.667 -12.5 -36 -19.5s-22.833 -13.5 -34.5 -19.5s-25.5 -9 -41.5 -9v37c0 0.666992 2.16699 2.5 6.5 5.5s9.66602 6.5 15.999 10.5s13.333 8.16699 21 12.5s14.834 8.16602 21.501 11.499c12.667 6.66699 26.5 13 41.5 19s29.833 9 44.5 9
c18.667 0 32.334 -5.5 41.001 -16.5s13 -25.833 13 -44.5c4 -11.333 7.16699 -22.5 9.5 -33.5l6.5 -30c2 -9 4.33301 -16 7 -21s6.33398 -6.5 11.001 -4.5c6.66699 8 12.834 17.5 18.501 28.5s11.5 21.5 17.5 31.5s13 18.667 21 26s18 11 30 11c2 0 4.33301 0.166992 7 0.5
s5.33398 0.166016 8.00098 -0.500977s5 -1.66699 7 -3s3.66699 -3.66602 5 -6.99902c-16 -28 -29 -57.833 -39 -89.5s-15 -64.5 -15 -98.5c0 -7.33301 0.5 -16.833 1.5 -28.5s3.5 -23.334 7.5 -35.001s9.5 -21.834 16.5 -30.501s16.5 -13.667 28.5 -15
c12 -0.666992 23 0.333008 33 3s20.167 5.83398 30.5 9.50098l31 10.5c10.333 3.33301 21.5 5 33.5 5c0 -10.667 -4.5 -19.834 -13.5 -27.501s-19.833 -14.167 -32.5 -19.5s-25.5 -9.33301 -38.5 -12s-23.5 -4 -31.5 -4c-28 0 -49.5 6.83301 -64.5 20.5s-25.833 31 -32.5 52
s-10.334 43.833 -11.001 68.5s-0.666992 48 0 70z" />
    <glyph glyph-name="y" unicode="y" horiz-adv-x="417" 
d="M-55 -454c-4 25.333 -7.3291 52.0049 -9.99609 80.0049s-5 60.333 -7 97c0 6 0.166992 15.833 0.5 29.5s1.16602 29 2.49902 46s3.33301 34.667 6 53s5.83398 35.666 9.50098 51.999s8.16699 30.666 13.5 42.999s12 21.166 20 26.499v-8c0 -20 -1.5 -39.667 -4.5 -59
l-9 -58.5l-9 -59.5c-3 -20 -4.5 -40 -4.5 -60c0 -8 0.5 -19.5 1.5 -34.5s2.5 -31.5 4.5 -49.5s5 -36.5 9 -55.5s9.33301 -36.167 16 -51.5s14.667 -27.833 24 -37.5s20.333 -14.5 33 -14.5c17.333 0 34.833 5.66699 52.5 17s34.667 26.166 51 44.499s31.5 39 45.5 62
s27 46.167 39 69.5s22 45.5 30 66.5s14 39.167 18 54.5c4 22 8 45.167 12 69.5s7.83301 49.333 11.5 75s6.66699 51.167 9 76.5s3.5 50.666 3.5 75.999v6c0 3.33301 -0.166992 6.83301 -0.5 10.5s-0.5 7.16699 -0.5 10.5v7c-9.33301 -10 -19.166 -21.167 -29.499 -33.5
s-21.5 -23.833 -33.5 -34.5s-24.833 -19.667 -38.5 -27s-28.5 -11 -44.5 -11c-12.667 0 -23.5 4 -32.5 12s-16.333 17.833 -22 29.5s-10 24.167 -13 37.5s-4.5 25.333 -4.5 36c-0.666992 6 -1.33398 16.833 -2.00098 32.5s-1.5 32.334 -2.5 50.001s-2 34.334 -3 50.001
s-1.5 26.834 -1.5 33.501l-9 9c-4.66699 -2.66699 -10.667 -6.66699 -18 -12s-15.166 -10.333 -23.499 -15s-16.5 -8.83398 -24.5 -12.501s-15 -5.5 -21 -5.5c-8 0 -14.5 2.83301 -19.5 8.5s-7.5 11.834 -7.5 18.501c0 3.33301 3.16699 8 9.5 14s14.333 12.167 24 18.5
s20.667 12.833 33 19.5s24.166 12.667 35.499 18s21.666 9.83301 30.999 13.5s16 5.5 20 5.5c2.66699 0 7 -0.333008 13 -1s9 -3.66699 9 -9v-236c0 -4 0.666992 -9.83301 2 -17.5s3.33301 -15.5 6 -23.5s6.33398 -14.833 11.001 -20.5s10 -8.5 16 -8.5
c3.33301 0 7.66602 1 12.999 3s10.5 4.33301 15.5 7s9.5 5.5 13.5 8.5s7.33301 5.83301 10 8.5c22.667 20 43.5 42.333 62.5 67s33.167 51.667 42.5 81c0.666992 2 1.83398 6.5 3.50098 13.5s3.33398 14.667 5.00098 23s3.5 16.333 5.5 24s3 13.5 3 17.5
c0.666992 4.66699 1.16699 10 1.5 16s1.16602 11.833 2.49902 17.5s3.66602 10.5 6.99902 14.5s8.66602 6 15.999 6c10 0 15.5 -3 16.5 -9s1.5 -13 1.5 -21c0 -8.66699 -0.666992 -17.334 -2 -26.001s-2.83301 -17.167 -4.5 -25.5s-2.83398 -16.666 -3.50098 -24.999
s-0.333984 -16.833 0.999023 -25.5c-7.33301 -125.333 -22.833 -237.333 -46.5 -336s-51.667 -181.834 -84 -249.501s-66.333 -118.834 -102 -153.501s-69.167 -50.334 -100.5 -47.001c-11.333 0 -22.5 2.5 -33.5 7.5s-21.167 11.833 -30.5 20.5s-17.5 18.167 -24.5 28.5
s-12.167 20.833 -15.5 31.5z" />
    <glyph glyph-name="z" unicode="z" horiz-adv-x="314" 
d="M131 174c3.33301 10 8.00098 20.1641 14.001 30.4971s11.833 21 17.5 32s10.667 21.833 15 32.5s6.5 21.334 6.5 32.001c0 4 -0.833008 9.16699 -2.5 15.5s-4 12.5 -7 18.5s-6.66699 11.333 -11 16s-9.5 7 -15.5 7h-113c-2.66699 0 -4.83398 1.5 -6.50098 4.5
s-2.83398 6.5 -3.50098 10.5c-1.33301 5.33301 -2 11 -2 17c7.33301 0 13.833 0.666992 19.5 2s11.167 2.83301 16.5 4.5s11 3.16699 17 4.5s12.333 2 19 2c18.667 0 36 -1.33301 52 -4s30 -7.66699 42 -15s21.333 -17.666 28 -30.999s10 -30.666 10 -51.999
c0 -24 -5.66699 -48.333 -17 -73s-25.5 -48.5 -42.5 -71.5s-35 -44.167 -54 -63.5s-36.5 -36 -52.5 -50h6c2.66699 0 5.83398 -0.166992 9.50098 -0.5s7 -0.5 10 -0.5h5.5c24.667 0 46.167 4.66699 64.5 14s34.166 21 47.499 35s24.666 29 33.999 45s17.5 31 24.5 45l18 35
c5 9.33301 9.83301 14 14.5 14c0 -43.333 -7.33301 -80 -22 -110s-34.667 -54.167 -60 -72.5s-55.166 -31.5 -89.499 -39.5s-71.166 -12 -110.499 -12v14c0 6 0.5 12 1.5 18s2.33301 12 4 18s4.16699 11 7.5 15z" />
    <glyph glyph-name="braceleft" unicode="{" horiz-adv-x="314" 
d="M148 -14c0 30.667 4.33789 59.8369 13.0049 87.5039s18.334 54 29.001 79s20.334 49 29.001 72s13 45.5 13 67.5h-118c-3.33301 0 -6.16602 1 -8.49902 3s-4.33301 4.83301 -6 8.5s-2.83398 7.16699 -3.50098 10.5s-1 6.33301 -1 9v5c0 1.33301 0.333008 2.33301 1 3
l88 92h-141l-6.5 8.5l-10.5 13.5c-0.666992 2 -2.16699 5.16699 -4.5 9.5s-3.5 6.83301 -3.5 7.5c0 25.333 6 48.666 18 69.999s26.667 41.5 44 60.5s35.5 37.167 54.5 54.5s35.5 34.333 49.5 51c6.66699 8.66699 10.167 16 10.5 22s1.16602 10.667 2.49902 14
s5.16602 5.83301 11.499 7.5s19.166 2.5 38.499 2.5c0 -19.333 -4.33301 -36.666 -13 -51.999s-19.334 -29.833 -32.001 -43.5s-26.834 -26.667 -42.501 -39s-30.334 -25 -44.001 -38s-25.5 -27 -35.5 -42s-16.333 -31.5 -19 -49.5c0 -2 1 -5.33301 3 -10
s4 -7.33398 6 -8.00098h9c4.66699 0 9.66699 -0.166992 15 -0.5s10.166 -0.5 14.499 -0.5h9.5c12.667 0 25.334 1 38.001 3s25 4.33301 37 7s24.167 5 36.5 7s24.833 3 37.5 3c8.66699 0 14.5 -1.66699 17.5 -5s4.5 -9.66602 4.5 -18.999
c0 -6.66699 -0.333008 -10.667 -1 -12s-3.33398 -4.33301 -8.00098 -9l-23 -19.5l-34 -28.5l-34.5 -28.5c-11 -9 -18.5 -15.5 -22.5 -19.5c2 -0.666992 6.33301 -2.33398 13 -5.00098s11 -4 13 -4c1.33301 0 5.5 0.5 12.5 1.5l22 3l22 3c7 1 11.5 1.5 13.5 1.5
c12.667 0 23.334 -2 32.001 -6s13 -12 13 -24c0 -8 -1.5 -15.333 -4.5 -22s-6.83301 -12.667 -11.5 -18l-15 -16.5c-5.33301 -5.66699 -10 -11.834 -14 -18.501c-12 -18 -22.833 -37.333 -32.5 -58s-18 -41.834 -25 -63.501s-12.333 -43.667 -16 -66
s-5.5 -44.166 -5.5 -65.499c0 -19.333 5.66699 -35 17 -47s25.166 -21 41.499 -27s33.833 -9.83301 52.5 -11.5s35.667 -2.5 51 -2.5h8c3.33301 0 6.66602 0.166992 9.99902 0.5s6.33301 0.5 9 0.5h4l209 52h16c0 -8 -5.5 -15.667 -16.5 -23s-25.333 -14.333 -43 -21
s-37 -12.667 -58 -18s-41.667 -9.83301 -62 -13.5s-38.666 -6.5 -54.999 -8.5s-28.5 -3 -36.5 -3c-22 0 -43.833 1.66699 -65.5 5s-41.167 9.66602 -58.5 18.999s-31.333 22.166 -42 38.499s-16 37.5 -16 63.5z" />
    <glyph glyph-name="bar" unicode="|" horiz-adv-x="130" 
d="M70 43c-3.33301 78 -7.16602 155.337 -11.499 232.004s-9.5 153.667 -15.5 231c0 5.33301 -0.666992 16 -2 32l-4.5 56.5l-5.5 69c-2 24.333 -4 47.166 -6 68.499s-3.5 40 -4.5 56s-1.83301 26.667 -2.5 32v6c0 2 0.5 4.66699 1.5 8s2.5 6.83301 4.5 10.5
s4.16699 6.5 6.5 8.5s5.16602 3 8.49902 3h1.5h1.5h1c3.33301 -2 7.16602 -5.33301 11.499 -10s6.5 -7.33398 6.5 -8.00098l44 -724c4.66699 -14.667 7.5 -26.834 8.5 -36.501s1.5 -21.167 1.5 -34.5v-12.5c0 -5 -0.5 -9.83301 -1.5 -14.5s-2.66699 -8.66699 -5 -12
s-6.16602 -5 -11.499 -5c-6 0 -10.667 1.5 -14 4.5s-5.83301 6.66699 -7.5 11s-3 9.16602 -4 14.499s-1.5 10 -1.5 14z" />
    <glyph glyph-name="braceright" unicode="}" horiz-adv-x="314" 
d="M-158 -96c4.66699 2 11.6699 5.16504 21.0029 9.49805l31.5 15l36.5 18l36 18.5l30.5 16c9 4.66699 15.833 8.33398 20.5 11.001c24.667 14 50.834 31 78.501 51s53.167 42.5 76.5 67.5s42.666 51.833 57.999 80.5s23 58.334 23 89.001
c0 53.333 -11.167 94.166 -33.5 122.499s-57.833 48.5 -106.5 60.5c-4.66699 0.666992 -12.334 3.33398 -23.001 8.00098s-21.5 10 -32.5 16s-20.833 12.167 -29.5 18.5s-13 12.166 -13 17.499c0 8 3.33301 15.5 10 22.5s15 14 25 21s20.667 14 32 21s22 14.667 32 23
s18.167 17.333 24.5 27s9.5 20.834 9.5 33.501c0 9.33301 -0.833008 17.833 -2.5 25.5s-8.16699 11.5 -19.5 11.5c-7.33301 0 -13.333 -1.83301 -18 -5.5s-8.83398 -8 -12.501 -13s-7.16699 -9.33301 -10.5 -13s-7.66602 -5.5 -12.999 -5.5
c-3.33301 0 -6.33301 1.33301 -9 4s-4.83398 6 -6.50098 10s-3 8 -4 12s-1.5 7.33301 -1.5 10c0 9.33301 2.16699 17 6.5 23s9.83301 10.833 16.5 14.5s14.334 6 23.001 7s16.667 1.5 24 1.5c1.33301 0 3.66602 -0.166992 6.99902 -0.5l10.5 -1
c3.66699 -0.333008 7.16699 -0.5 10.5 -0.5h7c12 -8 19.5 -18 22.5 -30s4.5 -24.333 4.5 -37v-12v-8l-9 -40c-2.66699 -12 -5.83398 -23.667 -9.50098 -35s-8.33398 -22.333 -14.001 -33s-12.834 -21.667 -21.501 -33v-1v-3v-2v-2c30.667 -14 56.5 -27.667 77.5 -41
s38.167 -28.5 51.5 -45.5s23 -37.667 29 -62s9 -54.5 9 -90.5c0 -29.333 -6.66699 -57.333 -20 -84s-30.666 -51.667 -51.999 -75s-45.666 -45.333 -72.999 -66s-55.333 -39.5 -84 -56.5s-56.5 -32.333 -83.5 -46l-72.5 -35.5c-10 -5.33301 -21.167 -9.5 -33.5 -12.5
s-24.5 -4.5 -36.5 -4.5h-8z" />
    <glyph glyph-name="asciitilde" unicode="~" horiz-adv-x="278" 
d="M284 625c0.666992 -8 0.336914 -18.999 -0.996094 -32.999s-3.5 -28.333 -6.5 -43s-6.5 -27.5 -10.5 -38.5s-8.33301 -16.833 -13 -17.5c-10.667 2 -21.834 7.33301 -33.501 16s-23.5 18.5 -35.5 29.5l-36.5 33.5c-12.333 11.333 -24.5 21 -36.5 29s-24 13 -36 15
s-23.667 -0.333008 -35 -7c-7.33301 -27.333 -15.5 -48.333 -24.5 -63s-16 -21 -21 -19s-6.5 12.667 -4.5 32s10 49 24 89c15.333 12 30.666 17.667 45.999 17s30.166 -4.83398 44.499 -12.501s28 -17.667 41 -30l37 -36.5c11.667 -12 22.5 -22.5 32.5 -31.5
s19.333 -13.5 28 -13.5c1.33301 0 2.83301 3.83301 4.5 11.5s3 16.5 4 26.5s1.66699 20 2 30s0.166016 17.667 -0.500977 23z" />
    <glyph glyph-name="nonbreakingspace" unicode="&#xa0;" horiz-adv-x="384" 
 />
    <glyph glyph-name="exclamdown" unicode="&#xa1;" horiz-adv-x="190" 
d="M71.8105 74.8896l0.000976562 -26.8203c0 -12.5146 0.162109 -25.7744 0.487305 -39.7793s0.487305 -27.2646 0.487305 -39.7793v-25.9238c1.94824 -4.76758 4.38281 -7.44922 7.30371 -8.04492c2.92188 -0.595703 6.00586 -0.893555 9.25293 -0.893555
c3.24609 0 6.49219 0.297852 9.73926 0.893555s5.51953 3.27734 6.81738 8.04492c0 5.36426 -0.162109 13.708 -0.486328 25.0312c-0.325195 11.3232 -0.487305 24.4336 -0.487305 39.332v90.2861c0 14.3027 0.162109 27.1152 0.487305 38.4385
c0.324219 11.3232 0.486328 19.667 0.486328 25.0312c0.649414 23.2412 2.92188 47.377 6.81738 72.4072l11.6875 73.3018c3.89551 24.4336 7.4668 48.7188 10.7139 72.8545c3.24609 24.1357 4.86914 47.8242 4.86914 71.0654
c0 2.97949 -0.162109 5.81055 -0.487305 8.49219c-0.324219 2.68262 -2.75879 4.91797 -7.30371 6.70605c-4.5459 -2.38379 -8.2793 -5.95996 -11.2002 -10.7275c-2.92188 -4.76758 -5.03223 -8.93945 -6.33105 -12.5146
c-18.1807 -61.9785 -29.8682 -122.914 -35.0625 -182.807c-5.19434 -59.8936 -7.79199 -121.425 -7.79199 -184.595zM105.899 564.755c0 -8.34277 3.08496 -14.6006 9.25391 -18.7725c6.16797 -4.1709 13.4727 -6.25684 21.9131 -6.25684
c13.6357 0 20.4531 6.85352 20.4531 20.5596c0 2.38379 -0.487305 5.21484 -1.46094 8.49219c-0.973633 3.27832 -2.43457 6.25781 -4.38281 8.93945s-4.2207 5.06543 -6.81738 7.15137c-2.59766 2.08594 -5.19531 3.12891 -7.79199 3.12891
c-7.79199 0 -14.9346 -2.23438 -21.4277 -6.7041s-9.73926 -9.98242 -9.73926 -16.5381z" />
    <glyph glyph-name="cent" unicode="&#xa2;" horiz-adv-x="260" 
d="M17 100c0 5.33301 0.498047 15.165 1.49805 29.498s2.83301 30.833 5.5 49.5s6 38 10 58s9.16699 38.167 15.5 54.5s13.833 30 22.5 41s18.667 16.5 30 16.5h7c0 12 0.333008 22.667 1 32c0.666992 20.667 2.16699 34 4.5 40s5.5 0 9.5 -18
c3.33301 -12.667 7 -31.667 11 -57c8.66699 -1.33301 17 -3.33301 25 -6c16 -6.66699 27.667 -15.167 35 -25.5s10.666 -21.333 9.99902 -33s-6.33398 -22.167 -17.001 -31.5c-5.33301 3.33301 -8.83301 7.33301 -10.5 12s-2.66699 9.66699 -3 15s-1 10.5 -2 15.5
s-3.33301 9 -7 12s-9.5 4.83301 -17.5 5.5h-7c0 -0.666992 0.333008 -1.66699 1 -3c6.66699 -46 15 -110.333 25 -193c4 -14.667 6.66699 -27 8 -37c0.666992 -6.66699 1.33398 -14 2.00098 -22c6.66699 4.66699 13.334 9.66699 20.001 15c14 10 27.167 21.167 39.5 33.5
l34.5 35.5h19l-0.5 -3.5c-0.333008 -2.33301 -0.833008 -4.16602 -1.5 -5.49902c-9.33301 -19.333 -21 -37 -35 -53s-29.333 -29.667 -46 -41c-9.33301 -6.66699 -19.333 -12.667 -30 -18c0.666992 -8.66699 0.333984 -17.667 -0.999023 -27
c-0.666992 -11.333 -2 -21.166 -4 -29.499s-6 -12.5 -12 -12.5c-5.33301 0 -9.66602 4.16699 -12.999 12.5s-6.33301 17.5 -9 27.5c-1.33301 5.33301 -2 10.333 -2 15c-14.667 -3.33301 -29.667 -5 -45 -5s-27.833 2.5 -37.5 7.5s-17.167 12 -22.5 21s-9 19.667 -11 32
s-3 25.833 -3 40.5zM131.998 42.999c-3.33301 18 -6.49902 42.001 -9.49902 72.001s-5.5 61.167 -7.5 93.5s-3.33301 64.166 -4 95.499c-13.333 -9.33301 -24 -22 -32 -38c-8 -16.667 -14.167 -35 -18.5 -55s-6.83301 -39.667 -7.5 -59s-1 -36.666 -1 -51.999
c0 -18.667 3.5 -34.334 10.5 -47.001s21.167 -19 42.5 -19c9.33301 0 18.666 1 27.999 3c-0.666992 2 -1 4 -1 6z" />
    <glyph glyph-name="sterling" unicode="&#xa3;" horiz-adv-x="485" 
d="M90 34c-2.66699 22 -3.16211 41.1641 -1.49512 57.4971s3.66699 31.833 6 46.5s5 29.5 8 44.5s5.16699 32.5 6.5 52.5c-14.667 0 -26.834 -3.16699 -36.501 -9.5s-19.5 -14.166 -29.5 -23.499h-4h-5c-12 0 -18 6 -18 18s6 22.167 18 30.5s25 15.333 39 21
s27 10.5 39 14.5s18 8 18 12c-7.33301 40 -7.66602 75.333 -0.999023 106s17.5 56.5 32.5 77.5s32.833 37.167 53.5 48.5s41.5 17.666 62.5 18.999s41.167 -2.16699 60.5 -10.5s35 -21.5 47 -39.5c-2 2 -5 -0.333008 -9 -7s-7.66699 -14.334 -11 -23.001l-9 -23
c-2.66699 -6.66699 -4 -8.66699 -4 -6c-4 19.333 -12.167 32.833 -24.5 40.5s-26.333 10.5 -42 8.5s-31.834 -8 -48.501 -18s-31 -22.833 -43 -38.5s-20.333 -33.5 -25 -53.5s-3.33398 -41 3.99902 -63c1.33301 0 4.16602 1 8.49902 3l13.5 6c4.66699 2 9 3.66699 13 5l9 3
h9l2 -7c1.33301 -4.66699 2.83301 -9.5 4.5 -14.5s3 -9.83301 4 -14.5s1.5 -7.33398 1.5 -8.00098l-74 -34c-0.666992 0.666992 -2.66699 -3.66602 -6 -12.999s-6.83301 -21.5 -10.5 -36.5s-7 -31.833 -10 -50.5s-4.83301 -36.334 -5.5 -53.001s0.333008 -31.334 3 -44.001
s7.66699 -20.667 15 -24c9.33301 6.66699 21.5 13.334 36.5 20.001s31.5 12.334 49.5 17.001s36.833 8.16699 56.5 10.5s38.5 2.83301 56.5 1.5s35 -5 51 -11s29.333 -15 40 -27c0.666992 0 1.5 -1.83301 2.5 -5.5s2.16699 -7.66699 3.5 -12s2.33301 -8.5 3 -12.5l2 -5
c1.33301 -1.33301 -3 -0.666016 -13 2.00098s-23.333 5.66699 -40 9s-35.834 6.5 -57.501 9.5s-43.667 4.33301 -66 4s-44 -3.16602 -65 -8.49902s-39.5 -14.333 -55.5 -27c-6 0 -12.667 0.333008 -20 1s-14 2.33398 -20 5.00098s-11.333 6.33398 -16 11.001
s-7.33398 10.667 -8.00098 18z" />
    <glyph glyph-name="currency" unicode="&#xa4;" horiz-adv-x="556" 
d="M212 88c-8.66699 0 -16.4971 0.49707 -23.4971 1.49707s-13 2.5 -18 4.5s-10 5.16699 -15 9.5s-10.5 10.166 -16.5 17.499c-1.33301 -2 -4.33301 -5.66699 -9 -11l-15.5 -17c-5.66699 -6 -11 -11.333 -16 -16s-8.5 -7 -10.5 -7c-6.66699 0 -11.834 1.33301 -15.501 4
s-7.5 7.33398 -11.5 14.001l16.5 20l21.5 27l21.5 27l15.5 19c0 18 1.33301 37 4 57s6.5 39.667 11.5 59s11.5 37.833 19.5 55.5s17.667 33.834 29 48.501c-3.33301 8.66699 -8.33301 18.334 -15 29.001c-17.333 0 -31.833 -2.5 -43.5 -7.5s-21.167 -8.66699 -28.5 -11
s-12.666 -1.33301 -15.999 3s-5 16.166 -5 35.499l42.5 18.5c15 6.33301 29.833 9.5 44.5 9.5c16 0 28.333 -4.5 37 -13.5s14 -20.5 16 -34.5c11.333 8 24 14.333 38 19s29.667 7 47 7c12 0 21.667 -2.83301 29 -8.5s13 -13.5 17 -23.5c2 0 7.66699 2.83301 17 8.5l29.5 18
c10.333 6.33301 19.833 11.833 28.5 16.5s13.334 6 14.001 4c10 -1.33301 16.167 -4 18.5 -8s1.66602 -8.5 -2.00098 -13.5s-9.16699 -10.5 -16.5 -16.5s-15.833 -11.5 -25.5 -16.5s-19.334 -9.16699 -29.001 -12.5s-18.5 -5.66602 -26.5 -6.99902
c2 -11.333 3 -23.333 3 -36v-33c0 -26.667 -2.83301 -54.834 -8.5 -84.501s-15.834 -56.834 -30.501 -81.501c4 -11.333 9.66699 -21.166 17 -29.499s16.666 -13.166 27.999 -14.499c12 -0.666992 23.167 0.333008 33.5 3s20.666 5.83398 30.999 9.50098l30.5 10.5
c10 3.33301 21 5 33 5c0 -10.667 -4.5 -20 -13.5 -28s-19.667 -14.5 -32 -19.5s-25 -8.83301 -38 -11.5s-23.5 -4 -31.5 -4c-21.333 0 -38.666 4 -51.999 12s-24 18.667 -32 32c-12 -12 -25.833 -21.5 -41.5 -28.5s-34.167 -10.5 -55.5 -10.5zM169.003 132.997
c6 -6 13 -8.99707 21 -8.99707h24c25.333 0 46 6.5 62 19.5s28.5 29.333 37.5 49s15.167 41 18.5 64s5 44.5 5 64.5c0 36 -3 61.833 -9 77.5s-13.5 24.667 -22.5 27s-18.667 -0.333984 -29 -8.00098s-20 -16.834 -29 -27.501s-16.833 -20.667 -23.5 -30s-10 -15 -10 -17
l-30.5 -86.5c-9.66699 -27.667 -14.5 -56.834 -14.5 -87.501v-8v-10v-11v-7z" />
    <glyph glyph-name="yen" unicode="&#xa5;" horiz-adv-x="458" 
d="M133 45l9.99707 -0.000976562c5.33301 0 10.666 0.166992 15.999 0.5s10.666 0.5 15.999 0.5h9c8 0 19 -0.333008 33 -1c11.333 -0.666992 23.333 -1.33398 36 -2.00098c2 5.33301 3.33301 10.333 4 15c3.33301 17.333 6.33301 34.333 9 51l3 20l-76 -4
c-8 -4 -14.833 -8 -20.5 -12s-11.5 -7.66699 -17.5 -11s-12.333 -6 -19 -8s-14.667 -3 -24 -3c-6 0 -12.5 1.83301 -19.5 5.5s-10.5 9.83398 -10.5 18.501c0 6.66699 2 12.167 6 16.5s8.5 7.66602 13.5 9.99902s10.333 4 16 5s9.83398 2.16699 12.501 3.5
c4.66699 1.33301 10.667 2.66602 18 3.99902l21 6c8 2 14.833 3.5 20.5 4.5s8.83398 1.5 9.50098 1.5h67c-34 7.33301 -65.667 17.333 -95 30c-31.333 14 -58.333 32 -81 54s-40.5 48.167 -53.5 78.5s-19.5 65.833 -19.5 106.5c0 6 -0.166992 14.167 -0.5 24.5
s0.5 20.166 2.5 29.499s5.5 17.5 10.5 24.5s12.5 10.5 22.5 10.5c9.33301 0 16.166 -1 20.499 -3s6.5 -8 6.5 -18c0 -8.66699 -1 -17 -3 -25l-6 -23.5l-6 -24c-2 -8.33301 -3 -16.5 -3 -24.5c0 -24 5 -47.5 15 -70.5s23.5 -43.167 40.5 -60.5s36.5 -31.333 58.5 -42
s45 -16 69 -16h7c3.33301 0 7 0.166992 11 0.5s7.33301 0.5 10 0.5h8c12 8 22.5 21.333 31.5 40s17.5 39.834 25.5 63.501s15.5 48.167 22.5 73.5s14.667 48.333 23 69s17.5 37.667 27.5 51s21.667 20 35 20c0.666992 0 2 -1 4 -3s3.33301 -4 4 -6
c0.666992 -0.666992 1.33398 -3.16699 2.00098 -7.5s1.33398 -9.16602 2.00098 -14.499s1.5 -11 2.5 -17s1.83301 -10.333 2.5 -13v-4c-4.66699 -32 -13 -62.5 -25 -91.5s-25.667 -57.167 -41 -84.5l-47 -82l-24 -46h95c0.666992 0 2.83398 -1 6.50098 -3
s5.83398 -3.66699 6.50098 -5v-1l1 -3l-1 -2v-2c0 -1.33301 -1 -3 -3 -5l-3 -3c-39.333 -7.33301 -78.333 -11.333 -117 -12h-3c-12 -28 -21 -57 -27 -87v-3c12 0 24.333 -0.666992 37 -2c18 -1.33301 34.333 -3.16602 49 -5.49902s26.667 -4.83301 36 -7.5
s14 -5.66699 14 -9l-0.5 -1c-0.333008 -0.666992 -0.5 -1.33398 -0.5 -2.00098v-1c0 -1.33301 -1 -3 -3 -5s-3.33301 -3 -4 -3h-133c-0.666992 -18 0.666016 -37 3.99902 -57c0 -24 1.83301 -47.5 5.5 -70.5s5.5 -46.5 5.5 -70.5c-8.66699 0 -16 3 -22 9
s-10.667 13.667 -14 23s-5.83301 19.833 -7.5 31.5s-2.66699 23 -3 34s-0.333008 21.167 0 30.5s0.5 16.333 0.5 21c0 16.667 1 33 3 49h-153c0 8 1 14.333 3 19s4.83301 8.33398 8.5 11.001s7.83398 4.83398 12.501 6.50098s9.66699 3.16699 15 4.5z" />
    <glyph glyph-name="brokenbar" unicode="&#xa6;" horiz-adv-x="93" 
d="M20 333l1.99902 238c0 6.66699 2.83301 13 8.5 19s11.834 9 18.501 9c0.666992 0 2 -0.166992 4 -0.5s3.33301 -0.5 4 -0.5c7.33301 -24 11.5 -57.5 12.5 -100.5s-1.83301 -98.833 -8.5 -167.5zM57.999 291c0.666992 -39.333 1.66797 -73.499 3.00098 -102.499
s2.66602 -53.5 3.99902 -73.5s2.66602 -36.5 3.99902 -49.5s2.5 -23.833 3.5 -32.5s1.83301 -15.334 2.5 -20.001s1 -9 1 -13l-44 -4c-2 0 -3.66699 4.5 -5 13.5s-2.16602 24.833 -2.49902 47.5s-0.5 53 -0.5 91v144z" />
    <glyph glyph-name="section" unicode="&#xa7;" horiz-adv-x="340" 
d="M59 109c0 2.66699 0.169922 7.83203 0.50293 15.499s0.5 12.5 0.5 14.5c0.666992 2 3.16699 4.33301 7.5 7s7.5 3.66699 9.5 3c4 -0.666992 8.16699 -4.16699 12.5 -10.5s9 -14 14 -23l17 -29.5c6.33301 -10.667 14 -20.667 23 -30s19 -17.5 30 -24.5
s24.167 -11.833 39.5 -14.5c4.66699 -0.666992 8.16699 -0.5 10.5 0.5s4.16602 2.5 5.49902 4.5s2 4.33301 2 7v8c3.33301 13.333 0.666016 27.5 -8.00098 42.5s-20.5 31 -35.5 48l-49.5 53.5c-18 18.667 -34.333 38.167 -49 58.5s-26 41.5 -34 63.5s-10 44.333 -6 67
c0 6 2.5 13.167 7.5 21.5s11.167 16.833 18.5 25.5v4c0.666992 1.33301 2.5 2.83301 5.5 4.5s5.5 3.16699 7.5 4.5c10 10 20.333 17 31 21c-10.667 21.333 -17.667 44 -21 68s0.333984 50 11.001 78c0 6.66699 3.16699 14.834 9.5 24.501s14 19.167 23 28.5
s18.667 17.166 29 23.499s19.166 9.5 26.499 9.5c10.667 0 20.667 -2 30 -6s17 -10.333 23 -19l23 -35.5c9.33301 -14.333 17.333 -28.5 24 -42.5s11 -26.5 13 -37.5s-1 -17.833 -9 -20.5c-9.33301 0 -17 2.66699 -23 8s-11.167 12 -15.5 20s-8.16602 17 -11.499 27
s-6.83301 19 -10.5 27s-8.33398 14.667 -14.001 20s-12.834 8 -21.501 8c-12 0 -22.333 -3.66699 -31 -11s-15.834 -16.5 -21.501 -27.5s-9.83398 -22.5 -12.501 -34.5s-4 -23 -4 -33c0 -13.333 2.5 -26 7.5 -38s10.833 -23.667 17.5 -35c24.667 -12 44.167 -25 58.5 -39
s25 -28.833 32 -44.5s11.5 -31.167 13.5 -46.5s3 -30.666 3 -45.999c0 -6 -1.5 -12.333 -4.5 -19s-7 -12.667 -12 -18s-10.667 -9.83301 -17 -13.5s-12.833 -5.5 -19.5 -5.5c-4 0 -9.66699 1.33301 -17 4s-15.666 5.5 -24.999 8.5s-18.833 6.33301 -28.5 10
s-18.167 6.5 -25.5 8.5l49.5 -44.5c18.333 -17 35.333 -35.167 51 -54.5s28.834 -39.5 39.501 -60.5s16 -42.167 16 -63.5c0 -6.66699 -1.5 -13.167 -4.5 -19.5s-7 -12.333 -12 -18s-10.667 -10.167 -17 -13.5s-12.833 -5 -19.5 -5c-19.333 0 -38.5 4 -57.5 12
s-36.333 18.5 -52 31.5s-28.5 27.667 -38.5 44s-15 32.5 -15 48.5zM205.003 264.998c14.667 6 24.666 13.6699 29.999 23.0029s7.33301 19.166 6 29.499s-5.16602 20.666 -11.499 30.999s-14 19.5 -23 27.5s-18.667 14.667 -29 20s-20.166 8.33301 -29.499 9h-2l-1 1
c-12 0 -23 -4.33301 -33 -13c-12 -9.33301 -17.5 -20.833 -16.5 -34.5s6.5 -26.834 16.5 -39.501s23.167 -24.167 39.5 -34.5s34.166 -16.833 53.499 -19.5z" />
    <glyph glyph-name="dieresis" unicode="&#xa8;" horiz-adv-x="380" 
d="M84 546c0 6.66699 1.5 13.332 4.5 19.999s8.83301 10 17.5 10c8 0 15.167 -2.66699 21.5 -8s9.5 -11.666 9.5 -18.999c0 -9.33301 -3 -16.166 -9 -20.499s-13 -6.5 -21 -6.5c-8.66699 0 -14.667 1.66699 -18 5s-5 9.66602 -5 18.999zM227 545.998
c0 6.66699 1.66504 13.332 4.99805 19.999s9.33301 10 18 10c7.33301 0 14.333 -2.66699 21 -8s10 -11.666 10 -18.999c0 -9.33301 -3.16699 -16.166 -9.5 -20.499s-13.166 -6.5 -20.499 -6.5c-9.33301 0 -15.666 1.66699 -18.999 5s-5 9.66602 -5 18.999z" />
    <glyph glyph-name="copyright" unicode="&#xa9;" horiz-adv-x="479" 
d="M14 178c0 20 2.16504 41.8311 6.49805 65.498s10.833 47.667 19.5 72s19.334 47.833 32.001 70.5s27.5 42.834 44.5 60.501s36 31.834 57 42.501s43.833 16 68.5 16c21.333 0 41 -4.66699 59 -14s34.333 -21.666 49 -36.999s27.834 -33 39.501 -53s21.5 -40.333 29.5 -61
s14.167 -41.334 18.5 -62.001s6.5 -39 6.5 -55c0 -36 -8.66699 -67.5 -26 -94.5s-39.5 -49.5 -66.5 -67.5s-57 -31.5 -90 -40.5s-65.167 -13.5 -96.5 -13.5c-28.667 0 -52.667 4 -72 12s-34.833 19.5 -46.5 34.5s-20 33 -25 54s-7.5 44.5 -7.5 70.5zM48.998 155.998
c0 -19.333 2.99902 -35.666 8.99902 -48.999s14.5 -24.166 25.5 -32.499s23.833 -14.333 38.5 -18s31 -5.5 49 -5.5c28 0 56.167 3.16699 84.5 9.5s54 16.5 77 30.5s41.5 32.167 55.5 54.5s21 49.5 21 81.5c0 14 -1.66699 29.667 -5 47s-8.16602 35.166 -14.499 53.499
s-14.166 36 -23.499 53s-20 32.167 -32 45.5s-25.5 24.166 -40.5 32.499s-30.5 12.5 -46.5 12.5c-11.333 0 -20.833 -0.5 -28.5 -1.5s-17.167 -3.83301 -28.5 -8.5v-8c0 -1.33301 0.5 -3.16602 1.5 -5.49902s2 -5 3 -8s2 -5.83301 3 -8.5s1.5 -4.33398 1.5 -5.00098
c0 -6.66699 -1.66699 -11.334 -5 -14.001s-7.33301 -4.66699 -12 -6s-9.5 -2.16602 -14.5 -2.49902s-9.16699 -1.5 -12.5 -3.5c-22 -9.33301 -39.833 -23.5 -53.5 -42.5s-24.334 -40 -32.001 -63s-13 -46.667 -16 -71s-4.5 -46.833 -4.5 -67.5zM130.997 167.998
c0 3.33301 0.499023 10.1689 1.49902 20.502s2.83301 22 5.5 35s5.66699 26.667 9 41s7.5 27.5 12.5 39.5s10.833 21.833 17.5 29.5s14 11.5 22 11.5c10 0 18 -3.5 24 -10.5s10.833 -15.167 14.5 -24.5s6 -18.833 7 -28.5s1.5 -17.167 1.5 -22.5
c-10.667 0 -17.667 1.5 -21 4.5s-5.5 6.66699 -6.5 11s-2.16699 8.83301 -3.5 13.5s-5.66602 8.33398 -12.999 11.001c-10.667 -6 -19.167 -14.333 -25.5 -25s-11 -22.334 -14 -35.001s-4.66699 -25.334 -5 -38.001s-0.5 -23.667 -0.5 -33
c0 -12.667 2.5 -22.834 7.5 -30.501s15.5 -11.5 31.5 -11.5c12.667 0 24.834 2.16699 36.501 6.5s22.5 9.83301 32.5 16.5s19.667 13.834 29 21.501s17.666 15.167 24.999 22.5h14c0 -2 -0.666992 -4 -2 -6c-14 -24.667 -33.667 -44.834 -59 -60.501s-54 -23.5 -86 -23.5
c-11.333 0 -20.5 1.66699 -27.5 5s-12.5 7.83301 -16.5 13.5s-6.83301 12.5 -8.5 20.5s-2.5 16.667 -2.5 26z" />
    <glyph glyph-name="ordfeminine" unicode="&#xaa;" horiz-adv-x="317" 
d="M142.85 213.507c-6.1416 -6.34473 -13.2051 -13.0449 -21.1885 -20.0947s-16.5811 -13.5713 -25.793 -19.5635c-9.21191 -5.99316 -18.834 -11.0166 -28.8652 -15.0703c-10.0303 -4.05371 -20.3682 -6.08105 -31.0137 -6.08105
c-21.6992 0 -32.5488 8.98828 -32.5488 26.9658c0 7.40332 3.58203 17.1855 10.7471 29.3467s16.4795 24.9395 27.9434 38.334c11.4639 13.3955 24.1562 26.3496 38.0771 38.8633s27.8418 22.9121 41.7627 31.1963s26.7148 13.4834 38.3828 15.5977
c11.6689 2.11523 21.1885 -0.880859 28.5586 -8.98828c0 -9.51758 -0.818359 -19.0352 -2.45605 -28.5527l-4.91309 -28.2881l-4.91309 -27.7588c-1.6377 -9.16504 -2.45703 -18.5059 -2.45703 -28.0225c0 -2.11523 0.306641 -5.37598 0.920898 -9.78223
s1.6377 -8.8125 3.07031 -13.2188s3.37695 -8.28418 5.83301 -11.6328s5.73145 -5.02246 9.82617 -5.02246c9.82617 0 17.9121 1.05762 24.2588 3.17188c6.3457 2.11523 11.873 4.6709 16.5811 7.66699c4.70801 2.99707 8.80273 6.43359 12.2832 10.3105
c3.47949 3.87793 7.16406 7.75586 11.0537 11.6338s8.29102 7.5791 13.2041 11.1035c4.91309 3.52539 11.2598 6.3457 19.0391 8.45996v-1.58594v-2.64355c0 -8.8125 -3.07129 -17.5371 -9.21289 -26.1738c-6.1416 -8.63574 -13.9209 -16.3027 -23.3379 -23
s-19.96 -12.0732 -31.6289 -16.127s-23.0303 -6.08008 -34.084 -6.08008c-9.41699 0 -16.9912 2.29102 -22.7227 6.87305c-5.73145 4.58301 -10.3379 10.0469 -13.8184 16.3916c-3.47949 6.34473 -6.03809 13.3066 -7.67578 20.8857s-3.27539 14.541 -4.91309 20.8857z
M153.902 282.771c4.09473 11.6318 5.62793 19.5645 4.60449 23.7939c-1.02344 4.23047 -3.99219 5.90527 -8.90527 5.02344s-11.2588 -3.87793 -19.0381 -8.98828c-7.7793 -5.11133 -16.1729 -11.2803 -25.1797 -18.5068
c-9.00684 -7.22559 -18.0137 -15.2451 -27.0205 -24.0576l-25.1797 -25.1152c-7.7793 -7.93164 -14.125 -15.0703 -19.0381 -21.415s-7.9834 -10.9268 -9.21094 -13.7471c-2.45703 -8.10742 -2.76465 -14.2764 -0.921875 -18.5059
c1.84277 -4.23047 4.70898 -7.13867 8.59863 -8.72461s8.18848 -1.85059 12.8965 -0.792969s8.7002 2.64355 11.9756 4.75879c6.95996 5.28711 15.7627 12.4248 26.4082 21.4141c10.6445 8.98926 20.9824 18.5947 31.0137 28.8164
c10.0303 10.2227 18.7305 20.3574 26.1006 30.4033s11.6689 18.5938 12.8965 25.6436z" />
    <glyph glyph-name="guillemotleft" unicode="&#xab;" horiz-adv-x="612" 
d="M205 197c2.66699 7.33301 12.335 16.834 29.002 28.501s36.667 23.834 60 36.501s48.666 25.334 75.999 38.001s53.333 23.667 78 33s46.5 16.5 65.5 21.5s31.833 6.16699 38.5 3.5l-11 -30c-8 -3.33301 -22 -9.66602 -42 -18.999l-64.5 -30l-64.5 -30l-42 -20l-11 -7
l-17.5 -10.5l-17.5 -10.5l-11 -7l-2 -2c-0.666992 -0.666992 -1 -1.33398 -1 -2.00098v-4c0.666992 -1.33301 2.83398 -4 6.50098 -8s5.83398 -6.33301 6.50098 -7c35.333 -22 72.333 -43.167 111 -63.5s77.334 -38.5 116.001 -54.5c0.666992 -0.666992 1.66699 -2.5 3 -5.5
s1.66602 -4.83301 0.999023 -5.5v-5l-1 -1c-0.666992 -0.666992 -1 -1.33398 -1 -2.00098c-1.33301 -0.666992 -3 -1.66699 -5 -3l-6 -3l-14 3.5c-6.66699 1.66699 -13.5 3.16699 -20.5 4.5s-13.833 2.83301 -20.5 4.5s-11.334 2.5 -14.001 2.5
c-0.666992 0 -1.83398 0.5 -3.50098 1.5s-3.16699 1.83301 -4.5 2.5l-31 13c-14 6 -29.5 13.167 -46.5 21.5s-34.333 17.666 -52 27.999s-33.334 20.666 -47.001 30.999s-24.5 20.333 -32.5 30s-10.667 18.5 -8 26.5zM19.001 207.001
c2.66699 7.33301 12.166 16.8369 28.499 28.5039s36.166 23.834 59.499 36.501s48.5 25.167 75.5 37.5s53 23.166 78 32.499s46.833 16.5 65.5 21.5s31.334 6.16699 38.001 3.5l-11 -28l-24.5 -12l-37.5 -18l-44 -21l-44 -20.5c-14 -6.33301 -26.333 -12.166 -37 -17.499
l-24 -12l-12.5 -6.5c-5.66699 -3 -11.5 -6.33301 -17.5 -10l-17.5 -11c-5.66699 -3.66699 -9.5 -6.5 -11.5 -8.5l-1 -2l-1 -1c-0.666992 0 -1 -1 -1 -3c0 -0.666992 0.333008 -1.33398 1 -2.00098s2.66699 -2.83398 6 -6.50098s5.66602 -5.83398 6.99902 -6.50098
c34.667 -22 71.334 -43.333 110.001 -64s77.334 -39 116.001 -55c1.33301 -0.666992 2.5 -2.33398 3.5 -5.00098s1.5 -4.33398 1.5 -5.00098v-2c0 -0.666992 -0.166992 -1.33398 -0.5 -2.00098s-0.5 -1.33398 -0.5 -2.00098l-1 -2l-1 -1
c-0.666992 -1.33301 -2.33398 -2.5 -5.00098 -3.5s-4.66699 -1.83301 -6 -2.5l-14 3.5l-21 5l-20 4.5c-6 1.33301 -10.333 2.33301 -13 3c-0.666992 0.666992 -2.16699 1.33398 -4.5 2.00098s-3.83301 1.33398 -4.5 2.00098c-6.66699 2 -17 6.16699 -31 12.5l-46.5 22
c-17 8.33301 -34.167 17.5 -51.5 27.5s-33 20.167 -47 30.5s-24.667 20.5 -32 30.5s-9.66602 19 -6.99902 27z" />
    <glyph glyph-name="logicalnot" unicode="&#xac;" horiz-adv-x="492" 
d="M427 211l-48.0039 5.99707l2 123c-1.33301 0.666992 -4.5 1.83398 -9.5 3.50098s-7.83301 2.5 -8.5 2.5c-21.333 4 -43.166 6.66699 -65.499 8s-44.833 2.33301 -67.5 3s-45.167 1.5 -67.5 2.5s-43.833 2.5 -64.5 4.5c-0.666992 0.666992 -1 1.33398 -1 2.00098v1.5v2.5
v2v1c0 0.666992 -0.5 2.5 -1.5 5.5s-2 6.16699 -3 9.5s-2 6.33301 -3 9s-1.16699 4 -0.5 4c6.66699 4.66699 20.334 7.83398 41.001 9.50098s44.834 2.16699 72.501 1.5s56.334 -2.5 86.001 -5.5s56.667 -7 81 -12s43.5 -10.833 57.5 -17.5s19 -14 15 -22z" />
    <glyph glyph-name="uni00AD" unicode="&#xad;" horiz-adv-x="352" 
d="M40 330c0 6.66699 1.00195 11.832 3.00195 15.499s7 7.16699 15 10.5c21.333 -1.33301 41.5 -2.33301 60.5 -3s38.167 -0.5 57.5 0.5s39 2.5 59 4.5s42 4.66699 66 8h4c5.33301 0 11.666 -2 18.999 -6s11 -9 11 -15c0 -7.33301 -0.666992 -14.5 -2 -21.5
s-6 -10.5 -14 -10.5c-6 0 -11.5 1.66699 -16.5 5s-10.167 5 -15.5 5h-4c-20 -4.66699 -35.667 -8 -47 -10s-21 -3.5 -29 -4.5s-14.833 -1.33301 -20.5 -1s-12.667 0.833008 -21 1.5s-18.833 1.33398 -31.5 2.00098s-29 1 -49 1h-8c-2.66699 0 -6 0.166992 -10 0.5
s-7.66699 0.5 -11 0.5h-7c-4.66699 2 -7.33398 4.5 -8.00098 7.5s-1 6.16699 -1 9.5z" />
    <glyph glyph-name="registered" unicode="&#xae;" horiz-adv-x="527" 
d="M53 216c0 19.333 2.16699 40.833 6.5 64.5s10.666 47.667 18.999 72s19 47.833 32 70.5s28 43 45 61s35.833 32.333 56.5 43s43.334 16 68.001 16c21.333 0 41 -4.83301 59 -14.5s34.5 -22 49.5 -37s28.167 -32.5 39.5 -52.5s21 -40.5 29 -61.5s14.167 -41.667 18.5 -62
s6.5 -38.833 6.5 -55.5c0 -35.333 -8.66699 -66.5 -26 -93.5s-39.5 -49.5 -66.5 -67.5s-57 -31.667 -90 -41s-65.167 -14 -96.5 -14c-28.667 0 -52.5 4 -71.5 12s-34.333 19.5 -46 34.5s-20 33 -25 54s-7.5 44.833 -7.5 71.5zM88 193
c0 -18.667 3.00391 -34.666 9.00391 -47.999s14.333 -24.166 25 -32.499s23.5 -14.5 38.5 -18.5s31.5 -6 49.5 -6c32.667 0 65.167 4.5 97.5 13.5s60.166 23.5 83.499 43.5c-17.333 -3.33301 -34.5 -3.66602 -51.5 -0.999023s-33 7.66699 -48 15s-28.5 16.666 -40.5 27.999
s-21.333 24 -28 38h-3c-0.666992 0 -1.5 -2.83301 -2.5 -8.5l-2.5 -14.5c-0.666992 -3.33301 -0.833984 -8.5 -0.500977 -15.5s0.5 -14.167 0.5 -21.5s-0.333008 -14.333 -1 -21s-2 -10.667 -4 -12l-15 -1h-3c-1.33301 0.666992 -3 1.83398 -5 3.50098s-3 3.16699 -3 4.5
c-0.666992 2 -1.16699 7.5 -1.5 16.5s-0.666016 18.5 -0.999023 28.5s-0.5 19.333 -0.5 28s-0.333008 14.334 -1 17.001v3c0 3.33301 -0.333008 10.5 -1 21.5s-1.33398 23 -2.00098 36s-1.16699 25.167 -1.5 36.5s-0.5 18.333 -0.5 21v2c0 12 2.16699 24.667 6.5 38
s10.666 25.833 18.999 37.5s18.166 21.5 29.499 29.5s24 12 38 12c8 0 16.5 -2.33301 25.5 -7s17.5 -10.334 25.5 -17.001s14.5 -14 19.5 -22s7.5 -15.667 7.5 -23c3.33301 -11.333 3.5 -22 0.5 -32s-7.83301 -19.333 -14.5 -28s-14.5 -16.834 -23.5 -24.501
s-18.167 -14.667 -27.5 -21l-25.5 -17.5c-7.66699 -5.33301 -13.5 -10 -17.5 -14c0 -6.66699 3.5 -13.834 10.5 -21.501s15 -15.167 24 -22.5s18.5 -14 28.5 -20s18 -10.333 24 -13c2 -0.666992 5 -1.83398 9 -3.50098s8.33301 -3.66699 13 -6l13.5 -6.5
c4.33301 -2 7.5 -3.33301 9.5 -4c4 -1.33301 9.66699 -2.16602 17 -2.49902s13.666 -1.5 18.999 -3.5c12.667 14 22.834 29.833 30.501 47.5s11.5 37.834 11.5 60.501c0 14 -1.83301 29.5 -5.5 46.5s-8.66699 34.667 -15 53s-14.166 36.166 -23.499 53.499
s-20 32.666 -32 45.999s-25.333 24 -40 32s-30.334 12 -47.001 12c-11.333 0 -20.833 -0.5 -28.5 -1.5s-17.167 -3.5 -28.5 -7.5v-9c-17.333 -15.333 -34.5 -33.333 -51.5 -54s-32 -43.5 -45 -68.5s-23.5 -52.167 -31.5 -81.5s-12 -60.333 -12 -93zM211.004 375.001
c0 -12.667 -0.500977 -25.999 -1.50098 -39.999s2.5 -26.667 10.5 -38c4 2.66699 11.5 8 22.5 16s22 17 33 27s20.667 20 29 30s12.5 18 12.5 24c0 13.333 -5.16699 22.166 -15.5 26.499s-22.166 6.5 -35.499 6.5c-18.667 0 -32.5 -4.83301 -41.5 -14.5
s-13.5 -22.167 -13.5 -37.5z" />
    <glyph glyph-name="macron" unicode="&#xaf;" horiz-adv-x="352" 
d="M35 533c0 7.33301 1.16699 12.665 3.5 15.998s7.5 6.66602 15.5 9.99902c20.667 -1.33301 40.5 -2.16602 59.5 -2.49902s38.167 -0.166016 57.5 0.500977s39.166 2 59.499 4s42.166 4.66699 65.499 8h5c4.66699 0 10.834 -2 18.501 -6s11.5 -9 11.5 -15
c0 -6.66699 -0.833008 -13.5 -2.5 -20.5s-6.5 -10.5 -14.5 -10.5c-6 0 -11.333 1.5 -16 4.5s-9.66699 4.5 -15 4.5h-4l-47 -9.5c-12 -2.33301 -22 -4 -30 -5s-14.833 -1.33301 -20.5 -1s-12.667 0.833008 -21 1.5s-18.666 1.33398 -30.999 2.00098s-28.833 1 -49.5 1h-7
c-3.33301 0 -6.83301 0.166992 -10.5 0.5s-7.16699 0.5 -10.5 0.5h-7c-5.33301 2 -8.33301 4.5 -9 7.5s-1 6.16699 -1 9.5z" />
    <glyph glyph-name="degree" unicode="&#xb0;" horiz-adv-x="165" 
d="M1.10547 151.687l-0.00195312 4.84375c0 2.30762 -0.106445 4.76855 -0.319336 7.38281s-0.319336 5.0752 -0.319336 7.38184v5.30566c0 8.6123 0.850586 17.8398 2.55273 27.6826s4.25488 19.4541 7.6582 28.835s7.97656 18.4541 13.7197 27.2207
c5.74316 8.76562 12.9756 16.4551 21.6973 23.0684c8.7207 6.6123 18.8242 11.918 30.3105 15.917s24.6738 5.99805 39.5635 5.99805c9.78418 0 17.2295 -2.07617 22.335 -6.22852c5.10449 -4.15234 8.61426 -9.30469 10.5283 -15.4561
c1.91504 -6.15137 2.97852 -12.6104 3.19043 -19.377c0.212891 -6.7666 0.319336 -12.7646 0.319336 -17.9932c0 -11.9951 -1.70117 -24.5293 -5.10449 -37.6016s-8.93359 -24.9912 -16.5908 -35.7559s-18.1865 -19.6846 -31.5869 -26.7588
s-30.0977 -10.6113 -50.0928 -10.6113c-5.95605 0 -11.0605 0.15332 -15.3145 0.460938c-4.25488 0.307617 -8.08398 1.15332 -11.4873 2.53711s-6.80664 3.0752 -10.21 5.07422s-7.01953 4.69043 -10.8477 8.07422zM23.4375 159.991
c3.8291 -2.76855 8.29883 -4.15527 13.4033 -4.15527h14.6768c16.166 0 29.3535 2.99902 39.5635 8.99609c10.21 5.99805 18.1865 13.457 23.9297 22.377c5.74316 8.91895 9.78418 18.6846 12.123 29.2959c2.33984 10.6113 3.50977 20.5312 3.50977 29.7588
c0 4.30566 0.106445 8.99609 0.319336 14.0713s-0.424805 9.84277 -1.91406 14.3027s-4.14844 8.15137 -7.97754 11.0732s-9.57227 4.38281 -17.2295 4.38281c0 -4.9209 -0.850586 -8.61133 -2.55273 -11.0713c-1.70215 -2.46094 -3.93555 -4.15234 -6.7002 -5.0752
s-5.95508 -1.46094 -9.57129 -1.61523c-3.61621 -0.15332 -7.44531 -0.691406 -11.4863 -1.61426c-4.04199 -0.922852 -7.97754 -2.30664 -11.8066 -4.15137c-3.8291 -1.8457 -7.23242 -5.0752 -10.21 -9.68848l-19.4629 -39.9082
c-6.16895 -12.7646 -9.25293 -26.2217 -9.25293 -40.3711v-3.45996c0 -1.38379 0.106445 -2.99805 0.319336 -4.84277c0.212891 -1.8457 0.319336 -3.46094 0.319336 -4.84473v-3.45996z" />
    <glyph glyph-name="plusminus" unicode="&#xb1;" horiz-adv-x="331" 
d="M53 129c0 6.66699 1.16992 11.832 3.50293 15.499s7.16602 7.16699 14.499 10.5c20 -1.33301 39.167 -2.33301 57.5 -3s36.5 -0.666992 54.5 0l-17 144h-7c-2 0 -4 0.166992 -6 0.5s-3.66699 0.5 -5 0.5c-19.333 0 -38.166 -1.66699 -56.499 -5
s-37.166 -7.33301 -56.499 -12c-3.33301 2 -7 5.83301 -11 11.5s-6 10.5 -6 14.5c0 0.666992 1.16699 2.16699 3.5 4.5s3.83301 3.5 4.5 3.5c4.66699 1.33301 12.667 3 24 5s23.666 4.5 36.999 7.5s25.833 5.66699 37.5 8s19.5 4.16602 23.5 5.49902
c2 0.666992 5.16699 2 9.5 4s7.16602 3.66699 8.49902 5c-0.666992 6.66699 -0.833984 14.334 -0.500977 23.001s1.66602 17.167 3.99902 25.5s6 16 11 23s11.833 12.167 20.5 15.5l13 -9v-78h104c0 -5.33301 -2.5 -9.33301 -7.5 -12s-9.5 -4.66699 -13.5 -6
c-3.33301 -0.666992 -8.5 -1.83398 -15.5 -3.50098l-23.5 -5.5c-8.66699 -2 -16.667 -3.66699 -24 -5s-12.666 -2.33301 -15.999 -3c-1.33301 -8 -2.66602 -14.833 -3.99902 -20.5s-2.16602 -11.167 -2.49902 -16.5l-1 -15.5c-0.333008 -5 -0.5 -10.833 -0.5 -17.5
c0 -14.667 1 -29.5 3 -44.5s3.66699 -30.167 5 -45.5c15.333 1.33301 30.833 2.83301 46.5 4.5s32.167 3.83398 49.5 6.50098h4c4.66699 0 11 -2 19 -6s12 -9.33301 12 -16s-0.833008 -13.5 -2.5 -20.5s-6.83398 -10.5 -15.501 -10.5c-6 0 -11.167 1.66699 -15.5 5
s-9.5 5 -15.5 5h-4c-19.333 -4.66699 -34.833 -8 -46.5 -10s-21.5 -3.5 -29.5 -4.5s-15 -1.5 -21 -1.5s-13 0.333008 -21 1s-18.333 1.33398 -31 2.00098s-29.334 1 -50.001 1h-7c-3.33301 0 -6.83301 0.166992 -10.5 0.5s-7.16699 0.5 -10.5 0.5h-7
c-4.66699 2.66699 -7.33398 5.5 -8.00098 8.5s-1 6.16699 -1 9.5z" />
    <glyph glyph-name="twosuperior" unicode="&#xb2;" horiz-adv-x="229" 
d="M39.8516 153.006c0 3.7666 0.0878906 6.66895 0.260742 8.70898s1.81836 4.78613 4.93652 8.23828l30.1367 36.9551c10.7373 12.7109 20.6094 25.8926 29.6162 39.5449c9.00684 13.6514 16.4541 27.8525 22.3428 42.6035s8.83301 29.9727 8.83301 45.665
c0 15.0645 -4.50293 25.6562 -13.5098 31.7764c-9.00586 6.12012 -20.9561 9.18066 -35.8516 9.18066c-10.0459 0 -17.7529 -1.80469 -23.1221 -5.41406s-9.95898 -7.4541 -13.7686 -11.5342c-3.81055 -4.0791 -7.62109 -7.84473 -11.4316 -11.2969
s-9.17969 -5.17871 -16.1074 -5.17871c-4.15723 0 -6.75488 0.941406 -7.79395 2.8252c-1.03906 1.88281 -1.55859 4.55078 -1.55859 8.00293c0 7.8457 2.94434 14.5146 8.83301 20.0068s12.9033 9.96484 21.0439 13.417c8.13965 3.45215 16.7129 5.88477 25.7197 7.29688
c9.00586 1.41211 16.7998 2.11816 23.3818 2.11816c9.00586 0 17.4922 -1.41211 25.46 -4.23633c7.9668 -2.8252 15.0674 -6.82715 21.3027 -12.0059s11.085 -11.377 14.5488 -18.5947c3.46387 -7.21875 5.19629 -15.3789 5.19629 -24.4805
c0 -16.6338 -3.03125 -32.4043 -9.09375 -47.3115c-6.06152 -14.9072 -13.5088 -29.3438 -22.3418 -43.3096s-18.6191 -27.6182 -29.3574 -40.957s-20.7832 -26.4414 -30.1357 -39.3086c-0.34668 -0.62793 -1.04004 -2.04004 -2.08008 -4.2373
c-1.03906 -2.19629 -1.73145 -3.6084 -2.07812 -4.23633c2.77148 -1.88379 4.93652 -3.06055 6.49512 -3.53125s3.72363 -0.706055 6.49512 -0.706055h2.85742h1.81836l104.438 20.7139h20.7832c0 -3.45215 -3.11719 -6.66895 -9.35254 -9.65039
s-14.0293 -5.80664 -23.3818 -8.47461c-9.35254 -2.66699 -19.6572 -5.17773 -30.915 -7.53223c-11.2578 -2.35352 -21.9092 -4.39355 -31.9551 -6.11914c-10.0459 -1.72656 -18.792 -3.06055 -26.2393 -4.00195c-7.44824 -0.941406 -12.2109 -1.41211 -14.2891 -1.41211
h-4.67676c-1.73145 0 -3.63672 0.078125 -5.71484 0.235352c-2.0791 0.157227 -4.15723 0.235352 -6.23535 0.235352h-3.63672c-5.19629 1.25488 -8.14062 3.37305 -8.83398 6.35449c-0.692383 2.98145 -1.03906 6.19824 -1.03906 9.65039z" />
    <glyph glyph-name="threesuperior" unicode="&#xb3;" horiz-adv-x="271" 
d="M12.6641 184.182c0 0.652344 0.0820312 1.46875 0.251953 2.44824s0.254883 1.79492 0.254883 2.44727c8.1543 -3.2627 15.459 -6.52637 21.9141 -9.79004c6.45605 -3.26367 12.9121 -6.11914 19.3682 -8.56641c6.45508 -2.44727 13.25 -4.40527 20.3857 -5.87402
c7.13477 -1.46875 15.459 -2.20312 24.9717 -2.20312c11.5518 0 23.9531 1.46875 37.2041 4.40625c13.251 2.93652 25.4824 7.58691 36.6943 13.9502c11.2119 6.36426 20.5557 14.3594 28.0312 23.9863c7.47461 9.62695 11.2119 21.293 11.2119 34.999
c0 7.17969 -1.18945 13.8691 -3.56738 20.0693c-2.37891 6.2002 -5.77637 11.585 -10.1934 16.1533c-4.41699 4.56934 -9.68359 8.24121 -15.7998 11.0156c-6.11621 2.77344 -12.7412 4.16016 -19.876 4.16016c-6.7959 0 -12.9971 -1.38672 -18.6035 -4.16016
c-5.60547 -2.77441 -11.042 -5.79297 -16.3086 -9.05566c-5.2666 -3.26367 -10.6182 -6.20117 -16.0547 -8.81152s-11.2119 -3.91602 -17.3271 -3.91602c-2.37891 0 -4.84277 0.245117 -7.39062 0.734375s-3.82227 2.36523 -3.82227 5.62793
c0 3.58984 2.29395 7.50586 6.88086 11.748c4.58691 4.24316 10.1934 9.05664 16.8193 14.4404l21.4043 17.1328c7.64453 6.03711 14.7793 12.7266 21.4053 20.0693s12.1475 15.1748 16.5645 23.4961s6.625 17.0508 6.625 26.1885
c0 6.2002 -1.10449 11.0957 -3.3125 14.6855c-2.20801 3.58887 -5.0957 6.28125 -8.66309 8.07617s-7.81445 2.85547 -12.7412 3.18164c-4.92676 0.327148 -10.1084 0.490234 -15.5449 0.490234c-13.9307 0 -25.8223 -2.61035 -35.6748 -7.83203
s-17.4971 -14.0332 -22.9336 -26.4346c-5.09668 0.652344 -8.5791 2.93652 -10.4473 6.85352c-1.86816 3.91504 -2.80273 7.99414 -2.80273 12.2373c0 7.83203 3.56738 14.0322 10.7021 18.6006c7.13574 4.56934 15.46 8.15918 24.9727 10.7695
c9.51367 2.61035 19.0273 4.32324 28.54 5.13867c9.51367 0.81543 16.4785 1.22363 20.8955 1.22363c15.2891 0 27.2656 -4.32422 35.9297 -12.9717s12.9961 -19.9873 12.9961 -34.0195c0 -6.2002 -0.764648 -12.2373 -2.29297 -18.1113
c-1.5293 -5.87402 -3.56836 -11.5029 -6.11621 -16.8867c-2.54785 -5.38477 -5.43555 -10.7695 -8.66309 -16.1543l-9.9375 -16.8877c9.17285 -2.93652 17.8369 -7.09766 25.9912 -12.4824c8.1543 -5.38379 15.2041 -11.7471 21.1504 -19.0898
s10.7031 -15.4199 14.2705 -24.2314s5.35059 -17.9492 5.35059 -27.4131c0 -14.6846 -4.33203 -27.4932 -12.9961 -38.4258c-8.66309 -10.9326 -19.3652 -20.0703 -32.1064 -27.4131s-26.502 -12.8906 -41.2822 -16.6436
c-14.7793 -3.75293 -28.2852 -5.62891 -40.5166 -5.62891c-5.43652 0 -13.4209 0.81543 -23.9531 2.44727s-21.1494 3.99805 -31.8516 7.09863s-20.0459 7.09863 -28.0303 11.9941c-7.98438 4.89453 -11.9766 10.6055 -11.9766 17.1328z" />
    <glyph glyph-name="acute" unicode="&#xb4;" horiz-adv-x="145" 
d="M73 568c-4 -4 -8.00391 -9.00098 -12.0039 -15.001s-8.5 -11.333 -13.5 -16s-10.167 -7.5 -15.5 -8.5s-10.666 1.83301 -15.999 8.5l36 62c3.33301 10 8.83301 19.833 16.5 29.5s14.834 17.834 21.501 24.501c6.66699 9.33301 13.667 9 21 -1c5.33301 -6 7 -13 5 -21
s-5.66699 -16 -11 -24s-11.166 -15.5 -17.499 -22.5s-11.166 -12.5 -14.499 -16.5z" />
    <glyph glyph-name="mu" unicode="&#xb5;" horiz-adv-x="435" 
d="M93 527c-3.33301 -74.667 -3.66309 -135.168 -0.996094 -181.501s7.16699 -81.333 13.5 -105s14.333 -37.334 24 -41.001s20.167 -0.166992 31.5 10.5s22.666 27 33.999 49s22.333 46.667 33 74s20.667 56.333 30 87s16.666 59.667 21.999 87
c1.33301 5.33301 4.33301 8.33301 9 9s8.66699 1 12 1c1.33301 0 3.66602 -0.166992 6.99902 -0.5s5.66602 -0.5 6.99902 -0.5c0 -5.33301 0.166992 -13.166 0.5 -23.499s0.833008 -22.166 1.5 -35.499l2 -41.5l2 -41.5c0.666992 -13.333 1.16699 -25.333 1.5 -36
s0.833008 -18.334 1.5 -23.001c-0.666992 -39.333 -0.166992 -69.833 1.5 -91.5s3.5 -37.5 5.5 -47.5c0.666992 -8 1.66699 -13 3 -15c-2 1.33301 -5.33301 2.33301 -10 3c-5.33301 0.666992 -13 -2.33301 -23 -9c-6 6.66699 -9 17.5 -9 32.5s0.333008 31.667 1 50
s0.666992 37.333 0 57s-4.33398 36.834 -11.001 51.501c1.33301 -8 0 -19.5 -4 -34.5s-10.167 -31.167 -18.5 -48.5s-18.666 -34.833 -30.999 -52.5s-26 -33 -41 -46s-30.833 -22.667 -47.5 -29s-34 -6.83301 -52 -1.5c-9.33301 -80.667 -18.5 -138.5 -27.5 -173.5
s-16 -48.833 -21 -41.5s-7.16699 35.333 -6.5 84s6 116 16 202v314z" />
    <glyph glyph-name="paragraph" unicode="&#xb6;" horiz-adv-x="379" 
d="M88 311c-16 0 -28.832 1.83984 -38.499 5.50684s-17.334 9.16699 -23.001 16.5s-9.5 16.5 -11.5 27.5s-3 23.833 -3 38.5c0 25.333 5.16699 46.666 15.5 63.999s24.166 31.5 41.499 42.5s36.833 19.167 58.5 24.5s43.667 9.16602 66 11.499s43.833 3.5 64.5 3.5h53
c1.33301 0 3 -0.166992 5 -0.5l3 -0.5c2.66699 -8 4.83398 -16.5 6.50098 -25.5s2.83398 -20.5 3.50098 -34.5s1 -31.5 1 -52.5s-0.5 -47.333 -1.5 -79s-2.33301 -69.667 -4 -114s-3.5 -96.5 -5.5 -156.5c1.33301 -2.66699 3 -7.33398 5 -14.001l6.5 -21.5
c2.33301 -7.66699 4.33301 -15.334 6 -23.001s2.5 -14.5 2.5 -20.5h-20l-3.5 6c-2.33301 4 -4.83301 8.66699 -7.5 14l-8.5 17c-3 6 -5.16699 11 -6.5 15c-0.666992 2 -1.5 4.66699 -2.5 8s-1.83301 6.83301 -2.5 10.5l-2 10.5c-0.666992 3.33301 -1 5.66602 -1 6.99902v405
c-5.33301 -4 -11 -8 -17 -12s-12.333 -8 -19 -12v-16c0 -5.33301 -0.166992 -13 -0.5 -23s-0.666016 -23.167 -0.999023 -39.5s-1 -38.333 -2 -66s-2 -61.667 -3 -102s-2.5 -89.5 -4.5 -147.5c1.33301 -2.66699 3.16602 -7.16699 5.49902 -13.5s4.5 -13.333 6.5 -21
s3.83301 -15.334 5.5 -23.001s2.5 -14.5 2.5 -20.5h-20l-3 6l-8 14c-2.66699 5.33301 -5.33398 11 -8.00098 17s-4.66699 11 -6 15c-0.666992 2 -1.5 4.66699 -2.5 8l-3 10.5c-1 3.66699 -1.83301 7.16699 -2.5 10.5s-1 5.66602 -1 6.99902v279
c-10 -16.667 -24.5 -30.167 -43.5 -40.5s-43.167 -15.5 -72.5 -15.5z" />
    <glyph glyph-name="periodcentered" unicode="&#xb7;" horiz-adv-x="178" 
d="M39 221c0 5.33301 0.666992 10.834 2 16.501s3.5 10.667 6.5 15s7 8 12 11s10.833 4.5 17.5 4.5s13.167 -1 19.5 -3s12 -5 17 -9s9.16699 -8.5 12.5 -13.5s5 -10.5 5 -16.5c0 -14.667 -5.33301 -25.334 -16 -32.001s-22.667 -10 -36 -10c-15.333 0 -25.833 2.5 -31.5 7.5
s-8.5 14.833 -8.5 29.5z" />
    <glyph glyph-name="cedilla" unicode="&#xb8;" horiz-adv-x="262" 
d="M46 -151l0.00195312 6v9v10v5c1.33301 2 4.16602 4.33301 8.49902 7s7.5 3.66699 9.5 3c6.66699 -1.33301 11.5 -5 14.5 -11s7.33301 -12.667 13 -20s14 -14.5 25 -21.5s27.833 -12.167 50.5 -15.5c9.33301 -2 14.833 -0.5 16.5 4.5s2.5 10.5 2.5 16.5
c-1.33301 11.333 -6.5 20.333 -15.5 27s-19.833 12.834 -32.5 18.501l-39 17c-13.333 5.66699 -24.333 13.167 -33 22.5s-14.167 21.666 -16.5 36.999s1.5 35.333 11.5 60c0.666992 10 3 16.5 7 19.5s8.66699 3.66699 14 2s10.5 -4.83398 15.5 -9.50098
s8.5 -10.167 10.5 -16.5s1.66699 -12.666 -1 -18.999s-8.33398 -11.5 -17.001 -15.5c0 -16.667 3.5 -29.667 10.5 -39s15.667 -17 26 -23s21.5 -11 33.5 -15s23 -8.83301 33 -14.5s18.5 -13.167 25.5 -22.5s10.5 -22 10.5 -38c0 -6 -1.5 -12.333 -4.5 -19
s-7 -12.667 -12 -18s-10.5 -9.83301 -16.5 -13.5s-12.333 -5.5 -19 -5.5c-19.333 0 -37 0.666992 -53 2s-29.833 4.5 -41.5 9.5s-20.667 12.167 -27 21.5s-9.5 22.333 -9.5 39z" />
    <glyph glyph-name="onesuperior" unicode="&#xb9;" horiz-adv-x="96" 
d="M50.7715 367.908c1.27637 0 2.87109 -0.0683594 4.78516 -0.212891c1.91504 -0.143555 3.19141 -0.21582 3.8291 -0.21582c3.82812 -6.06836 6.2207 -11.125 7.17871 -15.1699c0.957031 -4.04492 1.43555 -8.95703 1.43555 -14.7354v-9.10254
c0 -2.60059 -0.319336 -5.20117 -0.957031 -7.80176c-0.638672 -2.60059 -1.5957 -5.27344 -2.87207 -8.01855s-2.87109 -5.99609 -4.78516 -9.75293v-136.091c0.637695 -1.15527 1.91406 -3.10547 3.82812 -5.85059l6.22168 -9.10156
c2.2334 -3.32324 3.98828 -6.64648 5.26465 -9.96973s1.91406 -6.28516 1.91406 -8.88574h-17.2285c-0.637695 0 -2.07324 0.867188 -4.30664 2.60059s-4.62598 3.75586 -7.17871 6.06738c-2.55176 2.31152 -5.10449 4.76758 -7.65723 7.36816
c-2.55176 2.60059 -4.78516 4.76758 -6.7002 6.50098c0 0.867188 -0.478516 2.02344 -1.43555 3.46777l-2.87109 4.55078c-0.957031 1.58887 -1.75488 3.10547 -2.39355 4.5498c-0.637695 1.44434 -0.957031 2.45605 -0.957031 3.03418v184.633
c0 2.88965 2.71191 5.63477 8.13574 8.23535s11.0068 3.90039 16.75 3.90039z" />
    <glyph glyph-name="ordmasculine" unicode="&#xba;" horiz-adv-x="165" 
d="M1.10547 151.687l-0.00195312 4.84375c0 2.30762 -0.106445 4.76855 -0.319336 7.38281s-0.319336 5.0752 -0.319336 7.38184v5.30566c0 8.6123 0.850586 17.8398 2.55273 27.6826s4.25488 19.4541 7.6582 28.835s7.97656 18.4541 13.7197 27.2207
c5.74316 8.76562 12.9756 16.4551 21.6973 23.0684c8.7207 6.6123 18.8242 11.918 30.3105 15.917s24.6738 5.99805 39.5635 5.99805c9.78418 0 17.2295 -2.07617 22.335 -6.22852c5.10449 -4.15234 8.61426 -9.30469 10.5283 -15.4561
c1.91504 -6.15137 2.97852 -12.6104 3.19043 -19.377c0.212891 -6.7666 0.319336 -12.7646 0.319336 -17.9932c0 -11.9951 -1.70117 -24.5293 -5.10449 -37.6016s-8.93359 -24.9912 -16.5908 -35.7559s-18.1865 -19.6846 -31.5869 -26.7588
s-30.0977 -10.6113 -50.0928 -10.6113c-5.95605 0 -11.0605 0.15332 -15.3145 0.460938c-4.25488 0.307617 -8.08398 1.15332 -11.4873 2.53711s-6.80664 3.0752 -10.21 5.07422s-7.01953 4.69043 -10.8477 8.07422zM23.4375 159.991
c3.8291 -2.76855 8.29883 -4.15527 13.4033 -4.15527h14.6768c16.166 0 29.3535 2.99902 39.5635 8.99609c10.21 5.99805 18.1865 13.457 23.9297 22.377c5.74316 8.91895 9.78418 18.6846 12.123 29.2959c2.33984 10.6113 3.50977 20.5312 3.50977 29.7588
c0 4.30566 0.106445 8.99609 0.319336 14.0713s-0.424805 9.84277 -1.91406 14.3027s-4.14844 8.15137 -7.97754 11.0732s-9.57227 4.38281 -17.2295 4.38281c0 -4.9209 -0.850586 -8.61133 -2.55273 -11.0713c-1.70215 -2.46094 -3.93555 -4.15234 -6.7002 -5.0752
s-5.95508 -1.46094 -9.57129 -1.61523c-3.61621 -0.15332 -7.44531 -0.691406 -11.4863 -1.61426c-4.04199 -0.922852 -7.97754 -2.30664 -11.8066 -4.15137c-3.8291 -1.8457 -7.23242 -5.0752 -10.21 -9.68848l-19.4629 -39.9082
c-6.16895 -12.7646 -9.25293 -26.2217 -9.25293 -40.3711v-3.45996c0 -1.38379 0.106445 -2.99805 0.319336 -4.84277c0.212891 -1.8457 0.319336 -3.46094 0.319336 -4.84473v-3.45996z" />
    <glyph glyph-name="guillemotright" unicode="&#xbb;" horiz-adv-x="556" 
d="M277 127c0 2 3.33203 8.17188 9.99902 18.5049s14.334 21.5 23.001 33.5l24.5 34l14.5 20c2.66699 3.33301 8.83398 11.666 18.501 24.999l31.5 43.5l31.5 43.5c9.66699 13.333 15.834 21.666 18.501 24.999l9.5 14l11 16.5c3.66699 5.66699 6.5 10.5 8.5 14.5l4 6v25
c0 0.666992 -5.66699 3.16699 -17 7.5s-25 9.16602 -41 14.499l-49.5 16.5l-41.5 13.5l-45 9c-10 2 -19.333 3.66699 -28 5s-14 2 -16 2c-9.33301 2 -16.333 4.83301 -21 8.5s-7 12.834 -7 27.501c0 8 2.16699 12.833 6.5 14.5s8.5 2.5 12.5 2.5
c1.33301 0 3.16602 -0.166992 5.49902 -0.5l3.5 -0.5l256 -85c1.33301 -0.666992 3.5 -1.66699 6.5 -3s6 -2.83301 9 -4.5s5.66699 -4 8 -7s3.5 -6.5 3.5 -10.5c0 -8.66699 -1 -16.334 -3 -23.001s-4.66699 -13.667 -8 -21l-16.5 -26.5l-24.5 -38.5l-25 -38l-17 -25
c-4 -4.66699 -11 -13.834 -21 -27.501l-33 -43.5l-34 -44l-23 -30l-6 -6c-2 -2 -4.5 -4.16699 -7.5 -6.5s-5.83301 -4.83301 -8.5 -7.5s-4.66699 -4.33398 -6 -5.00098h-5c-2 0.666992 -4.33301 2 -7 4s-4.33398 3.33301 -5.00098 4v2v3zM135.999 91.0049
c0 2 3.33008 8.16797 9.99707 18.501s14.334 21.5 23.001 33.5l24.5 34c7.66699 10.667 12.834 17.334 15.501 20.001c2.66699 3.33301 8.83398 11.666 18.501 24.999l31.5 43.5l31.5 43c9.66699 13 15.834 21.5 18.501 25.5c2.66699 3.33301 5.83398 7.83301 9.50098 13.5
l10.5 17c3.33301 5.66699 6.33301 10.5 9 14.5l4 6v25c0 0.666992 -5.83301 3.16699 -17.5 7.5s-25.334 9.16602 -41.001 14.499l-49 16.5c-17 5.66699 -30.833 9.83398 -41.5 12.501c-2.66699 1.33301 -8.66699 2.66602 -18 3.99902l-27 6c-10 2 -19.5 3.66699 -28.5 5
s-14.5 2 -16.5 2c-8.66699 2 -15.5 4.83301 -20.5 8.5s-7.5 12.834 -7.5 27.501c0 8 2.33301 12.833 7 14.5s9 2.5 13 2.5c1.33301 0 3 -0.166992 5 -0.5l3 -0.5l256 -85c1.33301 -0.666992 3.66602 -1.66699 6.99902 -3s6.5 -2.83301 9.5 -4.5s5.66699 -4 8 -7
s3.5 -6.5 3.5 -10.5c0 -8.66699 -1 -16.334 -3 -23.001s-4.66699 -13.667 -8 -21l-16.5 -26.5c-7.66699 -12.333 -16.167 -25.166 -25.5 -38.499l-25 -38l-17 -25c-4 -4.66699 -11 -13.834 -21 -27.501l-32.5 -43.5l-34 -44l-23.5 -30l-5 -6c-2 -2 -4.5 -4.16699 -7.5 -6.5
s-5.83301 -4.83301 -8.5 -7.5l-6 -6h-6c-1.33301 1.33301 -3.5 3 -6.5 5s-4.83301 3.33301 -5.5 4v2v3z" />
    <glyph glyph-name="onequarter" unicode="&#xbc;" horiz-adv-x="553" 
d="M81 462.775c1.33301 0 3.00195 -0.0898438 5.00195 -0.277344c2 -0.186523 3.33301 -0.280273 4 -0.280273c4 -7.87305 6.5 -14.4336 7.5 -19.6816s1.5 -11.6211 1.5 -19.1182v-11.8096c0 -3.37402 -0.333008 -6.74805 -1 -10.1221s-1.66699 -6.8418 -3 -10.4033
s-3 -7.7793 -5 -12.6533v-176.567c0.666992 -1.49902 2 -4.0293 4 -7.59082l6.5 -11.8086c2.33301 -4.31152 4.16602 -8.62305 5.49902 -12.9346s2 -8.1543 2 -11.5283h-18c-0.666992 0 -2.16699 1.125 -4.5 3.37402s-4.83301 4.87305 -7.5 7.87207
s-5.33398 6.18555 -8.00098 9.55957s-5 6.18555 -7 8.43457c0 1.125 -0.5 2.625 -1.5 4.49902l-3 5.9043c-1 2.06152 -1.83301 4.0293 -2.5 5.90332s-1 3.18652 -1 3.93652v239.547c0 3.74902 2.83301 7.31055 8.5 10.6846s11.5 5.06055 17.5 5.06055zM33.002 -88.9961
c7.33301 36 15.6689 71.334 25.002 106.001s21.666 69 36.999 103l226 525l62 60h20c0 -10.667 -2.33301 -22.834 -7 -36.501s-11 -28.167 -19 -43.5s-16.667 -31 -26 -47l-28 -47l-26.5 -43c-8.33301 -13.333 -14.5 -25 -18.5 -35l-110 -252
c-35.333 -84 -68.666 -169 -99.999 -255v-11c0 -5.33301 -0.5 -11.333 -1.5 -18s-2.66699 -13.167 -5 -19.5s-5.83301 -10.5 -10.5 -12.5c-0.666992 -0.666992 -1.33398 -1 -2.00098 -1h-5c-0.666992 0 -1.33398 0.333008 -2.00098 1s-2 3.16699 -4 7.5l-5 10.5v8z
M388.155 188.335c1.00879 1.60059 0.628906 3.80371 -1.1377 6.60547s-3.40723 4.20215 -4.92188 4.20215c-3.0293 0.800781 -9.33984 -0.400391 -18.9316 -3.60254s-20.9512 -7.30469 -34.0771 -12.3076l-42.0273 -16.5117l-42.7861 -17.1113
c-13.6299 -5.40332 -25.8721 -9.90625 -36.7266 -13.5088s-18.8057 -5.40332 -23.8545 -5.40332c-7.06738 0 -11.2324 1.30078 -12.4941 3.90234c-1.2627 2.60156 -1.89355 5.90332 -1.89355 9.90625s1.00977 7.70508 3.0293 11.1074s4.29102 6.70508 6.81543 9.90723
s5.42676 6.2041 8.70801 9.00586c3.28223 2.80176 6.18555 5.80371 8.70996 9.00586l10.9805 15.0098l14.7666 19.5137l13.6309 18.0117c4.03809 5.40332 6.30957 8.70605 6.81445 9.90723l8.70801 14.1094l14.7666 25.2168l18.5527 31.5215l19.6895 33.3223
l17.7949 30.6201c5.55371 9.40625 9.84473 16.9111 12.874 22.5146c2.52441 4.40332 4.66992 9.10645 6.43652 14.1104c1.7666 5.00293 3.91211 9.60547 6.43652 13.8076c2.52441 4.20312 5.93262 7.70508 10.2246 10.5068c4.29102 2.80176 9.9707 4.20312 17.0381 4.20312
c1.00977 0 3.28125 -0.0996094 6.81543 -0.299805s5.55371 -0.300781 6.05859 -0.300781c8.07715 -8.00488 15.6494 -16.21 22.7178 -24.6152c7.06738 -8.40527 13.3779 -17.2109 18.9316 -26.417c5.55273 -9.20605 9.96973 -18.7119 13.252 -28.5186
c3.28125 -9.80664 4.92188 -19.7129 4.92188 -29.7197c0 -7.20508 -0.883789 -13.8096 -2.65039 -19.8135c-1.7666 -6.00488 -3.66016 -12.0088 -5.67969 -18.0127l-6.81543 -18.0117c-2.52441 -5.60352 -4.03906 -11.6074 -4.54395 -18.0117
c-1.51465 -10.8076 -2.65039 -21.0146 -3.40723 -30.6211l-2.27148 -28.2188c-0.756836 -9.20605 -1.13574 -18.5127 -1.13574 -27.9189v-29.1191v-24.0166c0 -6.4043 0.251953 -12.708 0.756836 -18.9121s1.13574 -12.8086 1.89258 -19.8135
s2.14551 -15.7109 4.16504 -26.1182c1.00977 -5.60352 2.65039 -11.0068 4.92188 -16.21l7.19434 -15.9111c2.52441 -5.40332 4.7959 -10.707 6.81543 -15.9102c2.01855 -5.2041 3.02832 -10.4082 3.02832 -15.6123c-10.6016 0 -19.3096 3.60254 -26.125 10.8076
s-12.3691 15.6104 -16.6602 25.2168s-7.32031 19.5127 -9.08691 29.7188c-1.7666 10.207 -2.90234 18.3125 -3.40723 24.3164c-0.504883 4.00293 -1.13574 11.0078 -1.89258 21.0146l-2.27148 31.5205c-0.757812 11.0078 -1.38867 21.5146 -1.89355 31.5215
s-0.756836 16.8115 -0.756836 20.4141zM229.886 178.73l6.81543 0.00292969c0.504883 0 4.7959 1.20117 12.873 3.60254l28.7764 8.40527l34.4551 10.207l29.1553 9.00586c4.54395 1.2002 9.21387 2.90137 14.0098 5.10352c4.7959 2.20117 9.21387 4.70312 13.2529 7.50488
c4.03809 2.80176 7.31934 6.10352 9.84375 9.90527c2.52441 3.80273 3.78613 7.90527 3.78613 12.3086c0 1.60059 -0.125977 3.90234 -0.37793 6.9043c-0.25293 3.00195 -0.378906 4.70312 -0.378906 5.10352c-0.504883 2.40137 -1.00977 6.30371 -1.51465 11.707
l-1.51465 16.2109c-0.504883 5.40332 -1.13574 10.5068 -1.89258 15.3105c-0.757812 4.80273 -1.38867 7.80469 -1.89355 9.00586c-1.00977 3.60254 -2.14551 8.40527 -3.40723 14.4092c-1.2627 6.00488 -2.52539 11.709 -3.78809 17.1123
c-1.26172 5.40332 -2.52344 10.2061 -3.78613 14.4082l-1.89258 6.30469l-6.81543 5.40332c-1.00977 -0.400391 -2.39844 -1.60156 -4.16504 -3.60254s-3.78613 -4.10254 -6.05859 -6.30371c-2.27148 -2.20215 -4.29102 -4.40332 -6.05762 -6.60449
c-1.7666 -2.20215 -3.15527 -3.70312 -4.16504 -4.50391l-6.05859 -9.90625l-10.6016 -17.7119l-12.873 -21.6143c-4.54395 -7.60547 -8.70898 -14.9102 -12.4951 -21.915l-10.2227 -18.3125c-3.0293 -5.20312 -5.30078 -8.60547 -6.81543 -10.2061
c-1.51465 -2.40137 -4.54395 -6.60449 -9.08691 -12.6084l-14.0098 -18.9131l-13.6309 -18.9131c-4.29102 -6.00391 -7.44629 -10.0068 -9.46582 -12.0078v-4.80273zM401.027 355.252c0 -3.60254 -0.25293 -8.60449 -0.757812 -15.0088
s-0.630859 -12.9082 -0.37793 -19.5127c0.251953 -6.60449 1.3877 -12.5088 3.40723 -17.7119c2.01953 -5.2041 5.80566 -8.20605 11.3594 -9.00586c4.03809 4.40332 7.31934 9.80664 9.84375 16.2109s3.78711 12.208 3.78711 17.4111v2.40137
c-0.504883 2.00098 -1.38867 5.10352 -2.65039 9.30664l-4.16504 13.209c-1.51465 4.60254 -3.0293 8.70508 -4.54395 12.3076s-2.27148 6.00391 -2.27148 7.2041c-0.504883 1.20117 -1.51465 3.00293 -3.0293 5.4043s-2.77637 4.20215 -3.78613 5.40332
c-4.54395 -3.60254 -6.81543 -8.20605 -6.81543 -13.8105v-13.8086z" />
    <glyph glyph-name="onehalf" unicode="&#xbd;" horiz-adv-x="567" 
d="M55.4561 483.37c1.44727 0 3.25879 -0.111328 5.43066 -0.334961c2.1709 -0.222656 3.61816 -0.333984 4.3418 -0.333984c4.34277 -9.36035 7.05664 -17.1602 8.14258 -23.4004c1.08496 -6.23926 1.62793 -13.8164 1.62793 -22.7314v-14.04
c0 -4.01172 -0.361328 -8.02344 -1.08496 -12.0342c-0.723633 -4.01172 -1.80957 -8.13477 -3.25684 -12.3691c-1.44824 -4.23438 -3.25781 -9.24902 -5.42871 -15.043v-209.934c0.723633 -1.7832 2.1709 -4.79199 4.34277 -9.02637l7.05664 -14.04
c2.5332 -5.12598 4.52344 -10.252 5.97168 -15.3779c1.44727 -5.12598 2.1709 -9.69434 2.1709 -13.7061h-19.542c-0.723633 0 -2.35254 1.33691 -4.88574 4.01172s-5.24707 5.79492 -8.14258 9.36035c-2.89551 3.56641 -5.79102 7.35547 -8.68652 11.3662
c-2.89551 4.01172 -5.42871 7.35449 -7.59961 10.0283c0 1.33691 -0.542969 3.12012 -1.62891 5.34961l-3.25684 7.01953c-1.08594 2.45215 -1.99121 4.79199 -2.71484 7.02051s-1.08496 3.78809 -1.08496 4.67969v284.814c0 4.45801 3.07617 8.69238 9.22754 12.7031
c6.15234 4.01172 12.4854 6.01758 19 6.01758zM16.002 -128c7.33301 36 15.6689 71.334 25.002 106.001s21.666 69 36.999 103l226 525l62 60h20c0 -10.667 -2.33301 -22.834 -7 -36.501s-11 -28.167 -19 -43.5s-16.667 -31 -26 -47l-28 -47l-26.5 -43
c-8.33301 -13.333 -14.5 -25 -18.5 -35l-110 -252c-35.333 -84 -68.666 -169 -99.999 -255v-11c0 -5.33301 -0.5 -11.333 -1.5 -18s-2.66699 -13.167 -5 -19.5s-5.83301 -10.5 -10.5 -12.5c-0.666992 -0.666992 -1.33398 -1 -2.00098 -1h-5
c-0.666992 0 -1.33398 0.333008 -2.00098 1s-2 3.16699 -4 7.5l-5 10.5v8zM240.333 14.7939c0 4.65723 0.134766 8.24707 0.416992 10.7695s2.95898 5.91797 8.03027 10.1875l49.0303 45.6992c17.4697 15.7178 33.5312 32.0176 48.1836 48.8994
c14.6533 16.8818 26.7695 34.4434 36.3496 52.6846c9.58105 18.2412 14.3711 37.0645 14.3711 56.4697c0 18.6289 -7.32617 31.7275 -21.9795 39.2959c-14.6523 7.56738 -34.0947 11.3516 -58.3281 11.3516c-16.3428 0 -28.8818 -2.23145 -37.6172 -6.69434
c-8.73535 -4.46387 -16.2021 -9.21777 -22.4014 -14.2627c-6.19922 -5.0459 -12.3984 -9.70312 -18.5977 -13.9717c-6.19922 -4.26953 -14.9346 -6.4043 -26.2051 -6.4043c-6.7627 0 -10.9893 1.16406 -12.6797 3.49316s-2.53516 5.62793 -2.53516 9.89648
c0 9.70215 4.79004 17.9492 14.3701 24.7412c9.58105 6.79199 20.9932 12.3223 34.2363 16.5908c13.2432 4.26953 27.1914 7.27734 41.8447 9.02344c14.6523 1.74707 27.332 2.62012 38.04 2.62012c14.6523 0 28.459 -1.74609 41.4209 -5.23926
s24.5146 -8.44141 34.6582 -14.8447s18.0332 -14.0684 23.6689 -22.9941c5.63574 -8.92676 8.4541 -19.0176 8.4541 -30.2725c0 -20.5693 -4.93164 -40.0713 -14.7939 -58.5059s-21.9785 -36.2871 -36.3496 -53.5576c-14.3701 -17.2705 -30.291 -34.1533 -47.7617 -50.6475
c-17.4697 -16.4941 -33.8125 -32.6973 -49.0283 -48.6094c-0.563477 -0.776367 -1.69043 -2.52344 -3.38086 -5.24023c-1.69043 -2.71582 -2.81738 -4.46191 -3.38086 -5.23828c4.50879 -2.32812 8.03125 -3.7832 10.5674 -4.36621
c2.53613 -0.582031 6.05859 -0.873047 10.5674 -0.873047h4.64941h2.95801l169.913 25.6152h33.8135c0 -4.26953 -5.07227 -8.24805 -15.2158 -11.9346s-22.8232 -7.17969 -38.0391 -10.4785s-31.9814 -6.40332 -50.2969 -9.31445s-35.6445 -5.43359 -51.9873 -7.56836
c-16.3428 -2.13379 -30.5723 -3.7832 -42.6885 -4.94824c-12.1162 -1.16406 -19.8652 -1.74609 -23.2471 -1.74609h-7.60742c-2.81738 0 -5.91699 0.0966797 -9.29883 0.291016s-6.76367 0.291016 -10.1455 0.291016h-5.91699
c-8.45312 1.55176 -13.2432 4.17188 -14.3711 7.85938c-1.12695 3.68652 -1.69043 7.66406 -1.69043 11.9326z" />
    </font>
</defs>
</svg>
